<svg xmlns="http://www.w3.org/2000/svg" xmlns:xlink="http://www.w3.org/1999/xlink" width="130" height="1170" viewBox="0 0 130 1170"><svg version="1" width="130" height="130" viewBox="-10 -10 130 130" id="Settings-2" y="0"><g><path d="M87 79c0 4.418-3.582 8-8 8H31c-4.418 0-8-3.582-8-8V31c0-4.418 3.582-8 8-8h48c4.418 0 8 3.582 8 8v48z" fill="#F0F1F1"/><path d="M79 23H31c-4.418 0-8 3.582-8 8v48c0 2.26.94 4.296 2.447 5.75L84.75 25.446C83.297 23.94 81.26 23 79 23z" fill="#fff"/><path d="M41 72.5c0 2.21-1.79 4-4 4s-4-1.79-4-4v-36c0-2.21 1.79-4 4-4s4 1.79 4 4v36zM59 72.5c0 2.21-1.79 4-4 4s-4-1.79-4-4v-36c0-2.21 1.79-4 4-4s4 1.79 4 4v36zM77 72.5c0 2.21-1.79 4-4 4s-4-1.79-4-4v-36c0-2.21 1.79-4 4-4s4 1.79 4 4v36z" fill="#3E3E3F"/><path d="M44 47c0-1.105-1.045-2-2.333-2h-9.333c-1.29 0-2.334.895-2.334 2v4c0 1.105 1.045 2 2.333 2h9.333c1.29 0 2.334-.895 2.334-2v-4zM80 47c0-1.105-1.045-2-2.333-2h-9.333c-1.29 0-2.334.895-2.334 2v4c0 1.105 1.045 2 2.333 2h9.333c1.29 0 2.334-.895 2.334-2v-4z" fill="#17B198"/><path d="M62 59c0-1.105-1.045-2-2.333-2h-9.333c-1.29 0-2.334.895-2.334 2v4c0 1.105 1.045 2 2.333 2h9.333c1.29 0 2.334-.895 2.334-2v-4z" fill="#FA5655"/></g></svg>
<svg version="1" width="130" height="130" viewBox="-10 -10 130 130" id="Settings-5" y="130"><g><path d="M83.485 66.502c-3.14-3.14-7.582-4.164-11.583-3.098L50.167 41.67c1.747-4.93.664-10.637-3.28-14.582-3.947-3.947-9.66-5.03-14.59-3.277l10.347 10.35v5.656l-2.828 2.828H34.16L23.81 32.296c-1.75 4.932-.668 10.644 3.278 14.59 3.95 3.95 9.666 5.03 14.6 3.275l21.728 21.73c-1.066 4-.04 8.444 3.098 11.583 4.686 4.686 12.284 4.686 16.97 0 4.688-4.686 4.688-12.284 0-16.97zm-6.62 15.45l-6.964-1.865-1.865-6.965 5.1-5.1 6.964 1.867 1.865 6.964-5.1 5.1z" fill="#E2E4E5"/><path d="M71.902 63.404L50.167 41.67c1.747-4.93.664-10.637-3.28-14.582-3.947-3.947-9.66-5.03-14.59-3.277l10.347 10.35v5.656L41.29 41.17l29.347 29.35 2.497-2.498 6.965 1.866 1.865 6.965-2.497 2.497 4.067 4.067c4.633-4.69 4.62-12.247-.05-16.916-3.14-3.137-7.582-4.162-11.583-3.096z" fill="#fff"/><path d="M53.788 68.08c.757-.757 1.055-1.864.778-2.9-.268-1-.01-2.113.777-2.898l2.828-2.828c.392-.39.392-1.024 0-1.414l-5.656-5.657c-.39-.39-1.024-.39-1.414 0l-2.828 2.828c-.785.786-1.898 1.045-2.9.778-1.035-.277-2.14.02-2.898.778L24.23 75.01c-3.536 3.536 7.778 14.85 11.314 11.314L53.788 68.08z" fill="#DF2C2C"/><path fill="#E2E4E5" d="M83.187 24.54l-12.02 6.363-.708 4.95L53.22 53.09l4.242 4.243 17.238-17.238 4.88-.636 6.513-12.013z"/><path fill="#fff" d="M83.187 24.54l-12.02 6.363-.708 4.95L53.22 53.09l2.344 2.344 29.258-29.258z"/><path d="M52.515 52.383c-.39-.39-1.023-.39-1.414 0l-2.828 2.83c-.785.785-1.898 1.043-2.9.775-1.035-.277-2.14.02-2.898.78L24.23 75.01c-1.814 1.814.284 5.674 3.232 8.527l28.104-28.103-3.05-3.05z" fill="#FA5655"/></g></svg>
<svg version="1" width="130" height="130" viewBox="-10 -10 130 130" id="Shop" y="260"><g><path d="M87 87H23v-.04c0-2.187 1.773-3.96 3.96-3.96h56.08c2.187 0 3.96 1.773 3.96 3.96V87z" fill="#E2E4E5"/><path fill="#fff" d="M27 47h56v36H27z"/><path d="M32.143 47c0 2.21-2.047 4-4.57 4S23 49.21 23 47h9.143z" fill="#DF2C2C"/><path d="M41.286 47c0 2.21-2.047 4-4.57 4s-4.572-1.79-4.572-4h9.142z" fill="#CFD3D4"/><path d="M50.43 47c0 2.21-2.048 4-4.572 4s-4.57-1.79-4.57-4h9.14z" fill="#DF2C2C"/><path d="M59.57 47c0 2.21-2.046 4-4.57 4s-4.57-1.79-4.57-4h9.14zM77.857 47c0 2.21-2.047 4-4.57 4-2.526 0-4.572-1.79-4.572-4h9.142z" fill="#CFD3D4"/><path d="M68.714 47c0 2.21-2.047 4-4.57 4-2.526 0-4.572-1.79-4.572-4h9.142zM87 47c0 2.21-2.047 4-4.57 4-2.526 0-4.572-1.79-4.572-4H87z" fill="#DF2C2C"/><path fill="#FA5655" d="M23 47h9.143l8-20h-8z"/><path fill="#fff" d="M32.143 47h9.143L47 27h-6.857z"/><path fill="#FA5655" d="M41.286 47h9.143l3.427-20H47z"/><path fill="#fff" d="M50.43 47h9.14V27h-5.713z"/><path fill="#FA5655" d="M87 47h-9.143l-5.714-20H79z"/><path fill="#fff" d="M77.857 47h-9.143l-3.428-20h6.857z"/><path fill="#FA5655" d="M68.714 47H59.57V27h5.716z"/><path fill="#6FDAF1" d="M31 55h28v16H31z"/><path fill="#40C9E7" d="M59 71H31l28-16zM65 55h14v13H65zM65 71h14v12H65z"/><path d="M57.978 76c.26-3.258-3.405-5.625-7.407-5.625-2.323 0-4.395.764-5.758 1.96-.62-1.183-1.646-1.96-2.812-1.96-1.093 0-2.055.692-2.683 1.75-.775-1.918-2.607-3.268-4.746-3.268-2.5 0-4.58 1.845-5.04 4.288-.36-.31-.785-.493-1.244-.493-1.355 0-2.406 1.54-2.262 3.348h31.954z" fill="#0D9681"/><path fill="#9C6144" d="M26 76h32v7H26z"/><path fill="#AF7653" d="M26 76h32v2H26z"/></g></svg>
<svg version="1" width="130" height="130" viewBox="-10 -10 130 130" id="Smartphone-Message" y="390"><g><path d="M59 81c0 3.314-2.686 6-6 6H29c-3.314 0-6-2.686-6-6V29c0-3.314 2.686-6 6-6h24c3.314 0 6 2.686 6 6v52z" fill="#fff"/><path fill="#3E3E3F" d="M25 35h32v40H25z"/><circle cx="34" cy="30" r="1" fill="#CFD3D4"/><path d="M49 30c0 .552-.448 1-1 1H38c-.552 0-1-.448-1-1s.448-1 1-1h10c.552 0 1 .448 1 1z" fill="#CFD3D4"/><circle cx="41" cy="81" r="4" fill="#CFD3D4"/><path fill="#fff" d="M39 79h4v4h-4z"/><path fill="#5B5C5F" d="M57 39.676V35H25v36.676z"/><path d="M67 27c-11.046 0-20 6.32-20 14.118 0 3.817 2.155 7.274 5.642 9.814L48 63l12.103-8.645c2.153.56 4.47.88 6.897.88 11.046 0 20-6.32 20-14.118S78.046 27 67 27z" fill="#F0F1F1"/><path d="M67 27c-11.046 0-20 6.32-20 14.118 0 3.817 2.155 7.274 5.642 9.814L48 63l.43-.308 32.01-32.008C76.886 28.404 72.18 27 67 27z" fill="#fff"/><circle cx="59" cy="41" r="2" fill="#21B2D1"/><circle cx="67" cy="41" r="2" fill="#21B2D1"/><circle cx="75" cy="41" r="2" fill="#21B2D1"/></g></svg>
<svg version="1" width="130" height="130" viewBox="-10 -10 130 130" id="Sneakers-2" y="520"><g><path d="M84.486 45.962L68 39.254c-1.59-.636-3.408-.19-4.522 1.11C58.972 51.31 46.12 65.725 36.685 64.97H30c-4.283 0-7 4.577-7 8.86v.14c0 3.44 1.137 5.752 6.09 7.435C34.062 83.093 51 82.968 51 82.968h32c2.21 0 4-1.79 4-4V49.676c0-1.636-.995-3.106-2.514-3.714z" fill="#0484AB"/><path d="M68 39.254c-1.59-.636-3.408-.19-4.522 1.11C58.972 51.31 46.12 65.725 36.685 64.97H30c-4.283 0-7 4.577-7 8.86v.14c0 3.44 1.137 5.752 6.09 7.435 1.35.458 3.582.783 6.117 1.013L75.37 42.253l-7.37-3z" fill="#059BBF"/><path d="M87 73.27c-23 0-17.5 3.688-31 3.688-13.12 0-31.905-3.777-32.95-3.99-.03.276-.05.558-.05.85v.14c0 3.44 1.137 5.752 6.09 7.435C34.062 83.083 51 82.958 51 82.958h32c2.21 0 4-1.79 4-4V73.27z" fill="#DF2C2C"/><path d="M87 78.998c0 2.21-1.79 4-4 4H51s-16.94.12-21.91-1.57c-2.06-.7-3.46-1.51-4.39-2.46.1.01.2.026.3.03 44 1.97 50 0 50 0h12z" fill="#E2E4E5"/><path d="M23.05 72.968c-.03.276-.05.558-.05.85v.14c0 3.44 1.138 5.752 6.09 7.435 1.35.46 3.59.784 6.128 1.014l6.46-6.458c-9.46-1.137-17.935-2.84-18.627-2.982z" fill="#FA5655"/><path d="M55.667 76.968h2c0-6.48 8.032-13.083 15.917-13.083 5.325 0 10.07-1.37 13.417-3.788v-2.58c-2.97 2.773-7.818 4.368-13.416 4.368-9.042 0-17.917 7.47-17.917 15.083z" fill="#21B2D1"/><path d="M44.34 61.85c-.767.64-.944 1.75-.415 2.597l2.984 4.774c.286.46.745.782 1.274.896s1.08.01 1.53-.29L60.97 62.32c.5-.33.822-.87.88-1.466.06-.596-.15-1.188-.575-1.61l-4.983-4.984c-.73-.73-1.9-.784-2.695-.122L44.34 61.85z" fill="#FACB1B"/><path d="M87 49.676v7.84c-2.97 2.78-7.82 4.37-13.42 4.37-2.06 0-4.11.39-6.05 1.09-6.14-4.53-10.24-10.87-10.66-11.53 2.81-3.63 5.14-7.54 6.6-11.08 1.12-1.3 2.94-1.75 4.53-1.11l16.48 6.71c1.52.6 2.52 2.08 2.52 3.71z" fill="#DF2C2C"/><path d="M46.91 69.222l-2.985-4.774c-.227-.364-.317-.775-.293-1.178-2.407 1.22-4.778 1.865-6.963 1.688h-6.68c-2.98 0-5.2 2.21-6.27 5 .93 0 15.08 6.087 23.502-.365-.117-.11-.226-.232-.313-.37z" fill="#FA5655"/><path d="M56.292 54.26c-.73-.73-1.9-.785-2.695-.122L44.34 61.85c-.768.64-.945 1.75-.416 2.598l2.984 4.774c.192.308.467.547.784.71l12.136-12.136-3.536-3.536zM68 39.256l5.97 2.43c-.18-4.228-1.262-6.75-2.97-6.75-.974 0-3.835 3.87-3.986 4.075.333.044.665.117.986.246z" fill="#FBE158"/><path d="M68 39.256c-1.59-.64-3.41-.19-4.53 1.11-1.46 3.54-3.79 7.45-6.6 11.08.24.377 1.682 2.606 4.016 5.292l14.482-14.48L68 39.255z" fill="#FA5655"/><path d="M25 78.998c-.1-.005-.2-.02-.3-.03.93.95 2.33 1.76 4.39 2.46 1.39.473 3.722.804 6.355 1.036l2.946-2.946c-4.023-.13-8.455-.3-13.39-.52z" fill="#fff"/><path d="M71.17 55.9c-1.44 2.027-4.25 2.504-6.275 1.065l-7.746-5.5c-.902-.64-1.113-1.888-.474-2.79L59.57 44.6c.64-.902 1.89-1.113 2.79-.474l7.746 5.5c2.026 1.44 2.502 4.25 1.063 6.275z" fill="#FACB1B"/><path d="M62.36 44.126c-.9-.64-2.15-.428-2.79.473l-2.894 4.076c-.64.9-.428 2.15.473 2.79l5.268 3.74 6.455-6.454-6.513-4.626z" fill="#FBE158"/></g></svg>
<svg version="1" width="130" height="130" viewBox="-10 -10 130 130" id="Soldier-3" y="650"><g><path d="M83 76c-.615-1.333-1.698-2.394-3.043-2.982L65 69v-5l-3.243 3.24c-1.125 1.125-2.65 1.757-4.242 1.757H52.484c-1.59 0-3.116-.632-4.242-1.757L45 64v5l-14.957 4.018c-1.345.588-2.428 1.65-3.043 2.982l-4 11h64l-4-11z" fill="#0C7367"/><path d="M65.143 69.04L65 69v-5l-3.243 3.24c-1.125 1.125-2.65 1.757-4.242 1.757H52.484c-1.59 0-3.116-.632-4.242-1.757L45 64v5l-.143.04c1.786 1.177 4.72 2.017 8.143 2.258V80h4v-8.703c3.424-.24 6.357-1.08 8.143-2.258z" fill="#099686"/><path d="M68.83 41.482C67.78 39.744 61.44 39.044 55 39c-6.44.044-12.78.744-13.83 2.482-.13 1.4-.167 2.91-.17 4.518v12.343c0 1.06.422 2.08 1.172 2.83l6.07 6.068C49.37 68.367 50.895 69 52.486 69H57.516c1.59 0 3.116-.632 4.242-1.757l6.07-6.068c.75-.75 1.173-1.768 1.173-2.83V46c-.003-1.608-.04-3.118-.17-4.518z" fill="#FBC8C8"/><path d="M41.17 41.482c-.13 1.4-.167 2.91-.17 4.518v12.343c0 1.06.422 2.08 1.172 2.83l6.07 6.067c1.126 1.125 2.652 1.757 4.243 1.757H55V39c-6.44.044-12.78.744-13.83 2.482z" fill="#FBD7D7"/><path d="M51 58h8s0 3-4 3-4-3-4-3z" fill="#F79392"/><path d="M76 87l-1.633-16.04c-2.884-.81-5.686-1.454-7.082-1.762L62.367 80H47.734l-4.918-10.802c-1.396.308-4.197.95-7.082 1.763L33.367 87H76z" fill="#3E3E3F"/><path fill="#5B5C5F" d="M68.082 87l-1.715-3H43.734l-1.714 3zM34.1 69.18l.075.978c.062.818.455 1.574 1.09 2.094s1.452.758 2.266.658l3.704-.453c.88-.107 1.666-.598 2.15-1.34s.614-1.66.357-2.507l-.26-.867-9.38 1.437zM76 69.18l-.074.978c-.062.818-.455 1.574-1.09 2.094s-1.452.758-2.266.658l-3.703-.453c-.88-.107-1.666-.598-2.15-1.34-.483-.742-.614-1.66-.357-2.507l.262-.867L76 69.18z"/><path fill="#FACB1B" d="M69 75h10v10H69z"/><path fill="#3E3E3F" d="M70 81l4-4 4 4v2l-4-4-4 4zM68.88 51.12c-.564.564-.88 1.327-.88 2.123V58l-4.444 4H46.444L42 58v-4.757c0-.796-.316-1.56-.88-2.12L39 49v8.68c0 .84.353 1.643.973 2.212l10.167 9.32c.553.507 1.277.788 2.027.788h5.666c.75 0 1.474-.28 2.027-.79l10.167-9.32c.62-.567.973-1.37.973-2.21V49l-2.12 2.12zM58 67h-6l-2.222-2h10.444L58 67z"/><path d="M75 50c-1-7-1-10-3-11 0-11-9-16-17-16s-17 5-17 16c-2 1-2 4-3 11-.447 3.13 6 3 6 3V42c0-2.122 6.95-2.952 14-3 7.05.048 14 .878 14 3v11s6.447.13 6-3z" fill="#0C7367"/><path d="M55 23c-8 0-17 5-17 16-2 1-2 4-3 11-.447 3.13 6 3 6 3V42c0-2.122 6.95-2.952 14-3V23z" fill="#099686"/><path d="M55 35c-8.4 0-14 3-14 8 1.867-2 9.333-4 14-4s12.133 2 14 4c0-5-5.6-8-14-8z" fill="#12B2A0"/><path d="M70.54 42.93c-.23-.28-1.165-1.266-3.46-2.185C64.184 39.587 60.335 39 55.64 39c-.218 0-.438 0-.664.004C54.8 39 54.576 39 54.36 39c-11.09 0-14.358 3.273-14.9 3.93l-.477.575.017.747c.203 8.503 2.07 9.41 2.772 9.75 1.86.905 6.99 1.002 9.11 1.002 1.97 0 2.853-1.75 3.38-2.798.193-.38.55-1.09.755-1.215.167.125.524.834.717 1.216.528 1.046 1.41 2.798 3.382 2.798 2.12 0 7.25-.098 9.11-1 .702-.342 2.568-1.25 2.77-9.752l.02-.748-.475-.575z" fill="#3E3E3F"/><path d="M55 41.007c-11.243-.13-13.897 3.193-14 3.2 0 2.4.174 7.285 1.647 8 .105.052.232.1.375.145 9.223-5.683 15.052-9.372 17.705-11.065-1.603-.194-3.493-.305-5.727-.28z" fill="#5B5C5F"/></g></svg>
<svg version="1" width="130" height="130" viewBox="-10 -10 130 130" id="Spongebob" y="780"><g><path d="M34.48 23c-1.14 0-2.225.486-2.984 1.336-.76.85-1.12 1.983-.99 3.116l4.09 36c.23 2.02 1.94 3.548 3.974 3.548h32.858c2.034 0 3.745-1.527 3.974-3.548l4.09-36c.13-1.132-.23-2.266-.99-3.116S76.66 23 75.52 23H34.48z" fill="#FACB1B"/><path d="M55 23H34.48c-1.14 0-2.225.486-2.984 1.336-.76.85-1.12 1.983-.99 3.116l4.09 36c.23 2.02 1.94 3.548 3.975 3.548H55V23zM85.72 62.734c-.7-1.502-2.485-2.153-3.987-1.453L69.45 67H71v5.898l13.266-6.177c1.502-.7 2.152-2.484 1.453-3.986zM24.28 62.734c.7-1.502 2.485-2.153 3.987-1.453L40.547 67H39v5.898L25.734 66.72c-1.502-.7-2.152-2.484-1.453-3.986z" fill="#FBE158"/><circle cx="49" cy="41" r="6" fill="#fff"/><circle cx="50" cy="41" r="2" fill="#059BBF"/><circle cx="61" cy="41" r="6" fill="#fff"/><circle cx="60" cy="41" r="2" fill="#059BBF"/><circle cx="64" cy="28" r="4" fill="#F3B607"/><circle cx="39" cy="31" r="4" fill="#FACB1B"/><circle cx="51" cy="29" r="2" fill="#FACB1B"/><circle cx="72" cy="33" r="2" fill="#F3B607"/><circle cx="72" cy="44" r="2" fill="#F3B607"/><circle cx="38" cy="46" r="2" fill="#FACB1B"/><circle cx="70" cy="60" r="2" fill="#F3B607"/><circle cx="41" cy="61" r="3" fill="#FACB1B"/><path d="M69 50c-2.78-2.78-2.797 2-14 2s-11.22-4.78-14-2 5 10 14 10 16.78-7.22 14-10z" fill="#FA5655"/><path d="M50 51.612V55h4v-3.013c-1.554-.042-2.87-.18-4-.375zM60 51.612c-1.13.194-2.446.333-4 .374V55h4v-3.388zM39 67h32v12H39z" fill="#fff"/><path fill="#AF7653" d="M39 75h32v4H39z"/><path fill="#FA5655" d="M53 67v4l2 4 2-4v-4z"/><path d="M63 79v6c0 1.105.895 2 2 2h10c8.18 0 3-12-8-4v-4h-4zM47 79v6c0 1.105-.895 2-2 2H35c-8.18 0-3-12 8-4v-4h4z" fill="#3E3E3F"/><path fill="#fff" d="M43 79h4v3h-4zM63 79h4v3h-4z"/></g></svg>
<svg version="1" width="130" height="130" viewBox="-10 -10 130 130" id="Street-View" y="910"><g><path d="M55 63c17.68 0 30 5.797 30 11S72.68 85 55 85s-30-5.797-30-11 12.32-11 30-11m0-2c-17.673 0-32 5.82-32 13s14.327 13 32 13 32-5.82 32-13-14.327-13-32-13zM55 69c12.39 0 18 3.452 18 4.5S67.39 78 55 78s-18-3.452-18-4.5S42.61 69 55 69m0-2c-11.046 0-20 2.91-20 6.5S43.954 80 55 80s20-2.91 20-6.5S66.046 67 55 67z" fill="#fff"/><path d="M61.463 35.708c.966-1.322 1.542-2.946 1.542-4.708 0-4.418-3.582-8-8-8s-8 3.582-8 8c0 1.762.577 3.386 1.542 4.708-1.543.306-8.33 2.157-7.464 6.48l1.278 13.596C42.738 57.654 44.38 59 46.286 59h.97l.77 12.398C48.23 73.443 49.95 75 52.006 75h6c2.056 0 3.777-1.557 3.98-3.602L62.758 59h.97c1.907 0 3.548-1.346 3.922-3.215l1.278-13.597c.755-3.78-4.578-5.907-7.465-6.48z" fill="#DF2C2C"/><path d="M55 23c-4.416.003-7.994 3.583-7.994 8 0 1.762.577 3.386 1.542 4.708-1.543.306-8.33 2.157-7.464 6.48l1.278 13.596c.375 1.87 2.016 3.216 3.923 3.216h.97l.77 12.398C48.23 73.443 49.95 75 52.006 75H55V23z" fill="#FA5655"/></g></svg>
<svg version="1" width="130" height="130" viewBox="-10 -10 130 130" id="Student-3" y="1040"><g><path fill="#E2E4E5" d="M67 67.997l-2-1H45l-2 1L55 87z"/><path d="M70 45c-1 0-1 1.11-1 1.11V45c-.002-1.065-.02-2.086-.067-3.062C64.89 38 55 38 55 38s-9.89 0-13.933 3.938c-.048.976-.065 1.997-.067 3.062v7.997l4 10 5.105 3.996c.57.64 1.384 1.004 2.24 1.004h5.31c.856 0 1.67-.365 2.24-1.004L65 62.997l3.207-8.017C71.042 54.776 72 50.476 72 47.222 72 46.112 71 45 70 45z" fill="#F8E1C2"/><path d="M41 45v1.11S41 45 40 45s-2 1.11-2 2.222c0 3.253.958 7.554 3.793 7.758L45 62.997l5.105 3.996c.57.64 1.384 1.004 2.24 1.004H55V38s-9.89 0-13.933 3.938c-.048.976-.065 1.997-.067 3.062z" fill="#FCF1E2"/><path d="M50 56.997h10s0 3-5 3-5-3-5-3z" fill="#F79392"/><path d="M61 47.322c1.19 0 2.248.266 2.98.678.072-.57-.17-1.154-.747-1.59-1.03-.78-2.702-.78-3.733 0-.464.352-.71.8-.753 1.26.642-.22 1.417-.348 2.253-.348zM48.993 47.322c-1.19 0-2.248.266-2.98.678-.072-.57.17-1.154.747-1.59 1.03-.78 2.702-.78 3.733 0 .464.352.71.8.753 1.26-.642-.22-1.417-.348-2.253-.348z" fill="#3E3E3F"/><path d="M57.655 67.997h-5.31c-.856 0-1.67-.365-2.24-1.004L45 62.997v4.5s0 7.5 10 7.5 10-7.5 10-7.5v-4.5l-5.105 3.996c-.57.64-1.384 1.004-2.24 1.004z" fill="#F4D0A1"/><g fill="#3E3E3F"><path d="M55 38s-.758 0-1.938.083v5.625c3.72 0 5.972-2.684 7.274-5.234C57.41 38 55 38 55 38zM45.92 39.332c-1.898.59-3.692 1.44-4.92 2.668 0 3.542 2.323 5.25 2.323 5.25-.294-2.956-.31-4.882 2.596-7.918zM46.865 39.062v4.647c2.865 0 5.15-4.055 5.918-5.605-1.565.12-3.756.385-5.918.957zM66.344 40.205v7.045c2.488 0 2.646-4.66 2.655-5.25-.722-.722-1.64-1.31-2.656-1.795zM61.917 38.77v4.94c3.354 0 4.325-3.172 4.418-3.51-1.367-.65-2.914-1.107-4.418-1.43z"/></g><path d="M50.105 66.993L45 62.997v4.5s0 7.5 10 7.5v-7h-2.655c-.856 0-1.67-.365-2.24-1.004z" fill="#F8E1C2"/><path d="M34.49 53.445v-19.62c-.696-.25-1.367-.493-2-.728v20.348c-2.61 1.72-1 6.85-1 9.555h4.001c0-2.705 1.612-7.835-1-9.555z" fill="#FA5655"/><path d="M82 31c0-1-25-8-27-8s-27 7-27 8c0 .625 7.432 3.207 13 5.053V42c4-4 14-4 14-4s10 0 14 4v-5.947c5.568-1.846 13-4.428 13-5.053z" fill="#3E3E3F"/><path fill="#fff" d="M66.965 68.06L67 68l-2-1-9.985 4.98 5.793 5.827z"/><path fill="#DF2C2C" d="M59 87l-2.8-10.2 1.8-1.798-3.02-3.024-2.997 2.998 1.818 1.817L51 87z"/><path fill="#FA5655" d="M55 87V71.997l-.02-.02-2.997 3 1.818 1.816L51 87z"/><path fill="#fff" d="M43.035 68.06L43 68l2-1 9.985 4.98-5.793 5.827z"/><path d="M23 87l4-11c.615-1.333 1.698-2.394 3.043-2.983L43 68l12 19H23zM87 87l-4-11c-.615-1.333-1.698-2.394-3.043-2.983L67 68 55 87h32z" fill="#3E3E3F"/><path fill="#9E9FA0" d="M55 87L43 68l-9 3 17 16zM55 87l12-19 9 3-17 16z"/></g></svg>
</svg>