<svg xmlns="http://www.w3.org/2000/svg" xmlns:xlink="http://www.w3.org/1999/xlink" width="130" height="4030" viewBox="0 0 130 4030"><svg version="1" width="130" height="130" viewBox="-10 -10 130 130" id="Settings-2" y="0"><g><path d="M83.485 66.502c-3.14-3.14-7.582-4.164-11.583-3.098L50.167 41.67c1.747-4.93.664-10.637-3.28-14.582-3.947-3.947-9.66-5.03-14.59-3.277l10.347 10.35v5.656l-2.828 2.828H34.16L23.81 32.296c-1.75 4.932-.668 10.644 3.278 14.59 3.95 3.95 9.666 5.03 14.6 3.275l21.728 21.73c-1.066 4-.04 8.444 3.098 11.583 4.686 4.686 12.284 4.686 16.97 0 4.688-4.686 4.688-12.284 0-16.97zm-6.62 15.45l-6.964-1.865-1.865-6.965 5.1-5.1 6.964 1.867 1.865 6.964-5.1 5.1z" fill="#E2E4E5"/><path d="M71.902 63.404L50.167 41.67c1.747-4.93.664-10.637-3.28-14.582-3.947-3.947-9.66-5.03-14.59-3.277l10.347 10.35v5.656L41.29 41.17l29.347 29.35 2.497-2.498 6.965 1.866 1.865 6.965-2.497 2.497 4.067 4.067c4.633-4.69 4.62-12.247-.05-16.916-3.14-3.137-7.582-4.162-11.583-3.096z" fill="#fff"/><path d="M53.788 68.08c.757-.757 1.055-1.864.778-2.9-.268-1-.01-2.113.777-2.898l2.828-2.828c.392-.39.392-1.024 0-1.414l-5.656-5.657c-.39-.39-1.024-.39-1.414 0l-2.828 2.828c-.785.786-1.898 1.045-2.9.778-1.035-.277-2.14.02-2.898.778L24.23 75.01c-3.536 3.536 7.778 14.85 11.314 11.314L53.788 68.08z" fill="#DF2C2C"/><path fill="#E2E4E5" d="M83.187 24.54l-12.02 6.363-.708 4.95L53.22 53.09l4.242 4.243 17.238-17.238 4.88-.636 6.513-12.013z"/><path fill="#fff" d="M83.187 24.54l-12.02 6.363-.708 4.95L53.22 53.09l2.344 2.344 29.258-29.258z"/><path d="M52.515 52.383c-.39-.39-1.023-.39-1.414 0l-2.828 2.83c-.785.785-1.898 1.043-2.9.775-1.035-.277-2.14.02-2.898.78L24.23 75.01c-1.814 1.814.284 5.674 3.232 8.527l28.104-28.103-3.05-3.05z" fill="#FA5655"/></g></svg>
<svg version="1" width="130" height="130" viewBox="-10 -10 130 130" id="rasta" y="130"><g><path d="M23 87l4-11c.615-1.333 1.698-2.394 3.043-2.983L43 68l9 19H23z" fill="#FACB1B"/><path fill="#fff" d="M52 87l-9-19 2-.503V65l-4 1-6 17 10-2 5 6z"/><path d="M87 87l-4-11c-.615-1.333-1.698-2.394-3.043-2.983L67 68l-9 19h29z" fill="#FACB1B"/><path fill="#fff" d="M58 87l9-19-2-.503V65l4 1 6 17-10-2-5 6z"/><path d="M65 62.997l-5.105 3.996c-.57.64-1.384 1.004-2.24 1.004h-5.31c-.856 0-1.67-.365-2.24-1.004L45 62.997v4.5l-2 .5L52 87h6l9-19.003-2-.5v-4.5z" fill="#9C6144"/><path d="M50.105 66.993L45 62.997v4.5l-2 .5L52 87h3V67.997h-2.655c-.856 0-1.67-.365-2.24-1.004zM55 30c-12.976 0-13.982 6-14 15v7.997l4 10 5.105 3.996c.57.64 1.384 1.004 2.24 1.004h5.31c.856 0 1.67-.365 2.24-1.004L65 62.997l4-10V45c-.018-9-1.024-15-14-15z" fill="#BF8662"/><path d="M41 45v7.997l4 10 5.105 3.996c.57.64 1.384 1.004 2.24 1.004H55V30c-12.976 0-13.982 6-14 15z" fill="#CC9978"/><path d="M52 46.997c0-1.104-.896-2-2-2h-.006c0 .022.006.042.006.063 0 1.103-.892 1.996-1.994 2 .033 1.075.91 1.938 1.994 1.938 1.104 0 2-.896 2-2zM61.994 46.997c0-1.104-.896-2-2-2h-.006c0 .02.006.04.006.062 0 1.102-.892 1.995-1.994 2 .033 1.074.91 1.937 1.994 1.937 1.104 0 2-.895 2-2z" fill="#3E3E3F"/><path d="M50 56.997h10s0 3-5 3-5-3-5-3z" fill="#84462D"/><path d="M55 23.286c-5.383.058-21 1.08-21 11.003 0 .525.293 1.176.733 1.86 2.9-6.813 15.53-6.83 20.267-6.85 4.737.02 17.366.036 20.267 6.85.44-.684.733-1.335.733-1.86 0-9.925-15.617-10.946-21-11.004z" fill="#099686"/><path d="M55 29.3c-4.737.02-17.366.037-20.267 6.852.562.878 1.368 1.81 2.15 2.628 3.99-3.716 12.68-3.465 18.117-3.48 5.438.015 14.128-.236 18.118 3.48.78-.818 1.587-1.75 2.15-2.63-2.902-6.813-15.53-6.83-20.268-6.85z" fill="#FACB1B"/><path d="M55 35.3c-5.448.015-14.13-.234-18.118 3.48.956 1 1.206 2.35 3.486 2.637 2.765.347 7.644.8 14.632.87 6.988-.07 11.868-.523 14.632-.87 2.28-.287 2.53-1.637 3.486-2.638-3.99-3.714-12.67-3.465-18.118-3.48z" fill="#DF2C2C"/><path d="M76.922 56.736L72.136 40.05c-.498.634-1.13 1.194-2.504 1.367-1.362.17-3.243.368-5.632.532V67c0 1.104.896 2 2 2s2-.896 2-2V55.285l1.015 8.248c.135 1.096 1.133 1.876 2.23 1.74 1.095-.134 1.874-1.132 1.74-2.228l-1.19-9.678 1.282 4.473c.304 1.062 1.412 1.676 2.474 1.37 1.063-.304 1.677-1.412 1.372-2.474z" fill="#3E3E3F"/><path d="M55 29.3v-6.014c-5.383.058-21 1.08-21 11.003 0 .525.293 1.176.733 1.86 2.9-6.813 15.53-6.83 20.267-6.85z" fill="#12B2A0"/><path d="M55 35.3v-6c-4.737.02-17.366.037-20.267 6.852.562.878 1.368 1.81 2.15 2.628 3.99-3.716 12.68-3.465 18.117-3.48z" fill="#FBE158"/><path d="M36.882 38.78c.956 1 1.205 2.35 3.486 2.636 2.765.347 7.644.8 14.632.87V35.3c-5.448.015-14.13-.234-18.118 3.48z" fill="#FA5655"/><path d="M40.368 41.417c-1.373-.172-2.006-.732-2.504-1.367l-4.786 16.687c-.305 1.062.31 2.17 1.37 2.474 1.063.305 2.17-.308 2.475-1.37l1.283-4.473-1.19 9.678c-.136 1.096.644 2.094 1.74 2.23 1.097.134 2.095-.646 2.23-1.742L42 55.285V67c0 1.104.896 2 2 2s2-.896 2-2V41.95c-2.39-.165-4.27-.362-5.632-.533z" fill="#3E3E3F"/></g></svg>
<svg version="1" width="130" height="130" viewBox="-10 -10 130 130" id="record-player" y="260"><g><path d="M87 75c0 2.21-1.79 4-4 4H27c-2.21 0-4-1.79-4-4V35c0-2.21 1.79-4 4-4h56c2.21 0 4 1.79 4 4v40z" fill="#F0F1F1"/><path d="M27 31c-2.21 0-4 1.79-4 4v40c0 1.347.67 2.53 1.69 3.256L71.946 31H27z" fill="#fff"/><circle cx="47" cy="55" r="20" fill="#3E3E3F"/><circle cx="29" cy="37" r="2" fill="#818284"/><path d="M83 73c0 1.1-.9 2-2 2h-4c-1.1 0-2-.9-2-2V57c0-1.1.9-2 2-2h4c1.1 0 2 .9 2 2v16z" fill="#B6BCBD"/><circle cx="73" cy="41" r="6" fill="#3E3E3F"/><path d="M76.765 38.015c-.255.49-.86.68-1.35.426l-1.773-.922c-.49-.255-.68-.86-.426-1.35l1.384-2.66c.255-.49.86-.68 1.35-.426l1.773.923c.49.255.68.86.426 1.35l-1.385 2.66z" fill="#CFD3D4"/><path fill="#5B5C5F" d="M75.416 38.44l-1.774-.922-10.86 20.876-6.095 4.445 1.178 1.615 6.464-4.714-.02-.023.03.015z"/><path d="M53.248 66.61l-.024-.032c-.644-.883-.45-2.122.433-2.766l2.44-1.78 2.357 3.232-2.44 1.78c-.883.643-2.122.45-2.766-.434z" fill="#818284"/><circle cx="79" cy="59" r="2" fill="#F0F1F1"/><circle cx="79" cy="65" r="2" fill="#F0F1F1"/><circle cx="79" cy="71" r="2" fill="#F0F1F1"/><circle cx="73" cy="41" r="2" fill="#fff"/><path d="M47 35c-11.046 0-20 8.954-20 20 0 4.584 1.56 8.795 4.153 12.168l28.015-28.015C55.795 36.56 51.584 35 47 35z" fill="#5B5C5F"/><circle cx="47" cy="55" r="8" fill="#DF2C2C"/><circle cx="47" cy="55" r="1.562" fill="#fff"/><path d="M47 47c-4.418 0-8 3.582-8 8 0 1.26.3 2.445.817 3.505l10.688-10.688C49.445 47.3 48.26 47 47 47z" fill="#FA5655"/></g></svg>
<svg version="1" width="130" height="130" viewBox="-10 -10 130 130" id="road-worker" y="390"><g><path d="M57.655 67.994h-5.31c-.856 0-1.67-.365-2.24-1.004L45 62.994v4.5s0 7.5 10 7.5 10-7.5 10-7.5v-4.5l-5.105 3.996c-.57.64-1.384 1.004-2.24 1.004z" fill="#F7B4B4"/><path d="M50.105 66.99L45 62.994v4.5s0 7.5 10 7.5v-7h-2.655c-.856 0-1.67-.365-2.24-1.004zM72 47.22c0-1.112-1-2.223-2-2.223s-1 1.11-1 1.11v-1.11c-.018-9-1.024-15-14-15s-13.982 6-14 15v7.997l4 10 5.105 3.996c.57.64 1.384 1.004 2.24 1.004h5.31c.856 0 1.67-.365 2.24-1.004L65 62.994l3.207-8.017C71.042 54.773 72 50.473 72 47.22z" fill="#FBC8C8"/><path d="M41 44.997v1.11s0-1.11-1-1.11-2 1.11-2 2.222c0 3.252.958 7.553 3.793 7.757L45 62.994l5.105 3.996c.57.64 1.384 1.004 2.24 1.004H55V29.997c-12.976 0-13.982 6-14 15z" fill="#FBD7D7"/><path d="M50 56.994h10s0 3-5 3-5-3-5-3z" fill="#F79392"/><path fill="#fff" d="M67 67.997l-2-1L55 75l-10-8.003-2 1L55 87z"/><path d="M23 86.997l4-11c.615-1.333 1.698-2.394 3.043-2.983L43 67.997l12 19H23zM87 86.997l-4-11c-.615-1.333-1.698-2.394-3.043-2.983L67 67.997l-12 19h32z" fill="#F37A10"/><path d="M51.994 47.033c0-1.104-.896-2-2-2h-.006c0 .02.006.04.006.062 0 1.103-.892 1.996-1.994 2 .033 1.075.91 1.938 1.994 1.938 1.104 0 2-.895 2-2zM61.987 47.033c0-1.104-.896-2-2-2h-.006c.002.02.007.04.007.062 0 1.103-.892 1.996-1.994 2 .033 1.075.91 1.938 1.994 1.938 1.105 0 2-.895 2-2z" fill="#3E3E3F"/><path d="M40 41c0 2.156 1 11.873 1 13l1 2h1c0-1.383-1-13 3-16l-6 1zM70 41c0 2.156-1 11.873-1 13l-1 2h-1c0-1.383 1-13-3-16l6 1z" fill="#84462D"/><g fill="#84462D"><path d="M47 57h8c0-4.548-6-3.79-8 0zM55 57h8c-2-3.79-8-4.548-8 0z"/></g><path fill="#FACB1B" d="M36.138 70.654l4.283 16.343h5.137L40.8 68.85zM74 70.654l-4.283 16.343h-5.135l4.756-18.148z"/><path d="M32.895 72.06l-2.852.957c-1.345.588-2.428 1.65-3.043 2.983l-4 11h11.914l-2.02-14.94zM77.02 72.06l2.85.957c1.346.588 2.43 1.65 3.044 2.983l4 11H75l2.02-14.94z" fill="#fff"/><path d="M40 41s-1-15 15-15v15H40z" fill="#FACB1B"/><path d="M70 41s1-15-15-15v15h15z" fill="#F3B607"/><path d="M58 31v-6c0-1.104-.896-2-2-2h-2c-1.104 0-2 .896-2 2v6c.067 1.766-1.92 7.722-7 8h20c-5.08-.278-7.067-6.234-7-8z" fill="#FBE158"/><path d="M73 41.248c0 .454-.305.85-.744.966C70.313 42.73 64.56 44 55 44s-15.313-1.27-17.256-1.786c-.438-.116-.744-.513-.744-.966V41c0-1.105.895-2 2-2h32c1.105 0 2 .895 2 2v.248z" fill="#F3B607"/><path d="M39 39c-1.104 0-2 .896-2 2v.25c0 .452.306.85.744.965C39.687 42.73 45.44 44 55 44v-5H39z" fill="#FACB1B"/></g></svg>
<svg version="1" width="130" height="130" viewBox="-10 -10 130 130" id="rocker" y="520"><g><path d="M83 73.964c-.615-1.333-1.698-2.395-3.043-2.983L65 66.965H45L30.043 70.98c-1.345.59-2.428 1.65-3.043 2.984L23 87h64l-4-13.036z" fill="#3E3E3F"/><path d="M57.655 65.964h-5.31c-.856 0-1.67-.365-2.24-1.004L45 60.964V68s2 4 10 4 10-4 10-4v-7.036l-5.105 3.996c-.57.638-1.384 1.004-2.24 1.004z" fill="#F7B4B4"/><path d="M50.105 64.96L45 60.963V68s2 4 10 4v-6.036h-2.655c-.856 0-1.67-.366-2.24-1.005zM72 45.222C72 44.112 71 43 70 43h-1v-.036C68.982 33.964 67.976 26 55 26s-13.982 7.964-14 16.964v8l4 10 5.105 3.996c.57.64 1.384 1.004 2.24 1.004h5.31c.856 0 1.67-.365 2.24-1.004L65 60.964l3.193-7.982c2.846-.19 3.807-4.5 3.807-7.76z" fill="#FBC8C8"/><path d="M41 42.964V43h-1c-1 0-2 1.11-2 2.222 0 3.26.96 7.568 3.807 7.76L45 60.964l5.105 3.996c.57.64 1.384 1.004 2.24 1.004H55V26c-12.976 0-13.982 7.964-14 16.964z" fill="#FBD7D7"/><path d="M55 52s-6 0-9 2c0 7 5 12 5 12l4 2 4-2s5-5 5-12c-3-2-9-2-9-2zm2 8l-1-1h-2l-1 1h-2l-1.183-1.97c-.37-.62-.38-1.388-.025-2.015S50.812 55 51.532 55h6.936c.72 0 1.385.388 1.74 1.015s.345 1.397-.025 2.014L59 60h-2z" fill="#3E3E3F"/><path d="M58.302 79.685c.058-.038.083-.11.063-.176-.02-.067-.08-.113-.15-.113h-3.612l4.35-4.13c.046-.044.06-.11.035-.17-.024-.06-.082-.097-.145-.097H54.68c-.05 0-.095.022-.125.06l-4.317 5.34c-.037.048-.043.113-.017.166.027.054.082.088.142.088h2.984l-3.73 4.137c-.052.06-.052.15 0 .208.052.06.14.07.205.027l8.482-5.34z" fill="#FBE158"/><path d="M51.758 45c0-1.104-.896-2-2-2h-.006c0 .02.006.04.006.062 0 1.103-.892 1.996-1.994 2 .033 1.075.91 1.938 1.994 1.938 1.104 0 2-.896 2-2zM61.75 45c0-1.104-.895-2-2-2h-.005c0 .02.006.04.006.062 0 1.103-.89 1.996-1.993 2 .034 1.075.91 1.938 1.994 1.938 1.106 0 2-.896 2-2zM55 26c-8.648 0-11.977 3.54-13.242 8.564C47 29 50 35 55 35s8-6 13.242-.436C66.977 29.54 63.648 26 55 26z" fill="#3E3E3F"/><circle cx="69.5" cy="51.5" r="1.5" fill="#3E3E3F"/></g></svg>
<svg version="1" width="130" height="130" viewBox="-10 -10 130 130" id="santa" y="650"><g><path d="M68.04 48.86c.613-2.18 1.638-4.503-.04-7.15-4.128-6.548-37.83-6.6-42 0-1.673 2.64-.667 4.922-.04 7.15C24.065 52.85 23 58.62 23 67c0 13.807 10.193 20 24 20s24-6.193 24-20c0-8.38-1.064-14.15-2.96-18.14z" fill="#F0F1F1"/><path d="M26 41.71c-1.673 2.64-.667 4.922-.04 7.15C24.063 52.85 23 58.62 23 67c0 13.807 10.193 20 24 20V36.78c-9.458-.005-18.917 1.632-21 4.93z" fill="#fff"/><path d="M27 47s-2 14 6 18c0 0 6-3 9-3s5 2 5 2 2-2 5-2 9 3 9 3c8-4 6-18 6-18-13.333-5.333-26.667-5.333-40 0z" fill="#F79392"/><path d="M27 47s-2 14 6 18c0 0 6-3 9-3s5 2 5 2V43c-6.667 0-13.333 1.333-20 4z" fill="#F7B4B4"/><path d="M85 58.54c-.59-.34-1.27-.54-2-.54-.79 0-1.53.23-2.15.63-2.98-7.55-6.77-12.57-12.24-15.64-.15-.44-.35-.87-.61-1.28-3.89-6.17-34.03-6.57-40.99-1.08C27.19 38.06 29.22 23 53 23c13.92 0 31.81 6.93 32 35.54z" fill="#DF2C2C"/><path d="M47 23.36c-18.133 2.297-19.827 14.935-19.99 17.27 3.265-2.575 11.628-3.854 19.99-3.85V23.36z" fill="#FA5655"/><path d="M87 62c0 2.21-1.79 4-4 4s-4-1.79-4-4c0-2.213 1.804-4 4-4 2.133 0 4 1.725 4 4z" fill="#fff"/><path d="M47 67s-4 4-8 4c1 2 4 4 8 4s7-2 8-4c-4 0-8-4-8-4z" fill="#F79392"/><path d="M58.87 49.143C58.592 49.06 58.303 49 58 49c-1.657 0-3 1.343-3 3s1.343 3 3 3 3-1.343 3-3c0-.305-.06-.593-.143-.87-1.15 2.47-4.46-.834-1.988-1.987zM36.87 49.143C36.592 49.06 36.303 49 36 49c-1.657 0-3 1.343-3 3s1.343 3 3 3 3-1.343 3-3c0-.305-.06-.593-.143-.87-1.15 2.47-4.46-.834-1.988-1.987z" fill="#3E3E3F"/><ellipse cx="47" cy="59.5" rx="6" ry="4.5" fill="#F79392"/></g></svg>
<svg version="1" width="130" height="130" viewBox="-10 -10 130 130" id="santa-sled" y="780"><g><path d="M72.848 57c-1.72 4.302-4.45 6-7.79 6h-11.79c-12.53 0-4.15-17-16.68-17h-13.66l1.86-3.37c.7-1.28 2.04-2.07 3.5-2.07h8.64c16 0 10 16.44 19.14 16.44h16.78z" fill="#F3B607"/><path d="M83.928 72c-1.657 0-3 1.343-3 3 0 3.846-2.048 6-6.172 6 .54-4.323-.302-8.454-2.223-12h-7.355c2.956 3.184 4.323 7.544 3.52 12H41.16c-.797-4.42.543-8.796 3.512-12h-3.742c-1.145 0-2.232-.245-3.217-.678-2.19 3.692-3.185 8.08-2.61 12.678h-9.172c-1.657 0-3 1.343-3 3s1.343 3 3 3h49c7.178 0 12-4.822 12-12 0-1.657-1.344-3-3-3z" fill="#F0F1F1"/><path d="M82.928 53c0 4.86 2.63 5.78 3.62 11.29.22 1.16-.11 2.37-.87 3.27-.76.91-1.88 1.44-3.07 1.44h-41.68c-4.42 0-8-3.58-8-8v-4c0-4.426-3.577-8-8-8-1.105 0-2-.895-2-2v-1h13.66c12.53 0 4.15 17 16.68 17h11.79c10.697 0 6.055-16.104 20.77-18.68.44-.08.89.15 1.08.57.19.41.08.9-.27 1.19-1.82 1.49-3.71 3.8-3.71 6.92z" fill="#DF2C2C"/><path d="M36.928 40.56h-8.64c-1.46 0-2.8.79-3.5 2.07L22.928 46h13.66c10.06 0 6.65 10.95 11.394 15.27l5.11-5.108C48.16 52.824 50.75 40.56 36.927 40.56z" fill="#FACB1B"/><path d="M36.588 46h-13.66v1c0 1.104.896 2 2 2 4.423 0 8 3.574 8 8v4c0 4.203 3.24 7.64 7.358 7.968l7.696-7.696C43.237 56.952 46.647 46 36.588 46z" fill="#FA5655"/></g></svg>
<svg version="1" width="130" height="130" viewBox="-10 -10 130 130" id="settings-1" y="910"><g><path d="M87 79c0 4.418-3.582 8-8 8H31c-4.418 0-8-3.582-8-8V31c0-4.418 3.582-8 8-8h48c4.418 0 8 3.582 8 8v48z" fill="#F0F1F1"/><path d="M79 23H31c-4.418 0-8 3.582-8 8v48c0 2.26.94 4.296 2.447 5.75L84.75 25.446C83.297 23.94 81.26 23 79 23z" fill="#fff"/><path d="M41 72.5c0 2.21-1.79 4-4 4s-4-1.79-4-4v-36c0-2.21 1.79-4 4-4s4 1.79 4 4v36zM59 72.5c0 2.21-1.79 4-4 4s-4-1.79-4-4v-36c0-2.21 1.79-4 4-4s4 1.79 4 4v36zM77 72.5c0 2.21-1.79 4-4 4s-4-1.79-4-4v-36c0-2.21 1.79-4 4-4s4 1.79 4 4v36z" fill="#3E3E3F"/><path d="M44 47c0-1.105-1.045-2-2.333-2h-9.333c-1.29 0-2.334.895-2.334 2v4c0 1.105 1.045 2 2.333 2h9.333c1.29 0 2.334-.895 2.334-2v-4zM80 47c0-1.105-1.045-2-2.333-2h-9.333c-1.29 0-2.334.895-2.334 2v4c0 1.105 1.045 2 2.333 2h9.333c1.29 0 2.334-.895 2.334-2v-4z" fill="#17B198"/><path d="M62 59c0-1.105-1.045-2-2.333-2h-9.333c-1.29 0-2.334.895-2.334 2v4c0 1.105 1.045 2 2.333 2h9.333c1.29 0 2.334-.895 2.334-2v-4z" fill="#FA5655"/></g></svg>
<svg version="1" width="130" height="130" viewBox="-10 -10 130 130" id="shop" y="1040"><g><path d="M87 87H23v-.04c0-2.187 1.773-3.96 3.96-3.96h56.08c2.187 0 3.96 1.773 3.96 3.96V87z" fill="#E2E4E5"/><path fill="#fff" d="M27 47h56v36H27z"/><path d="M32.143 47c0 2.21-2.047 4-4.57 4S23 49.21 23 47h9.143z" fill="#DF2C2C"/><path d="M41.286 47c0 2.21-2.047 4-4.57 4s-4.572-1.79-4.572-4h9.142z" fill="#CFD3D4"/><path d="M50.43 47c0 2.21-2.048 4-4.572 4s-4.57-1.79-4.57-4h9.14z" fill="#DF2C2C"/><path d="M59.57 47c0 2.21-2.046 4-4.57 4s-4.57-1.79-4.57-4h9.14zM77.857 47c0 2.21-2.047 4-4.57 4-2.526 0-4.572-1.79-4.572-4h9.142z" fill="#CFD3D4"/><path d="M68.714 47c0 2.21-2.047 4-4.57 4-2.526 0-4.572-1.79-4.572-4h9.142zM87 47c0 2.21-2.047 4-4.57 4-2.526 0-4.572-1.79-4.572-4H87z" fill="#DF2C2C"/><path fill="#FA5655" d="M23 47h9.143l8-20h-8z"/><path fill="#fff" d="M32.143 47h9.143L47 27h-6.857z"/><path fill="#FA5655" d="M41.286 47h9.143l3.427-20H47z"/><path fill="#fff" d="M50.43 47h9.14V27h-5.713z"/><path fill="#FA5655" d="M87 47h-9.143l-5.714-20H79z"/><path fill="#fff" d="M77.857 47h-9.143l-3.428-20h6.857z"/><path fill="#FA5655" d="M68.714 47H59.57V27h5.716z"/><path fill="#6FDAF1" d="M31 55h28v16H31z"/><path fill="#40C9E7" d="M59 71H31l28-16zM65 55h14v13H65zM65 71h14v12H65z"/><path d="M57.978 76c.26-3.258-3.405-5.625-7.407-5.625-2.323 0-4.395.764-5.758 1.96-.62-1.183-1.646-1.96-2.812-1.96-1.093 0-2.055.692-2.683 1.75-.775-1.918-2.607-3.268-4.746-3.268-2.5 0-4.58 1.845-5.04 4.288-.36-.31-.785-.493-1.244-.493-1.355 0-2.406 1.54-2.262 3.348h31.954z" fill="#0D9681"/><path fill="#9C6144" d="M26 76h32v7H26z"/><path fill="#AF7653" d="M26 76h32v2H26z"/></g></svg>
<svg version="1" width="130" height="130" viewBox="-10 -10 130 130" id="smartphone-message" y="1170"><g><path d="M59 81c0 3.314-2.686 6-6 6H29c-3.314 0-6-2.686-6-6V29c0-3.314 2.686-6 6-6h24c3.314 0 6 2.686 6 6v52z" fill="#fff"/><path fill="#3E3E3F" d="M25 35h32v40H25z"/><circle cx="34" cy="30" r="1" fill="#CFD3D4"/><path d="M49 30c0 .552-.448 1-1 1H38c-.552 0-1-.448-1-1s.448-1 1-1h10c.552 0 1 .448 1 1z" fill="#CFD3D4"/><circle cx="41" cy="81" r="4" fill="#CFD3D4"/><path fill="#fff" d="M39 79h4v4h-4z"/><path fill="#5B5C5F" d="M57 39.676V35H25v36.676z"/><path d="M67 27c-11.046 0-20 6.32-20 14.118 0 3.817 2.155 7.274 5.642 9.814L48 63l12.103-8.645c2.153.56 4.47.88 6.897.88 11.046 0 20-6.32 20-14.118S78.046 27 67 27z" fill="#F0F1F1"/><path d="M67 27c-11.046 0-20 6.32-20 14.118 0 3.817 2.155 7.274 5.642 9.814L48 63l.43-.308 32.01-32.008C76.886 28.404 72.18 27 67 27z" fill="#fff"/><circle cx="59" cy="41" r="2" fill="#21B2D1"/><circle cx="67" cy="41" r="2" fill="#21B2D1"/><circle cx="75" cy="41" r="2" fill="#21B2D1"/></g></svg>
<svg version="1" width="130" height="130" viewBox="-10 -10 130 130" id="sneakers" y="1300"><g><path d="M84.486 45.962L68 39.254c-1.59-.636-3.408-.19-4.522 1.11C58.972 51.31 46.12 65.725 36.685 64.97H30c-4.283 0-7 4.577-7 8.86v.14c0 3.44 1.137 5.752 6.09 7.435C34.062 83.093 51 82.968 51 82.968h32c2.21 0 4-1.79 4-4V49.676c0-1.636-.995-3.106-2.514-3.714z" fill="#0484AB"/><path d="M68 39.254c-1.59-.636-3.408-.19-4.522 1.11C58.972 51.31 46.12 65.725 36.685 64.97H30c-4.283 0-7 4.577-7 8.86v.14c0 3.44 1.137 5.752 6.09 7.435 1.35.458 3.582.783 6.117 1.013L75.37 42.253l-7.37-3z" fill="#059BBF"/><path d="M87 73.27c-23 0-17.5 3.688-31 3.688-13.12 0-31.905-3.777-32.95-3.99-.03.276-.05.558-.05.85v.14c0 3.44 1.137 5.752 6.09 7.435C34.062 83.083 51 82.958 51 82.958h32c2.21 0 4-1.79 4-4V73.27z" fill="#DF2C2C"/><path d="M87 78.998c0 2.21-1.79 4-4 4H51s-16.94.12-21.91-1.57c-2.06-.7-3.46-1.51-4.39-2.46.1.01.2.026.3.03 44 1.97 50 0 50 0h12z" fill="#E2E4E5"/><path d="M23.05 72.968c-.03.276-.05.558-.05.85v.14c0 3.44 1.138 5.752 6.09 7.435 1.35.46 3.59.784 6.128 1.014l6.46-6.458c-9.46-1.137-17.935-2.84-18.627-2.982z" fill="#FA5655"/><path d="M55.667 76.968h2c0-6.48 8.032-13.083 15.917-13.083 5.325 0 10.07-1.37 13.417-3.788v-2.58c-2.97 2.773-7.818 4.368-13.416 4.368-9.042 0-17.917 7.47-17.917 15.083z" fill="#21B2D1"/><path d="M44.34 61.85c-.767.64-.944 1.75-.415 2.597l2.984 4.774c.286.46.745.782 1.274.896s1.08.01 1.53-.29L60.97 62.32c.5-.33.822-.87.88-1.466.06-.596-.15-1.188-.575-1.61l-4.983-4.984c-.73-.73-1.9-.784-2.695-.122L44.34 61.85z" fill="#FACB1B"/><path d="M87 49.676v7.84c-2.97 2.78-7.82 4.37-13.42 4.37-2.06 0-4.11.39-6.05 1.09-6.14-4.53-10.24-10.87-10.66-11.53 2.81-3.63 5.14-7.54 6.6-11.08 1.12-1.3 2.94-1.75 4.53-1.11l16.48 6.71c1.52.6 2.52 2.08 2.52 3.71z" fill="#DF2C2C"/><path d="M46.91 69.222l-2.985-4.774c-.227-.364-.317-.775-.293-1.178-2.407 1.22-4.778 1.865-6.963 1.688h-6.68c-2.98 0-5.2 2.21-6.27 5 .93 0 15.08 6.087 23.502-.365-.117-.11-.226-.232-.313-.37z" fill="#FA5655"/><path d="M56.292 54.26c-.73-.73-1.9-.785-2.695-.122L44.34 61.85c-.768.64-.945 1.75-.416 2.598l2.984 4.774c.192.308.467.547.784.71l12.136-12.136-3.536-3.536zM68 39.256l5.97 2.43c-.18-4.228-1.262-6.75-2.97-6.75-.974 0-3.835 3.87-3.986 4.075.333.044.665.117.986.246z" fill="#FBE158"/><path d="M68 39.256c-1.59-.64-3.41-.19-4.53 1.11-1.46 3.54-3.79 7.45-6.6 11.08.24.377 1.682 2.606 4.016 5.292l14.482-14.48L68 39.255z" fill="#FA5655"/><path d="M25 78.998c-.1-.005-.2-.02-.3-.03.93.95 2.33 1.76 4.39 2.46 1.39.473 3.722.804 6.355 1.036l2.946-2.946c-4.023-.13-8.455-.3-13.39-.52z" fill="#fff"/><path d="M71.17 55.9c-1.44 2.027-4.25 2.504-6.275 1.065l-7.746-5.5c-.902-.64-1.113-1.888-.474-2.79L59.57 44.6c.64-.902 1.89-1.113 2.79-.474l7.746 5.5c2.026 1.44 2.502 4.25 1.063 6.275z" fill="#FACB1B"/><path d="M62.36 44.126c-.9-.64-2.15-.428-2.79.473l-2.894 4.076c-.64.9-.428 2.15.473 2.79l5.268 3.74 6.455-6.454-6.513-4.626z" fill="#FBE158"/></g></svg>
<svg version="1" width="130" height="130" viewBox="-10 -10 130 130" id="soldier" y="1430"><g><path d="M83 76c-.615-1.333-1.698-2.394-3.043-2.982L65 69v-5l-3.243 3.24c-1.125 1.125-2.65 1.757-4.242 1.757H52.484c-1.59 0-3.116-.632-4.242-1.757L45 64v5l-14.957 4.018c-1.345.588-2.428 1.65-3.043 2.982l-4 11h64l-4-11z" fill="#0C7367"/><path d="M65.143 69.04L65 69v-5l-3.243 3.24c-1.125 1.125-2.65 1.757-4.242 1.757H52.484c-1.59 0-3.116-.632-4.242-1.757L45 64v5l-.143.04c1.786 1.177 4.72 2.017 8.143 2.258V80h4v-8.703c3.424-.24 6.357-1.08 8.143-2.258z" fill="#099686"/><path d="M68.83 41.482C67.78 39.744 61.44 39.044 55 39c-6.44.044-12.78.744-13.83 2.482-.13 1.4-.167 2.91-.17 4.518v12.343c0 1.06.422 2.08 1.172 2.83l6.07 6.068C49.37 68.367 50.895 69 52.486 69H57.516c1.59 0 3.116-.632 4.242-1.757l6.07-6.068c.75-.75 1.173-1.768 1.173-2.83V46c-.003-1.608-.04-3.118-.17-4.518z" fill="#FBC8C8"/><path d="M41.17 41.482c-.13 1.4-.167 2.91-.17 4.518v12.343c0 1.06.422 2.08 1.172 2.83l6.07 6.067c1.126 1.125 2.652 1.757 4.243 1.757H55V39c-6.44.044-12.78.744-13.83 2.482z" fill="#FBD7D7"/><path d="M51 58h8s0 3-4 3-4-3-4-3z" fill="#F79392"/><path d="M76 87l-1.633-16.04c-2.884-.81-5.686-1.454-7.082-1.762L62.367 80H47.734l-4.918-10.802c-1.396.308-4.197.95-7.082 1.763L33.367 87H76z" fill="#3E3E3F"/><path fill="#5B5C5F" d="M68.082 87l-1.715-3H43.734l-1.714 3zM34.1 69.18l.075.978c.062.818.455 1.574 1.09 2.094s1.452.758 2.266.658l3.704-.453c.88-.107 1.666-.598 2.15-1.34s.614-1.66.357-2.507l-.26-.867-9.38 1.437zM76 69.18l-.074.978c-.062.818-.455 1.574-1.09 2.094s-1.452.758-2.266.658l-3.703-.453c-.88-.107-1.666-.598-2.15-1.34-.483-.742-.614-1.66-.357-2.507l.262-.867L76 69.18z"/><path fill="#FACB1B" d="M69 75h10v10H69z"/><path fill="#3E3E3F" d="M70 81l4-4 4 4v2l-4-4-4 4zM68.88 51.12c-.564.564-.88 1.327-.88 2.123V58l-4.444 4H46.444L42 58v-4.757c0-.796-.316-1.56-.88-2.12L39 49v8.68c0 .84.353 1.643.973 2.212l10.167 9.32c.553.507 1.277.788 2.027.788h5.666c.75 0 1.474-.28 2.027-.79l10.167-9.32c.62-.567.973-1.37.973-2.21V49l-2.12 2.12zM58 67h-6l-2.222-2h10.444L58 67z"/><path d="M75 50c-1-7-1-10-3-11 0-11-9-16-17-16s-17 5-17 16c-2 1-2 4-3 11-.447 3.13 6 3 6 3V42c0-2.122 6.95-2.952 14-3 7.05.048 14 .878 14 3v11s6.447.13 6-3z" fill="#0C7367"/><path d="M55 23c-8 0-17 5-17 16-2 1-2 4-3 11-.447 3.13 6 3 6 3V42c0-2.122 6.95-2.952 14-3V23z" fill="#099686"/><path d="M55 35c-8.4 0-14 3-14 8 1.867-2 9.333-4 14-4s12.133 2 14 4c0-5-5.6-8-14-8z" fill="#12B2A0"/><path d="M70.54 42.93c-.23-.28-1.165-1.266-3.46-2.185C64.184 39.587 60.335 39 55.64 39c-.218 0-.438 0-.664.004C54.8 39 54.576 39 54.36 39c-11.09 0-14.358 3.273-14.9 3.93l-.477.575.017.747c.203 8.503 2.07 9.41 2.772 9.75 1.86.905 6.99 1.002 9.11 1.002 1.97 0 2.853-1.75 3.38-2.798.193-.38.55-1.09.755-1.215.167.125.524.834.717 1.216.528 1.046 1.41 2.798 3.382 2.798 2.12 0 7.25-.098 9.11-1 .702-.342 2.568-1.25 2.77-9.752l.02-.748-.475-.575z" fill="#3E3E3F"/><path d="M55 41.007c-11.243-.13-13.897 3.193-14 3.2 0 2.4.174 7.285 1.647 8 .105.052.232.1.375.145 9.223-5.683 15.052-9.372 17.705-11.065-1.603-.194-3.493-.305-5.727-.28z" fill="#5B5C5F"/></g></svg>
<svg version="1" width="130" height="130" viewBox="-10 -10 130 130" id="spongebob" y="1560"><g><path d="M34.48 23c-1.14 0-2.225.486-2.984 1.336-.76.85-1.12 1.983-.99 3.116l4.09 36c.23 2.02 1.94 3.548 3.974 3.548h32.858c2.034 0 3.745-1.527 3.974-3.548l4.09-36c.13-1.132-.23-2.266-.99-3.116S76.66 23 75.52 23H34.48z" fill="#FACB1B"/><path d="M55 23H34.48c-1.14 0-2.225.486-2.984 1.336-.76.85-1.12 1.983-.99 3.116l4.09 36c.23 2.02 1.94 3.548 3.975 3.548H55V23zM85.72 62.734c-.7-1.502-2.485-2.153-3.987-1.453L69.45 67H71v5.898l13.266-6.177c1.502-.7 2.152-2.484 1.453-3.986zM24.28 62.734c.7-1.502 2.485-2.153 3.987-1.453L40.547 67H39v5.898L25.734 66.72c-1.502-.7-2.152-2.484-1.453-3.986z" fill="#FBE158"/><circle cx="49" cy="41" r="6" fill="#fff"/><circle cx="50" cy="41" r="2" fill="#059BBF"/><circle cx="61" cy="41" r="6" fill="#fff"/><circle cx="60" cy="41" r="2" fill="#059BBF"/><circle cx="64" cy="28" r="4" fill="#F3B607"/><circle cx="39" cy="31" r="4" fill="#FACB1B"/><circle cx="51" cy="29" r="2" fill="#FACB1B"/><circle cx="72" cy="33" r="2" fill="#F3B607"/><circle cx="72" cy="44" r="2" fill="#F3B607"/><circle cx="38" cy="46" r="2" fill="#FACB1B"/><circle cx="70" cy="60" r="2" fill="#F3B607"/><circle cx="41" cy="61" r="3" fill="#FACB1B"/><path d="M69 50c-2.78-2.78-2.797 2-14 2s-11.22-4.78-14-2 5 10 14 10 16.78-7.22 14-10z" fill="#FA5655"/><path d="M50 51.612V55h4v-3.013c-1.554-.042-2.87-.18-4-.375zM60 51.612c-1.13.194-2.446.333-4 .374V55h4v-3.388zM39 67h32v12H39z" fill="#fff"/><path fill="#AF7653" d="M39 75h32v4H39z"/><path fill="#FA5655" d="M53 67v4l2 4 2-4v-4z"/><path d="M63 79v6c0 1.105.895 2 2 2h10c8.18 0 3-12-8-4v-4h-4zM47 79v6c0 1.105-.895 2-2 2H35c-8.18 0-3-12 8-4v-4h4z" fill="#3E3E3F"/><path fill="#fff" d="M43 79h4v3h-4zM63 79h4v3h-4z"/></g></svg>
<svg version="1" width="130" height="130" viewBox="-10 -10 130 130" id="street-view" y="1690"><g><path d="M55 63c17.68 0 30 5.797 30 11S72.68 85 55 85s-30-5.797-30-11 12.32-11 30-11m0-2c-17.673 0-32 5.82-32 13s14.327 13 32 13 32-5.82 32-13-14.327-13-32-13zM55 69c12.39 0 18 3.452 18 4.5S67.39 78 55 78s-18-3.452-18-4.5S42.61 69 55 69m0-2c-11.046 0-20 2.91-20 6.5S43.954 80 55 80s20-2.91 20-6.5S66.046 67 55 67z" fill="#fff"/><path d="M61.463 35.708c.966-1.322 1.542-2.946 1.542-4.708 0-4.418-3.582-8-8-8s-8 3.582-8 8c0 1.762.577 3.386 1.542 4.708-1.543.306-8.33 2.157-7.464 6.48l1.278 13.596C42.738 57.654 44.38 59 46.286 59h.97l.77 12.398C48.23 73.443 49.95 75 52.006 75h6c2.056 0 3.777-1.557 3.98-3.602L62.758 59h.97c1.907 0 3.548-1.346 3.922-3.215l1.278-13.597c.755-3.78-4.578-5.907-7.465-6.48z" fill="#DF2C2C"/><path d="M55 23c-4.416.003-7.994 3.583-7.994 8 0 1.762.577 3.386 1.542 4.708-1.543.306-8.33 2.157-7.464 6.48l1.278 13.596c.375 1.87 2.016 3.216 3.923 3.216h.97l.77 12.398C48.23 73.443 49.95 75 52.006 75H55V23z" fill="#FA5655"/></g></svg>
<svg version="1" width="130" height="130" viewBox="-10 -10 130 130" id="student" y="1820"><g><path fill="#E2E4E5" d="M67 67.997l-2-1H45l-2 1L55 87z"/><path d="M70 45c-1 0-1 1.11-1 1.11V45c-.002-1.065-.02-2.086-.067-3.062C64.89 38 55 38 55 38s-9.89 0-13.933 3.938c-.048.976-.065 1.997-.067 3.062v7.997l4 10 5.105 3.996c.57.64 1.384 1.004 2.24 1.004h5.31c.856 0 1.67-.365 2.24-1.004L65 62.997l3.207-8.017C71.042 54.776 72 50.476 72 47.222 72 46.112 71 45 70 45z" fill="#F8E1C2"/><path d="M41 45v1.11S41 45 40 45s-2 1.11-2 2.222c0 3.253.958 7.554 3.793 7.758L45 62.997l5.105 3.996c.57.64 1.384 1.004 2.24 1.004H55V38s-9.89 0-13.933 3.938c-.048.976-.065 1.997-.067 3.062z" fill="#FCF1E2"/><path d="M50 56.997h10s0 3-5 3-5-3-5-3z" fill="#F79392"/><path d="M61 47.322c1.19 0 2.248.266 2.98.678.072-.57-.17-1.154-.747-1.59-1.03-.78-2.702-.78-3.733 0-.464.352-.71.8-.753 1.26.642-.22 1.417-.348 2.253-.348zM48.993 47.322c-1.19 0-2.248.266-2.98.678-.072-.57.17-1.154.747-1.59 1.03-.78 2.702-.78 3.733 0 .464.352.71.8.753 1.26-.642-.22-1.417-.348-2.253-.348z" fill="#3E3E3F"/><path d="M57.655 67.997h-5.31c-.856 0-1.67-.365-2.24-1.004L45 62.997v4.5s0 7.5 10 7.5 10-7.5 10-7.5v-4.5l-5.105 3.996c-.57.64-1.384 1.004-2.24 1.004z" fill="#F4D0A1"/><g fill="#3E3E3F"><path d="M55 38s-.758 0-1.938.083v5.625c3.72 0 5.972-2.684 7.274-5.234C57.41 38 55 38 55 38zM45.92 39.332c-1.898.59-3.692 1.44-4.92 2.668 0 3.542 2.323 5.25 2.323 5.25-.294-2.956-.31-4.882 2.596-7.918zM46.865 39.062v4.647c2.865 0 5.15-4.055 5.918-5.605-1.565.12-3.756.385-5.918.957zM66.344 40.205v7.045c2.488 0 2.646-4.66 2.655-5.25-.722-.722-1.64-1.31-2.656-1.795zM61.917 38.77v4.94c3.354 0 4.325-3.172 4.418-3.51-1.367-.65-2.914-1.107-4.418-1.43z"/></g><path d="M50.105 66.993L45 62.997v4.5s0 7.5 10 7.5v-7h-2.655c-.856 0-1.67-.365-2.24-1.004z" fill="#F8E1C2"/><path d="M34.49 53.445v-19.62c-.696-.25-1.367-.493-2-.728v20.348c-2.61 1.72-1 6.85-1 9.555h4.001c0-2.705 1.612-7.835-1-9.555z" fill="#FA5655"/><path d="M82 31c0-1-25-8-27-8s-27 7-27 8c0 .625 7.432 3.207 13 5.053V42c4-4 14-4 14-4s10 0 14 4v-5.947c5.568-1.846 13-4.428 13-5.053z" fill="#3E3E3F"/><path fill="#fff" d="M66.965 68.06L67 68l-2-1-9.985 4.98 5.793 5.827z"/><path fill="#DF2C2C" d="M59 87l-2.8-10.2 1.8-1.798-3.02-3.024-2.997 2.998 1.818 1.817L51 87z"/><path fill="#FA5655" d="M55 87V71.997l-.02-.02-2.997 3 1.818 1.816L51 87z"/><path fill="#fff" d="M43.035 68.06L43 68l2-1 9.985 4.98-5.793 5.827z"/><path d="M23 87l4-11c.615-1.333 1.698-2.394 3.043-2.983L43 68l12 19H23zM87 87l-4-11c-.615-1.333-1.698-2.394-3.043-2.983L67 68 55 87h32z" fill="#3E3E3F"/><path fill="#9E9FA0" d="M55 87L43 68l-9 3 17 16zM55 87l12-19 9 3-17 16z"/></g></svg>
<svg version="1" width="130" height="130" viewBox="-10 -10 130 130" id="surfer" y="1950"><g><path d="M83 76c-.615-1.333-1.698-2.395-3.043-2.983L65 69v-6.006l-5.105 3.996c-.57.64-1.384 1.004-2.24 1.004h-5.31c-.856 0-1.67-.365-2.24-1.004L45 62.994V69l-14.957 4.017c-1.345.588-2.428 1.65-3.043 2.983l-4 11h64l-4-11z" fill="#0484AB"/><path d="M25.614 79.812L23 87h64l-2.143-5.894c-5.9-3.613-17.504-6.07-30.857-6.07-11.688 0-22.03 1.884-28.386 4.776z" fill="#21B2D1"/><path d="M66 69.275c0-.264-.214-.48-.48-.48-.263 0-.477.215-.477.48 0 2.625-4.94 5.703-8.298 7.41-.504-.95-1.124-1.67-1.745-1.67s-1.24.72-1.745 1.67c-3.357-1.706-8.3-4.784-8.3-7.41 0-.264-.213-.48-.477-.48s-.48.215-.48.48c0 3.338 5.732 6.696 8.854 8.277-.44 1.07-.72 2.237-.72 2.973 0 1.66 0 5.01 2.868 5.01s2.87-3.35 2.87-5.01c0-.736-.283-1.903-.722-2.974C60.27 75.97 66 72.614 66 69.276z" fill="#fff"/><circle cx="55" cy="81.71" r="1.913" fill="#F37A10"/><path d="M70 44.997c-1 0-1 1.11-1 1.11v-3.113c-.003-1.647-.04-3.193-.178-4.622-8.553 2.738-21.336 2.574-27.076-3.224-.623 2.214-.74 4.864-.746 7.845v10l4 10 5.105 3.996c.57.638 1.384 1.003 2.24 1.003h5.31c.856 0 1.67-.365 2.24-1.004L65 62.993l3.207-8.017C71.042 54.773 72 50.473 72 47.22c0-1.112-1-2.223-2-2.223z" fill="#FBC8C8"/><path d="M41.746 35.15c-.623 2.213-.74 4.863-.746 7.844v3.114s0-1.11-1-1.11-2 1.11-2 2.22c0 3.254.958 7.555 3.793 7.76L45 62.993l5.105 3.996c.57.64 1.384 1.004 2.24 1.004H55v-27.98c-5.273-.33-10.237-1.818-13.254-4.865z" fill="#FBD7D7"/><path d="M52 46.994c0-1.104-.896-2-2-2h-.006c0 .022.006.042.006.063 0 1.103-.892 1.996-1.994 2 .033 1.075.91 1.938 1.994 1.938 1.104 0 2-.896 2-2zM61.994 46.994c0-1.104-.896-2-2-2h-.006c0 .02.006.04.006.062 0 1.103-.892 1.996-1.994 2 .033 1.075.91 1.938 1.994 1.938 1.104 0 2-.895 2-2z" fill="#3E3E3F"/><path d="M50 56.994h10s0 3-5 3-5-3-5-3z" fill="#F79392"/><path d="M75 35.26c-1.91-13.887-32.92-15.06-33.95-2.77-1.218.685-2.05 1.974-2.05 3.47v9.037c2 1 2 1.98 2 3.792v1.17h2V36.24c5.734 4.364 16.153 4.663 24 2.652v11.07h2v-1.173c0-1.812 0-2.793 2-3.793v-7.424c1.588-.667 2.956-1.445 4-2.312z" fill="#F3B607"/><path d="M55 24.022c-7.114.21-13.493 3.006-13.95 8.467-1.218.685-2.05 1.974-2.05 3.47v9.037c2 1 2 1.98 2 3.792v1.17h2V36.24c3.042 2.315 7.405 3.477 12 3.766V24.022z" fill="#FACB1B"/></g></svg>
<svg version="1" width="130" height="130" viewBox="-10 -10 130 130" id="surgeon" y="2080"><g><path d="M83 76c-.615-1.333-1.698-2.395-3.043-2.983L68 69H42l-11.957 4.017c-1.345.588-2.428 1.65-3.043 2.983l-4 11h64l-4-11z" fill="#12B2A0"/><path d="M55 79.036c3.857 0 13-1 13-7v-3.072h-3v3.072s-2 4-10 4-10-4-10-4v-3.072h-3v3.072c0 6 9.143 7 13 7zM32 80.036h11v3H32z" fill="#C2FCF5"/><path d="M57.655 68h-5.31c-.856 0-1.67-.365-2.24-1.005L45 63v9s2 4 10 4 10-4 10-4v-9l-5.105 3.995c-.57.64-1.384 1.005-2.24 1.005z" fill="#F7B4B4"/><path d="M50.105 66.995L45 63v9.036s2 4 10 4V68h-2.655c-.856 0-1.67-.365-2.24-1.005zM70 45.036c-1 0-1 1.11-1 1.11V45c-.006-2.843-.11-5.582-.66-8H41.66c-.548 2.418-.654 5.157-.66 8v1.147s0-1.11-1-1.11-2 1.11-2 2.22c0 3.26.96 7.57 3.807 7.76L45 63l5.105 3.995c.57.64 1.384 1.005 2.24 1.005h5.31c.856 0 1.67-.365 2.24-1.005L65 63l3.193-7.982c2.846-.19 3.807-4.5 3.807-7.76 0-1.11-1-2.222-2-2.222z" fill="#FBC8C8"/><path d="M41.66 37c-.548 2.418-.654 5.157-.66 8v1.147s0-1.11-1-1.11-2 1.11-2 2.22c0 3.26.96 7.57 3.807 7.76L45 63l5.105 3.995c.57.64 1.384 1.005 2.24 1.005H55V37H41.66z" fill="#FBD7D7"/><path d="M52 47.036c0-1.104-.896-2-2-2h-.006c0 .022.006.042.006.063 0 1.102-.892 1.995-1.994 2 .033 1.074.91 1.937 1.994 1.937 1.104 0 2-.896 2-2zM61.994 47.036c0-1.104-.896-2-2-2h-.006c0 .02.006.04.006.062 0 1.103-.892 1.996-1.994 2 .033 1.075.91 1.938 1.994 1.938 1.104 0 2-.895 2-2z" fill="#3E3E3F"/><path d="M55 51.036c-7 0-5 6-13 6 0 5 7 12 13 12s13-7 13-12c-8 0-6-6-13-6z" fill="#12B2A0"/><path d="M67 50h2v-1.172c0-1.81 0-2.792 2-3.792V37h-4v13zM39 37v8.036c2 1 2 1.98 2 3.792V50h2V37h-4z" fill="#84462D"/><path d="M71 37H39v-6.25c0-4.28 3.47-7.75 7.75-7.75h16.5c4.28 0 7.75 3.47 7.75 7.75V37z" fill="#12B2A0"/><path d="M55 23h-8.25C42.47 23 39 26.47 39 30.75V37h16V23zM42 57.036c0 5 7 12 13 12v-18c-7 0-5 6-13 6z" fill="#47C4B7"/><path fill="#C2FCF5" d="M39 37h32v2H39z"/></g></svg>
<svg version="1" width="130" height="130" viewBox="-10 -10 130 130" id="tablet-chart" y="2210"><g><path d="M79 27c0-2.21-1.79-4-4-4H35c-2.21 0-4 1.79-4 4v56c0 2.21 1.79 4 4 4h40c2.21 0 4-1.79 4-4V27z" fill="#fff"/><path fill="#3E3E3F" d="M35 29h40v48H35z"/><circle cx="55" cy="82" r="2" fill="#CFD3D4"/><g fill="#B6BCBD"><circle cx="59.667" cy="58.333" r="1.333"/><path d="M64 58h5v1h-5z"/></g><g fill="#B6BCBD"><circle cx="59.667" cy="64.667" r="1.333"/><path d="M64 64.333h5v1h-5z"/></g><circle cx="55" cy="26" r="1" fill="#3E3E3F"/><path fill="#5B5C5F" d="M35.01 67L73 29.01H35.01z"/><path fill="#FBE158" d="M42 44h6v7h-6z"/><path fill="#17B198" d="M52 40h6v11h-6z"/><path fill="#059BBF" d="M63 35h6v16h-6z"/><circle cx="47" cy="63" r="8" fill="#FACB1B"/><path d="M55 63c0 4.42-3.58 8-8 8-3.36 0-6.233-2.067-7.42-5l14.78-6.153c.413.966.64 2.033.64 3.153z" fill="#4AC3AF"/><path d="M55.013 63.003c0 2.82-1.46 5.3-3.667 6.727l-4.327-6.82 7.352-3.06c.414.967.64 2.033.64 3.153z" fill="#21B2D1"/><path d="M54.36 59.847L47 62.913V55c3.3 0 6.133 2 7.36 4.847z" fill="#FA5655"/></g></svg>
<svg version="1" width="130" height="130" viewBox="-10 -10 130 130" id="telemarketer-woman" y="2340"><g><path d="M72 58V42c0-9.39-7.61-17-17-17s-17 7.61-17 17v16c0 10-9 8-9 8s1 8 14 8h24c13 0 14-8 14-8s-9 2-9-8z" fill="#84462D"/><path d="M38 42v16c0 10-9 8-9 8s1 8 14 8h12V25c-9.39 0-17 7.61-17 17z" fill="#9C6144"/><path d="M83.41 77.663c-.89-2.31-2.798-4.08-5.17-4.79L62 69l-7 1-7-1-16.24 3.872c-2.372.71-4.28 2.48-5.17 4.79L23 87h64l-3.59-9.337z" fill="#3E3E3F"/><path d="M55 69v18h2l8-17v-8.567C62.16 65.83 58.284 67.905 55 69z" fill="#F7B4B4"/><path d="M45 61.433V70l8 17h2V69c-3.284-1.095-7.16-3.17-10-7.567zM70 45h-1v-.02c-.004-1.902-.053-3.755-.25-5.5C68.118 41.515 66.243 43 64 43c-1.99 0-3.696-1.172-4.5-2.856C58.696 41.828 56.99 43 55 43s-3.696-1.172-4.5-2.856C49.696 41.828 47.99 43 46 43c-2.242 0-4.117-1.486-4.75-3.52-.196 1.745-.246 3.598-.25 5.5V45h-1c-1 0-2 1.11-2 2.222 0 3.09.864 7.13 4.178 7.703C44.62 64.027 50.396 67.465 55 69c4.604-1.535 10.38-4.973 12.822-14.075C71.136 54.353 72 50.313 72 47.222 72 46.112 71 45 70 45z" fill="#FBC8C8"/><path d="M50.5 40.144C49.696 41.828 47.99 43 46 43c-2.242 0-4.117-1.486-4.75-3.52-.196 1.745-.246 3.598-.25 5.5V45h-1c-1 0-2 1.11-2 2.222 0 3.09.864 7.13 4.178 7.703C44.62 64.027 50.396 67.465 55 69V43c-1.99 0-3.696-1.172-4.5-2.856z" fill="#FBD7D7"/><path d="M50 58h10s0 3-5 3-5-3-5-3z" fill="#F79392"/><path d="M45 67c0 1 4.465 15.848 10 20h-3S42 74 37 74c1-5 8-7 8-7zM65 67c0 1-4.465 15.848-10 20h3s10-13 15-13c-1-5-8-7-8-7z" fill="#fff"/><path d="M52.006 46.956c0-1.104-.896-2-2-2H50c0 .02.006.04.006.062 0 1.103-.892 1.996-1.994 2 .033 1.075.91 1.938 1.994 1.938 1.105 0 2-.896 2-2zM62 46.956c0-1.104-.896-2-2-2h-.006c0 .02.006.04.006.062 0 1.103-.892 1.996-1.994 2 .033 1.075.91 1.938 1.994 1.938 1.104 0 2-.896 2-2z" fill="#3E3E3F"/><path d="M80 86c0 .55-.45 1-1 1H68c-.55 0-1-.45-1-1v-7c0-.55.45-1 1-1h11c.55 0 1 .45 1 1v7z" fill="#fff"/><path fill="#9CE5F4" d="M68 81h4v5h-4zM75 79h-3v-1.5c0-.825.675-1.5 1.5-1.5s1.5.675 1.5 1.5V79zM80 80H67v-1c0-.55.45-1 1-1h11c.55 0 1 .45 1 1v1z"/><path d="M58.818 59.97H51.18c-.768 0-1.44.4-1.83 1H48c-2.075 0-6-1.254-6-6V45h-2.333C37.09 45 35 47.09 35 49.667s2.09 4.667 4.667 4.667H40v.636c0 5.87 4.784 8 8 8h1.162c.324.8 1.105 1.364 2.02 1.364h7.637c1.204 0 2.18-.977 2.18-2.182s-.977-2.182-2.182-2.182z" fill="#3E3E3F"/></g></svg>
<svg version="1" width="130" height="130" viewBox="-10 -10 130 130" id="television-shelf" y="2470"><g><path fill="#fff" d="M87 55H23v32h4l4-8h48l4 8h4z"/><path fill="#6FDAF1" d="M57 60h26v10H57zM27 60h26v10H27z"/><path d="M74 23H36c-.552 0-1 .448-1 1v24c0 .552.448 1 1 1h17v3H41c-1.104 0-2 .896-2 2v1h32v-1c0-1.104-.896-2-2-2H57v-3h17c.552 0 1-.448 1-1V24c0-.552-.448-1-1-1z" fill="#3E3E3F"/><path fill="#21B2D1" d="M37 25h36v20H37z"/><path fill="#40C9E7" d="M37 25v20h5.584l20-20z"/><path fill="#9CE5F4" d="M27 70h5l10-10H27z"/></g></svg>
<svg version="1" width="130" height="130" viewBox="-10 -10 130 130" id="tower" y="2600"><g><path fill="#fff" d="M63 43h20v37H63zM27 43h20v37H27z"/><path fill="#F0F1F1" d="M23 80h28v7H23zM29 39h16v4H29z"/><path fill="#E2E4E5" d="M31 33h12v6H31z"/><path fill="#F0F1F1" d="M31 33l6-10 6 10zM59 80h28v7H59zM65 39h16v4H65z"/><path fill="#E2E4E5" d="M67 33h12v6H67z"/><path fill="#F0F1F1" d="M67 33l6-10 6 10zM47 54v8h16v-8H47zm12 6h-8v-4h8v4z"/><path fill="#40C9E7" d="M30 48h14v2H30zM30 53h14v2H30zM30 58h14v2H30zM30 63h14v2H30zM30 68h14v2H30zM30 73h14v2H30zM66 48h14v2H66zM66 53h14v2H66zM66 58h14v2H66zM66 63h14v2H66zM66 68h14v2H66zM66 73h14v2H66z"/><path fill="#fff" d="M37 23l-6 10h6zM73 23l-6 10h6z"/></g></svg>
<svg version="1" width="130" height="130" viewBox="-10 -10 130 130" id="tshirt" y="2730"><g><path d="M66.99 27.03L63 23H47l-3.99 4.03-19.313 6.155c-.415.132-.697.517-.697.953v18.2c0 .292.127.57.347.76.22.19.513.273.8.23L33 52v33c0 1.105.895 2 2 2h40c1.105 0 2-.895 2-2V52l8.852 1.328c.288.043.58-.04.8-.23.22-.19.348-.468.348-.76v-18.2c0-.435-.282-.82-.696-.953L66.99 27.03z" fill="#0484AB"/><path d="M55 23h-8l-3.99 4.03-19.313 6.155c-.415.132-.697.517-.697.953v18.2c0 .292.127.57.347.76.22.19.513.273.8.23L33 52v33c0 1.104.896 2 2 2h20V23z" fill="#059BBF"/><path d="M83 32.132l3.304 1.053c.415.132.696.517.696.953v18.2c0 .292-.127.57-.347.76-.22.19-.513.273-.8.23L83 52.9V32.132zM49 52l-6 2-6-2V41h12z" fill="#40C9E7"/><path fill="#21B2D1" d="M37 41h12v4H37z"/><path fill="#40C9E7" d="M72 52l-6 2-6-2V41h12z"/><path fill="#21B2D1" d="M60 41h12v4H60z"/><path d="M27 32.132l-3.304 1.053c-.414.132-.696.517-.696.953v18.2c0 .292.127.57.347.76.22.19.513.273.8.23L27 52.9V32.132z" fill="#40C9E7"/><path d="M55 23h-8c0 4.115 2 8 8 8s8-3.885 8-8h-8z" fill="#0484AB"/><path d="M67 27l-4-4c0 4.115-2 8-8 8s-8-3.885-8-8l-4 4 .01.03L43 36l12-4 12 4-.01-8.97L67 27z" fill="#6FDAF1"/></g></svg>
<svg version="1" width="130" height="130" viewBox="-10 -10 130 130" id="vector" y="2860"><g><path d="M77.004 23l-6.364 6.364c-.705.705-.768 1.802-.2 2.584l-15.612 7.57-2.79 17.01 1.337 1.338 17.01-2.79 7.57-15.613c.782.568 1.88.505 2.584-.2l6.363-6.364-9.9-9.9z" fill="#3E3E3F"/><path d="M70.44 31.948l-15.612 7.57-2.79 17.01 1.337 1.338 17.01-2.79 7.57-15.613c-.084-.06-7.454-7.43-7.515-7.515z" fill="#FACB1B"/><path d="M44 76.917v-14h-2v14c-2.28.464-4 2.484-4 4.9 0 2.756 2.243 5 5 5s5-2.244 5-5c0-2.416-1.72-4.436-4-4.9zM42 32.917v23h2v-23c2.28-.464 4-2.484 4-4.9 0-2.756-2.243-5-5-5s-5 2.244-5 5c0 2.415 1.72 4.435 4 4.9z" fill="#3E3E3F"/><path d="M79 79v2.918c-14.826-.548-25.5-4.185-30.98-10.62-2.513-2.95-3.517-5.995-3.896-8.3H47v-8h-3.137C42.826 39.087 35.653 33.714 31 31.913V28h-8v8h8v-1.948C35.076 35.896 40.92 40.99 41.862 55H39v8h3.084c.376 2.613 1.468 6.12 4.375 9.55C52.4 79.564 63.343 83.378 79 83.925V87h8v-8h-8z" fill="#fff"/><path d="M70.44 31.948l-15.612 7.57-2.79 17.01.714.716L74.235 35.76c-1.876-1.875-3.764-3.77-3.795-3.812z" fill="#FBE158"/><path d="M74.235 35.76L82 27.996 77.004 23l-6.364 6.364c-.705.705-.768 1.802-.2 2.584.03.042 1.92 1.937 3.795 3.812z" fill="#5B5C5F"/></g></svg>
<svg version="1" width="130" height="130" viewBox="-10 -10 130 130" id="video-camera" y="2990"><g><path fill="#F0F1F1" d="M87 43h-4l-8 4v16l8 4h4z"/><path d="M79 31c0 2.21-1.79 4-4 4H63v-8h12c2.21 0 4 1.79 4 4z" fill="#3E3E3F"/><path fill="#F0F1F1" d="M36 71h22v4H36z"/><path fill="#3E3E3F" d="M61 87l-6-12H39l-6 12h6l5-10v10h6V77l5 10zM31.422 35.21c-.277-.138-.584-.21-.894-.21H25c-1.104 0-2 .896-2 2v32c0 1.104.896 2 2 2h40c1.104 0 2-.896 2-2v-6h8V47h-8v-6c0-1.104-.896-2-2-2H42.07l4-6H63v-4H43.93l-6.232 9.35"/><circle cx="59" cy="46" r="2" fill="#F79392"/><path d="M75 27H63v4h16c0-2.21-1.79-4-4-4z" fill="#5B5C5F"/><path fill="#fff" d="M75 47v8h12V43h-4z"/><path fill="#818284" d="M43 62h18v3H43z"/></g></svg>
<svg version="1" width="130" height="130" viewBox="-10 -10 130 130" id="waitress" y="3120"><g><path d="M83.242 77.663c-.89-2.31-2.797-4.08-5.168-4.79l-13.24-4.876-9.918 4.96L45 67.998l-13.24 4.875c-2.372.71-4.28 2.48-5.17 4.79L23 87h63.833l-3.59-9.337z" fill="#fff"/><path fill="#DF2C2C" d="M59 87.022l-3-8 2-2.998L54.98 73l-2.997 2.998L54 79.022l-3 8z"/><path fill="#FA5655" d="M55 87.022V73.02l-.02-.02-2.997 2.998L54 79.022l-3 8z"/><path fill="#3E3E3F" d="M66.952 68.777L54.917 86.875 42.882 68.777 33 72.417V87h43.833V72.416z"/><path d="M55 69v4l10-5v-6.567C62.16 65.83 58.284 67.905 55 69z" fill="#F7B4B4"/><path d="M45 61.433V68l10 5v-4c-3.284-1.095-7.16-3.17-10-7.567zM70 45h-1l-2.155-.43C62.283 43.656 59 39.65 59 35c-1.214 3.236-2.59 5.15-4 6.297C52.927 42.987 50.786 43 49 43v-4c-4.76 6.35-6.633 6.125-9.16 6.02-.944.11-1.84 1.15-1.84 2.202 0 3.09.864 7.13 4.178 7.703C44.62 64.027 50.396 67.465 55 69c4.604-1.535 10.38-4.973 12.822-14.075C71.136 54.353 72 50.313 72 47.222 72 46.112 71 45 70 45z" fill="#FBC8C8"/><path d="M49 43v-4c-4.76 6.35-6.633 6.125-9.16 6.02-.944.11-1.84 1.15-1.84 2.202 0 3.09.864 7.13 4.178 7.703C44.62 64.027 50.396 67.465 55 69V41.297C52.927 42.987 50.786 43 49 43z" fill="#FBD7D7"/><path d="M50 58h10s0 3-5 3-5-3-5-3z" fill="#F79392"/><path d="M52.006 47c0-1.104-.896-2-2-2H50c0 .02.006.04.006.062 0 1.103-.892 1.996-1.994 2 .034 1.075.91 1.938 1.994 1.938 1.105 0 2-.896 2-2zM62 47c0-1.104-.896-2-2-2h-.006c0 .02.006.042.006.063 0 1.103-.892 1.996-1.994 2C58.04 48.137 58.916 49 60 49c1.104 0 2-.896 2-2z" fill="#3E3E3F"/><path d="M79 34.75c-3.067-6.134-7.896-6.963-12.236-4.318C63.844 27.678 59.662 26 55 26c-8.462 0-15.373 5.508-15.944 13H39v6c3 0 4.726 1.032 10-6v4c3 0 7 0 10-8 0 4.652 3.283 8.657 7.845 9.57L69 45h1c1 0 2 1.11 2 2.222 0 2.686-.655 6.084-3 7.306V58c0 9 13 9 13 5-12 1 1-20.25-3-28.25z" fill="#84462D"/><path d="M39.056 39H39v6c3 0 4.726 1.032 10-6v4c1.786 0 3.927-.014 6-1.703V26c-8.462 0-15.373 5.508-15.944 13z" fill="#9C6144"/></g></svg>
<svg version="1" width="130" height="130" viewBox="-10 -10 130 130" id="wind-wheel" y="3250"><g><path d="M57.645 49.98C56.94 50.606 56.02 51 55 51s-1.94-.393-2.645-1.02L47 83h16l-5.355-33.02z" fill="#E2E4E5"/><path d="M55 51c-1.02 0-1.94-.393-2.645-1.02L47 83h8V51zM58.998 47c2.086-8.035-.053-20.028-3.582-23.274-.36-.33-.82-.525-1.288-.38s-.802.553-.85 1.04L51.08 47h7.92zM53.07 50.502c6.032 5.704 17.57 9.617 22.115 8.09.463-.154.856-.465.955-.943.1-.48-.1-.97-.502-1.247l-18.745-12.84-3.822 6.94zM52.863 43.62c-7.906 2.532-16.9 10.75-17.757 15.467-.087.48-.005.975.366 1.292.37.317.897.38 1.333.16l20.29-10.224-4.232-6.695zM71 87H39c0-2.21 1.79-4 4-4h24c2.21 0 4 1.79 4 4z" fill="#fff"/><path d="M45.2 36.838C45.2 39.14 43.34 41 41.037 41H27.163C24.86 41 23 39.14 23 36.838c0-2.843 2.775-4.15 4.3-4.15.64-3.176 3.442-5.563 6.8-5.563 3.358 0 6.16 2.386 6.8 5.564 1.525 0 4.3 1.306 4.3 4.148zM87 42.838C87 45.14 85.14 47 82.837 47H68.962c-2.303 0-4.162-1.86-4.162-4.162 0-2.843 2.775-4.15 4.3-4.15.64-3.176 3.442-5.563 6.8-5.563 3.358 0 6.16 2.386 6.8 5.564 1.525 0 4.3 1.306 4.3 4.148z" fill="#F0F1F1"/><path d="M34.1 27.125c-3.358 0-6.16 2.386-6.8 5.564-1.525 0-4.3 1.304-4.3 4.147 0 2.26 1.793 4.082 4.037 4.15l11.88-11.88c-1.248-1.217-2.937-1.982-4.817-1.982zM75.9 33.138c-3.358 0-6.16 2.386-6.8 5.564-1.525 0-4.3 1.305-4.3 4.148 0 2.26 1.793 4.082 4.037 4.15l11.88-11.88c-1.248-1.217-2.937-1.982-4.817-1.982z" fill="#fff"/><circle cx="55" cy="47" r="4" fill="#5B5C5F"/><path d="M55 43c-2.21 0-4 1.79-4 4 0 1.11.454 2.115 1.185 2.84l5.654-5.655C57.114 43.455 56.11 43 55 43z" fill="#9E9FA0"/></g></svg>
<svg version="1" width="130" height="130" viewBox="-10 -10 130 130" id="woman-1" y="3380"><g><path d="M87 87l-3.59-9.337c-.89-2.31-2.798-4.08-5.17-4.79L65 69.714v-8.283c-2.84 4.396-6.716 6.473-10 7.567-3.28-1.095-7.158-3.158-10-7.545V72s2 4 10 4v11h32z" fill="#F7B4B4"/><path d="M65 69.715l5 1.192V53.78c-.57.576-1.282.99-2.178 1.146-.7 2.61-1.68 4.747-2.822 6.513v8.275z" fill="#3E3E3F"/><path d="M45 61.456v8.26l-13.24 3.157c-2.372.71-4.28 2.48-5.17 4.79L23 87h32V69c-3.28-1.094-7.158-3.157-10-7.544zM70.025 45.003v.015c-1.53.413-8.763-1.464-9.013-16.25C59.367 28.272 57.387 28 55 28c-12.976 0-13.982 7.97-14 16.98C41 61.776 49 67 55 69c4.604-1.535 10.38-4.973 12.822-14.075C71.136 54.353 72 50.313 72 47.222c0-1.1-.983-2.2-1.975-2.22z" fill="#FBC8C8"/><path d="M83.41 77.663c-.586-1.522-1.62-2.8-2.93-3.705C78.02 78.543 67.1 82 54 82c-12.057 0-22.264-2.927-25.732-6.967-.715.752-1.294 1.637-1.677 2.63L23 87h64l-3.59-9.337z" fill="#FA5655"/><path d="M55 28c-12.976 0-13.982 7.97-14 16.98C41 61.776 49 67 55 69V28z" fill="#FBD7D7"/><path d="M52 47c0-1.104-.896-2-2-2h-.006c0 .02.006.042.006.062 0 1.103-.892 1.996-1.994 2C48.04 48.137 48.916 49 50 49c1.104 0 2-.896 2-2zM61.994 47c0-1.104-.896-2-2-2h-.006c0 .02.006.04.006.062 0 1.103-.892 1.996-1.994 2 .033 1.075.91 1.938 1.994 1.938 1.104 0 2-.896 2-2z" fill="#3E3E3F"/><path d="M50 58h10s0 3-5 3-5-3-5-3z" fill="#F79392"/><path d="M37 39v46s11-6 11-24.293V45c0-15.988 14-8 13-17 0-8-24-4-24 11zM61 28.066c.025 15.44 7.47 17.372 9.025 16.953 0-3.254 2.124-16.977-8.958-17.02-.036 0-.067.03-.067.066z" fill="#3E3E3F"/><path d="M69.347 56l1.527 3.687c.256.618.114 1.33-.358 1.8-.646.647-1.692.647-2.338 0-.473-.472-.614-1.183-.358-1.8L69.347 56z" fill="#fff"/></g></svg>
<svg version="1" width="130" height="130" viewBox="-10 -10 130 130" id="woman-2" y="3510"><g><g fill="#FBC8C8"><path d="M41.115 47.072c-.374 0-.746-.02-1.115-.072-1 0-2 1.11-2 2.222 0 2.92.774 6.684 3.655 7.574l-.54-9.724zM70 47c-.37.053-.742.072-1.115.072l-.54 9.724c2.88-.89 3.655-4.653 3.655-7.574C72 48.112 71 47 70 47zM66 46.628C60.27 44.93 55 39 55 39s-5.27 5.93-11 7.628v15.078C46.876 67.31 51.312 69.77 55 71c3.687-1.23 8.124-3.69 11-9.294V46.628z"/></g><path d="M83.41 79.663c-.89-2.31-2.798-4.08-5.17-4.79L65 72H45l-13.24 2.872c-2.372.71-4.28 2.48-5.17 4.79L23 87h64l-3.59-7.337z" fill="#F3B607"/><path d="M65 68v-4.544c-2.842 4.387-6.72 6.45-10 7.544v16h2l8-16.15V68z" fill="#F7B4B4"/><path d="M65 70.85V68c2.602.618 4.938 1.99 6.683 3.924L75 75.6h-7l.14.265C70.59 80.518 67.43 87 57 87l8-16.15z" fill="#fff"/><path d="M45 63.456v7.394L53 87h2V71c-3.28-1.094-7.158-3.157-10-7.544z" fill="#FBC8C8"/><path d="M45 70.85V68c-2.602.618-4.938 1.99-6.683 3.924L35 75.6h7l-.14.265C39.41 80.518 42.57 87 53 87l-8-16.15z" fill="#fff"/><g fill="#FBD7D7"><path d="M41.115 47.072c-.374 0-.746-.02-1.115-.072-1 0-2 1.11-2 2.222 0 2.92.774 6.684 3.655 7.574l-.54-9.724zM44 46.628v15.078C46.876 67.31 51.312 69.77 55 71V39s-5.27 5.93-11 7.628z"/></g><path d="M50 60h10s0 3-5 3-5-3-5-3z" fill="#F79392"/><path d="M52.006 49c0-1.104-.896-2-2-2H50c0 .02.006.04.006.062 0 1.103-.892 1.996-1.994 2 .034 1.075.91 1.938 1.994 1.938 1.105 0 2-.896 2-2zM62 49c0-1.104-.896-2-2-2h-.006c0 .02.006.042.006.062 0 1.103-.892 1.996-1.994 2C58.04 50.137 58.916 51 60 51c1.104 0 2-.896 2-2zM60.88 30.205c.078-.39.12-.792.12-1.205 0-3.313-2.687-6-6-6s-6 2.687-6 6c0 .413.042.815.12 1.205C42.024 31.51 36.07 36.783 40 47c.37.053.742.072 1.115.072l.633 11.394c.19 3.397.394 6.056 2.252 8.534V46.628C49.73 44.93 55 39 55 39s5.27 5.93 11 7.628V67c1.858-2.478 2.063-5.137 2.252-8.535l.633-11.394c.374 0 .746-.018 1.115-.07 3.93-10.217-2.023-15.49-9.12-16.795z" fill="#3E3E3F"/></g></svg>
<svg version="1" width="130" height="130" viewBox="-10 -10 130 130" id="wooden-horse" y="3640"><g><path d="M25.44 49.62c1.65 1.43 4.14 1.26 5.59-.37C35.27 44.51 39 46 39 46s-2 4-1 12c-6.675 3.337-8.475 12.934-8.89 16.024 1.36 1.4 3.39 2.64 5.924 3.673C35.69 64.875 46 63 46 63c3 2 13 2 17 0 3 7 8.31 5.16 12 7 2.978 1.49 3.184 4.64 3.095 6.152 1.5-.892 2.7-1.88 3.504-2.952.357-.477.832-.812 1.352-1.005C82.65 69.172 80.746 64.83 78 63c4.64-10.83-.02-15.27-7-16.77-5.01-1.07-11.2-.62-16.01.08-1.49.22-2.85.46-3.99.69 0-10.76-5.737-15.99-13.49-15.99-3.51 0-6.414 2.198-8.62 4.74-2.51 2.88-4.36 6.45-4.87 8.83-.35 1.69-.34 3.42.92 4.59.15.15.32.3.5.45z" fill="#fff"/><path d="M54.99 46.31c-1.49.22-2.85.46-3.99.69 0-10.76-5.737-15.99-13.49-15.99-3.51 0-6.41 2.195-8.62 4.74C28.8 33.06 29.66 27 39 27c11.61 0 15.73 12.18 15.99 19.31zM73.417 46.912c4.824 1.728 7.79 5.42 5.814 12.602C81.86 63.556 84.814 67 87 67c0-19.687-4.847-21.93-13.583-20.088z" fill="#84462D"/><path d="M71 46.23V55c0 2.21-1.79 4-4 4H55c-2.21 0-4-1.79-4-4v-8c4.84-.97 13.44-2.17 20-.77z" fill="#DF2C2C"/><circle cx="33" cy="38" r="2" fill="#9C6144"/><path d="M55 87c-11.48 0-25.76-2.68-31.4-10.2-.994-1.325-.725-3.206.6-4.2 1.325-.994 3.206-.726 4.2.6C31.9 77.865 42.59 81 55 81s23.1-3.135 26.6-7.8c.995-1.326 2.877-1.594 4.2-.6 1.325.994 1.595 2.875.6 4.2C80.76 84.32 66.48 87 55 87zM39 27c-9.34 0-10.2 6.06-10.11 8.75 2.21-2.545 5.11-4.74 8.62-4.74 6.796 0 12.04 4.02 13.233 12.258l3.205-3.205C52.095 33.695 47.608 27 39 27z" fill="#9C6144"/><path d="M51 47v8c0 1.107.45 2.11 1.178 2.833l12.24-12.24C59.426 45.558 54.326 46.332 51 47z" fill="#FA5655"/></g></svg>
<svg version="1" width="130" height="130" viewBox="-10 -10 130 130" id="xylophone" y="3770"><g><path d="M69 75c0 2.21-1.79 4-4 4h-6c-2.21 0-4-1.79-4-4V35c0-2.21 1.79-4 4-4h6c2.21 0 4 1.79 4 4v40z" fill="#F0F1F1"/><path d="M69 45.412V35c0-2.21-1.79-4-4-4h-6c-2.21 0-4 1.79-4 4v24.412l14-14z" fill="#fff"/><path d="M53 79c0 2.21-1.79 4-4 4h-6c-2.21 0-4-1.79-4-4V31c0-2.21 1.79-4 4-4h6c2.21 0 4 1.79 4 4v48z" fill="#F0F1F1"/><path d="M53 61.412V31c0-2.21-1.79-4-4-4h-6c-2.21 0-4 1.79-4 4v44.412l14-14z" fill="#fff"/><path d="M37 83c0 2.21-1.79 4-4 4h-6c-2.21 0-4-1.79-4-4V27c0-2.21 1.79-4 4-4h6c2.21 0 4 1.79 4 4v56z" fill="#F0F1F1"/><path d="M37 27c0-2.21-1.79-4-4-4h-6c-2.21 0-4 1.79-4 4v56c0 2.21 1.79 4 4 4h.412L37 77.412V27z" fill="#fff"/><circle cx="30" cy="31" r="2.5" fill="#5B5C5F"/><circle cx="30" cy="79" r="2.5" fill="#5B5C5F"/><circle cx="46" cy="35" r="2.5" fill="#5B5C5F"/><circle cx="46" cy="75" r="2.5" fill="#5B5C5F"/><circle cx="62" cy="39" r="2.5" fill="#5B5C5F"/><circle cx="62" cy="71" r="2.5" fill="#5B5C5F"/><path d="M85 71c0 2.21-1.79 4-4 4h-6c-2.21 0-4-1.79-4-4V39c0-2.21 1.79-4 4-4h6c2.21 0 4 1.79 4 4v32z" fill="#F0F1F1"/><circle cx="78" cy="43" r="2.5" fill="#5B5C5F"/><circle cx="78" cy="67" r="2.5" fill="#5B5C5F"/><path d="M85.02 81.514L51.82 55.48c-.33.86-.792 1.687-1.39 2.45s-1.292 1.41-2.05 1.936L81.58 85.9c1.21.95 2.963.737 3.913-.474.95-1.21.737-2.963-.474-3.912z" fill="#9C6144"/><circle cx="43" cy="52.103" r="9.444" fill="#DF2C2C"/><path d="M79.412 35H75c-2.21 0-4 1.79-4 4v4.412L79.412 35z" fill="#fff"/><path d="M85.02 81.514L51.82 55.48c-.325.846-.78 1.66-1.364 2.412L85.51 85.396c.926-1.21.71-2.94-.49-3.882z" fill="#AF7653"/><path d="M48.83 44.67c-4.105-3.218-10.042-2.5-13.26 1.605-3.03 3.863-2.57 9.347.916 12.663L49.83 45.594c-.31-.324-.638-.637-1-.923z" fill="#FA5655"/></g></svg>
<svg version="1" width="130" height="130" viewBox="-10 -10 130 130" id="yinyang" y="3900"><g><path d="M67 39.005c0 6-6 11-12 16s-12 10-12 16c0 12 12 16 12 16-17.67 0-32-14.33-32-32s14.33-32 32-32c0 0 12 4 12 16z" fill="#E2E4E5"/><path d="M87 55.005c0 17.67-14.33 32-32 32 0 0-12-4-12-16 0-6 6-11 12-16s12-10 12-16c0-12-12-16-12-16 17.67 0 32 14.33 32 32z" fill="#3E3E3F"/><path d="M55 55.005c6-5 12-10 12-16 0-12-12-16-12-16-17.67 0-32 14.33-32 32 0 9.725 4.347 18.432 11.196 24.302l8.837-8.837C43.378 64.707 49.18 59.854 55 55.005z" fill="#fff"/><circle cx="55" cy="71.005" r="6" fill="#fff"/><circle cx="55" cy="39.005" r="6" fill="#5B5C5F"/><path d="M55 55.005c-5.82 4.85-11.622 9.702-11.967 15.464L79.3 34.2C73.433 27.35 64.726 23.005 55 23.005c0 0 12 4 12 16 0 6-6 11-12 16z" fill="#5B5C5F"/></g></svg>
</svg>