<?xml version="1.0" encoding="utf-8"?>
<!-- Generated by IcoMoon.io -->
<!DOCTYPE svg PUBLIC "-//W3C//DTD SVG 1.1//EN" "http://www.w3.org/Graphics/SVG/1.1/DTD/svg11.dtd">
<svg version="1.1" xmlns="http://www.w3.org/2000/svg" xmlns:xlink="http://www.w3.org/1999/xlink" width="48" height="48" viewBox="0 0 48 48">
<path d="M43.5 48h-33c-0.828 0-1.5-0.67-1.5-1.5v-1.5h-4.5c-0.829 0-1.5-0.67-1.5-1.5v-3c0-0.83 0.671-1.5 1.5-1.5h4.5v-3h-4.5c-0.829 0-1.5-0.67-1.5-1.5v-3c0-0.83 0.671-1.5 1.5-1.5h4.5v-3h-4.5c-0.829 0-1.5-0.67-1.5-1.5v-3c0-0.83 0.671-1.5 1.5-1.5h4.5v-3h-4.5c-0.829 0-1.5-0.67-1.5-1.5v-3c0-0.83 0.671-1.5 1.5-1.5h4.5v-3h-4.5c-0.829 0-1.5-0.671-1.5-1.5v-3c0-0.829 0.671-1.5 1.5-1.5h4.5v-1.5c0-0.83 0.672-1.5 1.5-1.5h33c0.83 0 1.5 0.67 1.5 1.5v45c0 0.83-0.67 1.5-1.5 1.5zM9 4.5h-3c-0.829 0-1.5 0.671-1.5 1.5s0.671 1.5 1.5 1.5h3c0.829 0 1.5-0.671 1.5-1.5s-0.671-1.5-1.5-1.5zM9 13.5h-3c-0.829 0-1.5 0.67-1.5 1.5s0.671 1.5 1.5 1.5h3c0.829 0 1.5-0.67 1.5-1.5s-0.671-1.5-1.5-1.5zM9 22.5h-3c-0.829 0-1.5 0.67-1.5 1.5s0.671 1.5 1.5 1.5h3c0.829 0 1.5-0.67 1.5-1.5s-0.671-1.5-1.5-1.5zM9 31.5h-3c-0.829 0-1.5 0.67-1.5 1.5s0.671 1.5 1.5 1.5h3c0.829 0 1.5-0.67 1.5-1.5s-0.671-1.5-1.5-1.5zM9 40.5h-3c-0.829 0-1.5 0.67-1.5 1.5s0.671 1.5 1.5 1.5h3c0.829 0 1.5-0.67 1.5-1.5s-0.671-1.5-1.5-1.5zM36 31.313c0-2.557-3.177-3.476-7.368-3.86 0.174-0.107 0.333-0.282 0.491-0.453h-0.622c0.829 0 1.5-0.67 1.5-1.5v-9c0-0.83-0.671-1.5-1.5-1.5h-3c-0.83 0-1.5 0.67-1.5 1.5v9c0 0.83 0.67 1.5 1.5 1.5h-0.623c0.158 0.171 0.318 0.345 0.491 0.453-4.191 0.384-7.368 1.336-7.368 3.86v1.688h18v-1.688z" fill="#000000"></path>
</svg>
