<?xml version="1.0" encoding="utf-8"?>
<!-- Generated by IcoMoon.io -->
<!DOCTYPE svg PUBLIC "-//W3C//DTD SVG 1.1//EN" "http://www.w3.org/Graphics/SVG/1.1/DTD/svg11.dtd">
<svg version="1.1" xmlns="http://www.w3.org/2000/svg" xmlns:xlink="http://www.w3.org/1999/xlink" width="48" height="48" viewBox="0 0 48 48">
<path d="M40.5 34.5h-33l-4.5 4.5v1.5l1.5 1.5h13.5c0 3.313 2.687 6 6 6s6-2.687 6-6h13.5l1.5-1.5v-1.5l-4.5-4.5zM39 22.5c0-6.15-3.705-11.427-9-13.743v-2.757c0-3.313-2.687-6-6-6s-6 2.687-6 6v2.757c-5.295 2.316-9 7.593-9 13.743v10.5h30v-10.5zM21 6c0-1.656 1.344-3 3-3s3 1.344 3 3h-6z" fill="#000000"></path>
</svg>
