<?xml version="1.0" encoding="utf-8"?>
<!-- Generated by IcoMoon.io -->
<!DOCTYPE svg PUBLIC "-//W3C//DTD SVG 1.1//EN" "http://www.w3.org/Graphics/SVG/1.1/DTD/svg11.dtd">
<svg version="1.1" xmlns="http://www.w3.org/2000/svg" xmlns:xlink="http://www.w3.org/1999/xlink" width="48" height="48" viewBox="0 0 48 48">
<path d="M20.371 45.011c10.653 0 20.056-5.904 20.056-15.742 0-3.59-1.678-5.788-2.382-6.947-0.586-0.694-0.586-1.273 0.821-1.389 5.5-0.81 9.129-3.821 9.129-9.608 0-3.126-2.575-6.885-7.257-6.885-2.223 0-4.94 2.139-4.94 4.454 0 1.275 1.311 2.796 3.183 2.796 2.108 0 3.302-2.217 2.95-3.144-0.116-0.579-0.491-1.274 0.327-1.274 1.524 0 3.279 1.968 3.279 3.82 0 3.242-3.044 5.469-7.843 5.469-2.575 0-4.799-1.588-7.257-1.588-6.204 0-9.832 4.917-9.832 9.201 0 4.861 3.745 7.176 6.555 7.176 3.159 0 4.097-1.851 4.097-3.357 0-1.735-1.055-2.893-3.279-2.893-1.755 0-2.575 1.851-2.459 2.778 0.117 0.463-0.234 0.81-0.587 0.81-0.468 0-1.872-1.505-1.872-3.471 0-1.39 0.938-5.959 5.853-5.959 5.266 0 8.935 4.8 8.935 8.736 0 5.556-6.244 11.461-16.896 11.461-10.653 0-16.739-4.861-16.739-11.923 0-3.242 1.406-6.25 3.159-7.524 0.704-0.463 1.055-0.346 1.405 0.231 0.821 0.579 2.693 2.139 3.863 2.139 1.523 0 2.341-1.907 2.341-3.529 0-1.389-1.638-2.343-3.042-2.343s-2.341 0.838-2.927 1.069c-0.819-1.273-1.287-2.893-1.287-4.167 0-3.704 2.693-6.029 5.268-6.029 2.223 0 4.097 1.744 3.745 3.945-0.117 0.579-0.117 1.041 0.117 1.041 0.936 0 3.042-1.389 3.042-3.936 0-3.588-2.691-5.44-6.204-5.44-5.735 0-9.246 4.051-9.246 8.335 0 2.546 0.936 4.862 2.458 6.83-2.341 1.041-6.906 4.977-6.906 11.923 0.001 5.904 4.098 14.934 20.369 14.934z" fill="#000000"></path>
</svg>
