<?xml version="1.0" encoding="utf-8"?>
<!-- Generated by IcoMoon.io -->
<!DOCTYPE svg PUBLIC "-//W3C//DTD SVG 1.1//EN" "http://www.w3.org/Graphics/SVG/1.1/DTD/svg11.dtd">
<svg version="1.1" xmlns="http://www.w3.org/2000/svg" xmlns:xlink="http://www.w3.org/1999/xlink" width="48" height="48" viewBox="0 0 48 48">
<path d="M38.078 25.506c0.071 7.262 6.839 9.674 6.916 9.709-0.061 0.164-1.084 3.443-3.572 6.828-2.151 2.923-4.377 5.835-7.89 5.893-3.455 0.062-4.564-1.907-8.514-1.907-3.948 0-5.181 1.848-8.448 1.968-3.389 0.12-5.971-3.156-8.14-6.072-4.431-5.961-7.815-16.844-3.267-24.188 2.255-3.648 6.288-5.958 10.668-6.020 3.33-0.055 6.476 2.091 8.508 2.091 2.038 0 5.859-2.579 9.873-2.201 1.681 0.065 6.402 0.63 9.431 4.754-0.239 0.145-5.633 3.061-5.565 9.142zM23.934 11.063c-0.391-2.759 1.068-5.627 2.736-7.428 1.861-2.030 5.003-3.538 7.596-3.635 0.331 2.811-0.885 5.633-2.684 7.663-1.802 2.028-4.755 3.607-7.649 3.399z" fill="#000000"></path>
</svg>
