<?xml version="1.0" encoding="utf-8"?>
<!-- Generated by IcoMoon.io -->
<!DOCTYPE svg PUBLIC "-//W3C//DTD SVG 1.1//EN" "http://www.w3.org/Graphics/SVG/1.1/DTD/svg11.dtd">
<svg version="1.1" xmlns="http://www.w3.org/2000/svg" xmlns:xlink="http://www.w3.org/1999/xlink" width="48" height="48" viewBox="0 0 48 48">
<path d="M41.832 24.015c1.878-2.083 3.224-4.135 4.008-6.106 0.906-2.288 0.873-4.274-0.096-5.901-0.974-1.63-2.757-2.652-5.296-3.034-2.179-0.33-4.709-0.245-7.544 0.255-0.939-2.603-2.119-4.745-3.511-6.373-1.622-1.896-3.441-2.856-5.403-2.856-1.968 0-3.786 0.966-5.406 2.873-1.393 1.638-2.564 3.782-3.485 6.378-2.837-0.516-5.364-0.606-7.543-0.277-2.54 0.384-4.321 1.405-5.298 3.037-0.969 1.628-1.002 3.612-0.096 5.899 0.78 1.967 2.133 4.017 4.028 6.104-1.893 2.091-3.242 4.139-4.012 6.096-0.9 2.28-0.861 4.26 0.111 5.883 0.97 1.63 2.748 2.657 5.278 3.048 2.172 0.339 4.7 0.252 7.535-0.262 0.936 2.593 2.109 4.734 3.495 6.367 1.611 1.898 3.424 2.858 5.394 2.858 1.963 0 3.781-0.962 5.403-2.856 1.39-1.627 2.569-3.774 3.508-6.387 2.835 0.54 5.355 0.643 7.521 0.306 2.519-0.392 4.299-1.413 5.297-3.048 0.97-1.627 1.004-3.612 0.094-5.901-0.78-1.96-2.117-4.011-3.981-6.101zM20.766 43.206c-1.012-1.291-1.886-3.020-2.599-5.137 1.968-0.535 3.93-1.217 5.846-2.031 1.923 0.825 3.882 1.506 5.844 2.031-0.726 2.113-1.61 3.838-2.633 5.133-2.090 2.651-4.383 2.651-6.457 0.005zM27.222 4.808c1.021 1.303 1.907 3.033 2.632 5.148-1.829 0.493-3.786 1.167-5.842 2.013-1.997-0.813-3.966-1.5-5.87-2.043 0.726-2.094 1.607-3.815 2.623-5.118 2.078-2.662 4.367-2.662 6.456 0zM35.227 22.206c0.8 0.627 1.53 1.235 2.182 1.818-0.444 0.41-0.907 0.816-1.386 1.209-0.263 0.215-0.528 0.43-0.797 0.649 0.026-0.66 0.036-1.293 0.036-1.893 0.002-0.547-0.011-1.145-0.036-1.784zM34.903 18.029c-0.235-2.059-0.609-4.035-1.111-5.89 2.277-0.449 4.282-0.581 5.968-0.39 1.721 0.194 2.874 0.756 3.425 1.662 0.563 0.943 0.501 2.149-0.191 3.685-0.668 1.491-1.791 3.084-3.345 4.743-1.469-1.344-3.059-2.622-4.746-3.81zM24.014 32.604c-1.352-0.6-2.696-1.278-3.995-2.013-1.482-0.849-2.749-1.626-3.774-2.31-0.113-1.249-0.169-2.692-0.169-4.293 0-1.599 0.057-3.031 0.168-4.266 1.11-0.725 2.394-1.503 3.81-2.304 1.275-0.693 2.604-1.361 3.959-1.988 1.35 0.633 2.68 1.299 3.944 1.976 1.329 0.764 2.613 1.535 3.827 2.301 0.112 1.26 0.168 2.697 0.168 4.281 0 1.601-0.056 3.051-0.168 4.316-1.125 0.738-2.398 1.506-3.798 2.289-1.255 0.72-2.587 1.396-3.97 2.012zM29.604 14.697c-0.498-0.28-1.053-0.577-1.659-0.893 0.96-0.35 1.887-0.657 2.77-0.918 0.218 0.912 0.405 1.838 0.56 2.766-0.534-0.319-1.092-0.639-1.671-0.956zM17.306 12.894c0.9 0.273 1.812 0.579 2.731 0.915-0.57 0.288-1.116 0.585-1.635 0.883-0.581 0.319-1.139 0.638-1.668 0.956 0.162-0.938 0.352-1.86 0.572-2.754zM12.799 25.858c-0.807-0.619-1.545-1.236-2.211-1.843 0.678-0.61 1.413-1.218 2.202-1.818-0.019 0.585-0.028 1.179-0.028 1.79 0.001 0.646 0.014 1.272 0.037 1.872zM14.217 12.093c-0.503 1.911-0.87 3.886-1.093 5.886-1.74 1.239-3.34 2.534-4.771 3.856-1.554-1.656-2.682-3.249-3.36-4.744-0.695-1.532-0.753-2.733-0.176-3.675 0.563-0.926 1.683-1.474 3.427-1.68 0.528-0.062 1.092-0.093 1.676-0.093 1.288 0 2.732 0.152 4.298 0.45zM5.007 30.928c0.671-1.495 1.787-3.087 3.321-4.737 1.446 1.34 3.054 2.642 4.794 3.879 0.223 1.995 0.591 3.947 1.092 5.817-2.274 0.447-4.278 0.579-5.961 0.392-1.731-0.197-2.847-0.748-3.415-1.701-0.575-0.922-0.519-2.115 0.169-3.65zM18.352 33.293c0.522 0.31 1.089 0.619 1.697 0.928-0.95 0.349-1.872 0.652-2.759 0.904-0.217-0.909-0.4-1.822-0.549-2.732 0.537 0.32 1.077 0.621 1.611 0.899zM30.717 35.129c-0.894-0.252-1.818-0.553-2.767-0.905 0.54-0.277 1.11-0.583 1.704-0.918 0.552-0.306 1.093-0.613 1.616-0.918-0.166 0.978-0.351 1.893-0.552 2.74zM33.78 35.892c0.49-1.877 0.858-3.836 1.095-5.844 1.731-1.229 3.331-2.523 4.77-3.854 1.536 1.668 2.654 3.268 3.324 4.76 0.688 1.536 0.75 2.732 0.191 3.657-0.553 0.915-1.703 1.479-3.414 1.68-0.503 0.059-1.040 0.090-1.596 0.090-1.306-0.002-2.772-0.165-4.37-0.489z" fill="#000000"></path>
</svg>
