<?xml version="1.0" encoding="utf-8"?>
<!-- Generated by IcoMoon.io -->
<!DOCTYPE svg PUBLIC "-//W3C//DTD SVG 1.1//EN" "http://www.w3.org/Graphics/SVG/1.1/DTD/svg11.dtd">
<svg version="1.1" xmlns="http://www.w3.org/2000/svg" xmlns:xlink="http://www.w3.org/1999/xlink" width="48" height="48" viewBox="0 0 48 48">
<path d="M43.5 21h-39c-0.829 0-1.5-0.67-1.5-1.5s0.671-1.5 1.5-1.5h3l9-16.5c0-0.83 0.67-1.5 1.5-1.5h3c0.83 0 1.5 0.67 1.5 1.5l-9 16.5h21l-9-16.5c0-0.83 0.67-1.5 1.5-1.5h4.5c0.83 0 1.5 0.67 1.5 1.5l7.5 16.5h3c0.83 0 1.5 0.67 1.5 1.5s-0.67 1.5-1.5 1.5zM4.5 24h39c0.83 0 1.5 0.67 1.5 1.5l-3 21c0 0.83-0.67 1.5-1.5 1.5h-33c-0.829 0-1.5-0.67-1.5-1.5l-3-21c0-0.83 0.671-1.5 1.5-1.5zM33 42h3c0.83 0 1.5-0.67 1.5-1.5l1.5-9c0-0.83-0.67-1.5-1.5-1.5h-3c-0.83 0-1.5 0.67-1.5 1.5l-1.5 9c0 0.83 0.67 1.5 1.5 1.5zM21 40.5c0 0.83 0.67 1.5 1.5 1.5h3c0.83 0 1.5-0.67 1.5-1.5v-9c0-0.83-0.67-1.5-1.5-1.5h-3c-0.83 0-1.5 0.67-1.5 1.5v9zM10.5 40.5c0 0.83 0.671 1.5 1.5 1.5h3c0.83 0 1.5-0.67 1.5-1.5l-1.5-9c0-0.83-0.67-1.5-1.5-1.5h-3c-0.829 0-1.5 0.67-1.5 1.5l1.5 9z" fill="#000000"></path>
</svg>
