<?xml version="1.0" encoding="utf-8"?>
<!-- Generated by IcoMoon.io -->
<!DOCTYPE svg PUBLIC "-//W3C//DTD SVG 1.1//EN" "http://www.w3.org/Graphics/SVG/1.1/DTD/svg11.dtd">
<svg version="1.1" xmlns="http://www.w3.org/2000/svg" xmlns:xlink="http://www.w3.org/1999/xlink" width="48" height="48" viewBox="0 0 48 48">
<path d="M19.5 15h-12c-0.829 0-1.5 0.67-1.5 1.5v15c0 0.83 0.671 1.5 1.5 1.5h21c0.83 0 1.5-0.67 1.5-1.5l-9-15c0-0.83-0.67-1.5-1.5-1.5zM46.5 15h-4.5v-4.5c0-0.829-0.67-1.5-1.5-1.5h-39c-0.83 0-1.5 0.671-1.5 1.5v27c0 0.83 0.67 1.5 1.5 1.5h39c0.83 0 1.5-0.67 1.5-1.5v-4.5h4.5c0.83 0 1.5-0.67 1.5-1.5v-15c0-0.83-0.67-1.5-1.5-1.5zM39 34.5c0 0.83-0.67 1.5-1.5 1.5h-33c-0.829 0-1.5-0.67-1.5-1.5v-21c0-0.83 0.671-1.5 1.5-1.5h33c0.83 0 1.5 0.67 1.5 1.5v21z" fill="#000000"></path>
</svg>
