<?xml version="1.0" encoding="utf-8"?>
<!-- Generated by IcoMoon.io -->
<!DOCTYPE svg PUBLIC "-//W3C//DTD SVG 1.1//EN" "http://www.w3.org/Graphics/SVG/1.1/DTD/svg11.dtd">
<svg version="1.1" xmlns="http://www.w3.org/2000/svg" xmlns:xlink="http://www.w3.org/1999/xlink" width="48" height="48" viewBox="0 0 48 48">
<path d="M40.969 40.969c-9.372 9.373-24.569 9.373-33.941 0-9.373-9.372-9.373-24.569 0-33.941 9.372-9.373 24.569-9.373 33.941 0 9.373 9.373 9.373 24.569 0 33.941zM11.272 36.727c6.304 6.304 16.114 6.936 23.143 1.931l-25.074-25.074c-5.006 7.029-4.374 16.838 1.931 23.144zM36.727 11.272c-6.304-6.304-16.114-6.936-23.142-1.931l25.074 25.072c5.004-7.027 4.372-16.837-1.932-23.142z" fill="#000000"></path>
</svg>
