<?xml version="1.0" encoding="utf-8"?>
<!-- Generated by IcoMoon.io -->
<!DOCTYPE svg PUBLIC "-//W3C//DTD SVG 1.1//EN" "http://www.w3.org/Graphics/SVG/1.1/DTD/svg11.dtd">
<svg version="1.1" xmlns="http://www.w3.org/2000/svg" xmlns:xlink="http://www.w3.org/1999/xlink" width="48" height="48" viewBox="0 0 48 48">
<path d="M43.5 48h-1.5v-15h6v10.5c0 2.484-2.014 4.5-4.5 4.5zM42 15h1.5c2.486 0 4.5 2.016 4.5 4.5v12h-6v-16.5zM9 33h12v3c0 0.83 0.672 1.5 1.5 1.5h3c0.83 0 1.5-0.67 1.5-1.5v-3h12v15h-30v-15zM27 31.5v-4.5c0-0.83-0.67-1.5-1.5-1.5h-3c-0.828 0-1.5 0.67-1.5 1.5v4.5h-12v-16.5h3v-3.75c0-6.213 5.373-11.25 12-11.25s12 5.037 12 11.25v3.75h3v16.5h-12zM30 12c0-3.313-2.687-6-6-6s-6 2.687-6 6v3h12v-3zM0 43.5v-10.5h6v15h-1.5c-2.486 0-4.5-2.016-4.5-4.5zM0 19.5c0-2.484 2.014-4.5 4.5-4.5h1.5v16.5h-6v-12z" fill="#000000"></path>
</svg>
