<?xml version="1.0" encoding="utf-8"?>
<!-- Generated by IcoMoon.io -->
<!DOCTYPE svg PUBLIC "-//W3C//DTD SVG 1.1//EN" "http://www.w3.org/Graphics/SVG/1.1/DTD/svg11.dtd">
<svg version="1.1" xmlns="http://www.w3.org/2000/svg" xmlns:xlink="http://www.w3.org/1999/xlink" width="48" height="48" viewBox="0 0 48 48">
<path d="M46.5 22.5h-7.722c-0.273-2.035-0.826-3.947-1.589-5.689l4.811-4.811c0.83 0 1.5-0.672 1.5-1.5v-7.5c0-0.828-0.67-1.5-1.5-1.5s-1.5 0.672-1.5 1.5v7.5l-4.959 3.306c-0.764-1.127-1.624-2.148-2.587-3.008-0.452-6.063-4.287-10.798-8.954-10.798s-8.502 4.736-8.955 10.798c-0.961 0.858-1.824 1.88-2.586 3.008l-4.959-3.306v-7.5c0-0.828-0.672-1.5-1.5-1.5s-1.5 0.672-1.5 1.5v7.5c0 0.828 0.672 1.5 1.5 1.5l4.81 4.811c-0.762 1.743-1.316 3.654-1.588 5.689h-7.722c-0.828 0-1.5 0.67-1.5 1.5s0.672 1.5 1.5 1.5h7.714c0.166 1.251 0.445 5.452 0.806 6.6l-4.376 5.472c-0.652 0.165-1.144 0.726-1.144 1.428v7.5c0 0.83 0.672 1.5 1.5 1.5s1.5-0.67 1.5-1.5v-7.5l3.781-3.782c2.532 4.974 6.937 8.282 11.968 8.282 0.254 0 0.5-0.045 0.75-0.063 0.251 0.018 0.497 0.063 0.75 0.063 5.031 0 9.437-3.307 11.968-8.282l3.782 3.782v7.5c0 0.83 0.67 1.5 1.5 1.5s1.5-0.67 1.5-1.5v-7.5c0-0.702-0.492-1.263-1.143-1.427l-4.377-5.474c0.36-1.149 0.639-5.349 0.805-6.6h7.715c0.83 0 1.5-0.67 1.5-1.5s-0.67-1.5-1.5-1.5z" fill="#000000"></path>
</svg>
