<?xml version="1.0" encoding="utf-8"?>
<!-- Generated by IcoMoon.io -->
<!DOCTYPE svg PUBLIC "-//W3C//DTD SVG 1.1//EN" "http://www.w3.org/Graphics/SVG/1.1/DTD/svg11.dtd">
<svg version="1.1" xmlns="http://www.w3.org/2000/svg" xmlns:xlink="http://www.w3.org/1999/xlink" width="48" height="48" viewBox="0 0 48 48">
<path d="M24 0c-13.254 0-24 10.745-24 24s10.746 24 24 24c13.254 0 24-10.745 24-24s-10.746-24-24-24zM24 42c-9.94 0-18-8.059-18-18s8.060-18 18-18c9.941 0 18 8.060 18 18s-8.059 18-18 18zM24 9c-8.284 0-15 6.717-15 15s6.716 15 15 15c8.285 0 15-6.717 15-15s-6.715-15-15-15zM18 33c-1.656 0-3-1.344-3-3s1.344-3 3-3 3 1.344 3 3-1.344 3-3 3zM18 21c-1.656 0-3-1.344-3-3s1.344-3 3-3 3 1.344 3 3-1.344 3-3 3zM30 33c-1.656 0-3-1.344-3-3s1.344-3 3-3 3 1.344 3 3-1.344 3-3 3zM30 21c-1.656 0-3-1.344-3-3s1.344-3 3-3 3 1.344 3 3-1.344 3-3 3z" fill="#000000"></path>
</svg>
