<?xml version="1.0" encoding="utf-8"?>
<!-- Generated by IcoMoon.io -->
<!DOCTYPE svg PUBLIC "-//W3C//DTD SVG 1.1//EN" "http://www.w3.org/Graphics/SVG/1.1/DTD/svg11.dtd">
<svg version="1.1" xmlns="http://www.w3.org/2000/svg" xmlns:xlink="http://www.w3.org/1999/xlink" width="48" height="48" viewBox="0 0 48 48">
<path d="M18.072 25.441c-0.267 0.386-0.592 1.352-0.978 1.589-0.386 0.235-0.821 0.4-1.303 0.492-0.485 0.093-0.986 0.133-1.503 0.119v2.291h3.7v9.069h2.986v-14.994h-2.376c-0.084 0.572-0.259 1.050-0.526 1.436zM34.5 12h3c0.83 0 1.5-0.672 1.5-1.5v-9c0-0.828-0.67-1.5-1.5-1.5h-3c-0.83 0-1.5 0.672-1.5 1.5v9c0 0.828 0.67 1.5 1.5 1.5zM10.5 12h3c0.828 0 1.5-0.672 1.5-1.5v-9c0-0.828-0.672-1.5-1.5-1.5h-3c-0.828 0-1.5 0.672-1.5 1.5v9c0 0.828 0.672 1.5 1.5 1.5zM45 6h-3v7.5c0 0.828-0.67 1.5-1.5 1.5h-9c-0.83 0-1.5-0.672-1.5-1.5v-7.5h-12v7.5c0 0.828-0.672 1.5-1.5 1.5h-9c-0.828 0-1.5-0.672-1.5-1.5v-7.5h-3c-1.656 0-3 1.344-3 3v36c0 1.656 1.344 3 3 3h42c1.656 0 3-1.344 3-3v-36c0-1.656-1.344-3-3-3zM45 43.5c0 0.83-0.67 1.5-1.5 1.5h-39c-0.828 0-1.5-0.67-1.5-1.5v-24c0-0.828 0.672-1.5 1.5-1.5h39c0.83 0 1.5 0.672 1.5 1.5v24zM23.977 26.973h7.452c-1.404 1.728-2.533 3.487-3.398 5.557-0.862 2.072-0.957 4.227-1.123 6.468h3.197c0.014-0.999-0.293-2.078-0.076-3.234 0.219-1.157 0.528-2.298 0.926-3.427 0.4-1.128 0.897-2.192 1.494-3.191 0.594-1.001 1.28-1.843 2.051-2.529v-2.613h-10.523v2.968z" fill="#000000"></path>
</svg>
