<?xml version="1.0" encoding="utf-8"?>
<!-- Generated by IcoMoon.io -->
<!DOCTYPE svg PUBLIC "-//W3C//DTD SVG 1.1//EN" "http://www.w3.org/Graphics/SVG/1.1/DTD/svg11.dtd">
<svg version="1.1" xmlns="http://www.w3.org/2000/svg" xmlns:xlink="http://www.w3.org/1999/xlink" width="48" height="48" viewBox="0 0 48 48">
<path d="M45 40.5l-9-7.5v7.5c0 1.656-1.344 3-3 3h-30c-1.656 0-3-1.344-3-3v-25.5c0-1.656 1.344-3 3-3h11.547l-4.437-6h-8.61c-0.828 0-1.5-0.671-1.5-1.5s0.672-1.5 1.5-1.5h9c0.828 0 1.5 0.671 1.5 1.5l6.108 7.5h14.892c1.656 0 3 1.344 3 3v7.5l9-9c1.656 0 3 1.344 3 3v21c0 1.656-1.157 3-3 3zM31.5 15h-9c-0.83 0-1.5 0.67-1.5 1.5s0.67 1.5 1.5 1.5h9c0.83 0 1.5-0.67 1.5-1.5s-0.67-1.5-1.5-1.5z" fill="#000000"></path>
</svg>
