<?xml version="1.0" encoding="utf-8"?>
<!-- Generated by IcoMoon.io -->
<!DOCTYPE svg PUBLIC "-//W3C//DTD SVG 1.1//EN" "http://www.w3.org/Graphics/SVG/1.1/DTD/svg11.dtd">
<svg version="1.1" xmlns="http://www.w3.org/2000/svg" xmlns:xlink="http://www.w3.org/1999/xlink" width="48" height="48" viewBox="0 0 48 48">
<path d="M46.5 9h-8.25l-2.25-4.5c0-0.828-0.67-1.5-1.5-1.5h-21c-0.83 0-1.5 0.672-1.5 1.5l-2.25 4.5h-8.25c-0.828 0-1.5 0.672-1.5 1.5v33c0 0.83 0.672 1.5 1.5 1.5h45c0.83 0 1.5-0.67 1.5-1.5v-33c0-0.828-0.67-1.5-1.5-1.5zM24 39c-6.627 0-12-5.373-12-12s5.373-12 12-12 12 5.373 12 12c0 6.627-5.373 12-12 12zM24 21c-3.313 0-6 2.687-6 6s2.687 6 6 6 6-2.687 6-6-2.687-6-6-6z" fill="#000000"></path>
</svg>
