<?xml version="1.0" encoding="utf-8"?>
<!-- Generated by IcoMoon.io -->
<!DOCTYPE svg PUBLIC "-//W3C//DTD SVG 1.1//EN" "http://www.w3.org/Graphics/SVG/1.1/DTD/svg11.dtd">
<svg version="1.1" xmlns="http://www.w3.org/2000/svg" xmlns:xlink="http://www.w3.org/1999/xlink" width="48" height="48" viewBox="0 0 48 48">
<path d="M46.081 10.161l-13.795 13.88 13.795 13.797c0.578 0.576 0.578 1.511 0 2.088l-6.264 6.263c-0.575 0.578-1.509 0.578-2.086 0l-13.773-13.773-13.691 13.773c-0.576 0.578-1.51 0.578-2.088 0l-6.262-6.263c-0.576-0.578-0.576-1.512 0-2.088l13.691-13.773-13.689-13.689c-0.576-0.576-0.576-1.51 0-2.088l6.263-6.263c0.576-0.578 1.51-0.578 2.088 0l13.665 13.665 13.799-13.88c0.578-0.578 1.512-0.578 2.087 0l6.264 6.262c0.575 0.578 0.575 1.512-0.002 2.088z" fill="#000000"></path>
</svg>
