<?xml version="1.0" encoding="utf-8"?>
<!-- Generated by IcoMoon.io -->
<!DOCTYPE svg PUBLIC "-//W3C//DTD SVG 1.1//EN" "http://www.w3.org/Graphics/SVG/1.1/DTD/svg11.dtd">
<svg version="1.1" xmlns="http://www.w3.org/2000/svg" xmlns:xlink="http://www.w3.org/1999/xlink" width="48" height="48" viewBox="0 0 48 48">
<path d="M47.871 8.1l-4.371 17.4c0 0.209-0.042 0.405-0.117 0.584-0.153 0.36-0.44 0.648-0.798 0.8-0.18 0.076-0.378 0.117-0.585 0.117h-28.5l1.2 6h25.8c0.83 0 1.5 0.67 1.5 1.5s-0.67 1.5-1.5 1.5h-27c-0.83 0-1.5-0.67-1.5-1.5l-5.7-28.5h-4.8c-0.828 0-1.5-0.672-1.5-1.5s0.672-1.5 1.5-1.5h6c0.829 0 1.5 0.672 1.5 1.5l0.3 1.5h37.2c0.83 0 1.5 0.672 1.5 1.5 0 0.214-0.048 0.415-0.129 0.6zM12.9 24h5.1v-15h-8.1l3 15zM27 9h-7.5v15h7.5v-15zM36 9h-7.5v15h7.5v-15zM37.5 9v15h3.38l3.8-15h-7.179zM16.5 39c2.486 0 4.5 2.016 4.5 4.5s-2.014 4.5-4.5 4.5-4.5-2.016-4.5-4.5 2.014-4.5 4.5-4.5zM16.5 45c0.83 0 1.5-0.67 1.5-1.5s-0.67-1.5-1.5-1.5-1.5 0.67-1.5 1.5 0.67 1.5 1.5 1.5zM37.5 39c2.486 0 4.5 2.016 4.5 4.5s-2.014 4.5-4.5 4.5-4.5-2.016-4.5-4.5 2.014-4.5 4.5-4.5zM37.5 45c0.83 0 1.5-0.67 1.5-1.5s-0.67-1.5-1.5-1.5-1.5 0.67-1.5 1.5 0.67 1.5 1.5 1.5z" fill="#000000"></path>
</svg>
