<?xml version="1.0" encoding="utf-8"?>
<!-- Generated by IcoMoon.io -->
<!DOCTYPE svg PUBLIC "-//W3C//DTD SVG 1.1//EN" "http://www.w3.org/Graphics/SVG/1.1/DTD/svg11.dtd">
<svg version="1.1" xmlns="http://www.w3.org/2000/svg" xmlns:xlink="http://www.w3.org/1999/xlink" width="48" height="48" viewBox="0 0 48 48">
<path d="M24 0c-13.255 0-24 10.746-24 24s10.745 24 24 24 24-10.746 24-24c0-13.254-10.745-24-24-24zM24 42c-9.94 0-18-8.059-18-18s8.060-18 18-18 18 8.060 18 18-8.059 18-18 18zM34.5 21h-7.5v-10.5c0-0.828-0.67-1.5-1.5-1.5h-3c-0.83 0-1.5 0.672-1.5 1.5v15c0 0.83 0.67 1.5 1.5 1.5h12c0.83 0 1.5-0.67 1.5-1.5v-3c0-0.83-0.67-1.5-1.5-1.5z" fill="#000000"></path>
</svg>
