<?xml version="1.0" encoding="utf-8"?>
<!-- Generated by IcoMoon.io -->
<!DOCTYPE svg PUBLIC "-//W3C//DTD SVG 1.1//EN" "http://www.w3.org/Graphics/SVG/1.1/DTD/svg11.dtd">
<svg version="1.1" xmlns="http://www.w3.org/2000/svg" xmlns:xlink="http://www.w3.org/1999/xlink" width="48" height="48" viewBox="0 0 48 48">
<path d="M48 31.5c0 5.799-4.701 10.5-10.5 10.5h-27v-0.037c-5.862-0.387-10.5-5.253-10.5-11.213 0-3.709 1.803-6.988 4.572-9.038-0.022-0.239-0.072-0.47-0.072-0.712 0-4.143 3.358-7.5 7.5-7.5 1.442 0 2.776 0.428 3.919 1.133 1.955-5.047 6.844-8.632 12.581-8.632 7.456 0 13.5 6.043 13.5 13.5 0 0.826-0.085 1.629-0.228 2.413 3.667 1.638 6.228 5.31 6.228 9.587z" fill="#000000"></path>
</svg>
