<?xml version="1.0" encoding="utf-8"?>
<!-- Generated by IcoMoon.io -->
<!DOCTYPE svg PUBLIC "-//W3C//DTD SVG 1.1//EN" "http://www.w3.org/Graphics/SVG/1.1/DTD/svg11.dtd">
<svg version="1.1" xmlns="http://www.w3.org/2000/svg" xmlns:xlink="http://www.w3.org/1999/xlink" width="48" height="48" viewBox="0 0 48 48">
<path d="M36 19.497v-3c0-0.83-0.67-1.5-1.5-1.5h-33c-0.83 0-1.5 0.67-1.5 1.5v21.002c0 0.27 0.091 0.508 0.214 0.727 1.046 5.562 5.92 9.774 11.786 9.774h12c3.782 0 7.134-1.766 9.331-4.5h2.669c6.627 0 12-5.374 12-12.001 0-6.628-5.373-12.002-12-12.002zM36 37.498v-12.002c3.313 0 6 2.686 6 6.002 0 3.313-2.687 6-6 6zM7.797 12.756c-0.223 0.405-0.198 0.739 0.228 0.739 0.423 0 1.004-0.336 1.149-0.736 1.489-3.884-6.333-7.041-1.607-11.83 0.485-0.497 0.681-0.925 0.252-0.928-0.431-0.005-1.314 0.405-1.779 0.888-4.554 4.679 3.875 7.967 1.757 11.868zM13.462 12.774c-0.056 0.387 0.182 0.721 0.603 0.721 0.418 0 0.825-0.335 0.867-0.718 0.332-2.781-1.891-5.332-0.556-7.739 0.021-0.435-0.491-0.867-1.154-0.925-0.662-0.060-1.251 0.268-1.274 0.7-0.161 3.138 1.905 5.14 1.514 7.961zM20.103 13.495c0.419 0 0.75-0.335 0.83-0.705 0.76-3.594 6.972-4.701 2.289-11.119-0.501-0.663-1.39-1.272-1.821-1.278-0.432-0.008-0.47 0.585-0.183 1.241 4.66 4.398 0.186 7.554-1.796 11.157-0.066 0.37 0.264 0.705 0.681 0.705zM26.143 13.495c0.42 0 0.702-0.337 0.824-0.732 1.14-3.815 14.008-6.28 3.188-11.53-1.128-0.534-2.592-0.981-2.912-0.963-0.325 0.023 0.441 0.576 1.404 1.181 8.845 5.798 0.603 4.048-3.178 11.325-0.123 0.383 0.256 0.72 0.675 0.72z" fill="#000000"></path>
</svg>
