<?xml version="1.0" encoding="utf-8"?>
<!-- Generated by IcoMoon.io -->
<!DOCTYPE svg PUBLIC "-//W3C//DTD SVG 1.1//EN" "http://www.w3.org/Graphics/SVG/1.1/DTD/svg11.dtd">
<svg version="1.1" xmlns="http://www.w3.org/2000/svg" xmlns:xlink="http://www.w3.org/1999/xlink" width="48" height="48" viewBox="0 0 48 48">
<path d="M40.485 27.922c3.234 2.41 6.006 4.617 6.006 4.617l-3.947 6.921-7.133-3.148-6.609 3.865c-0.447 4.075-0.857 7.822-0.857 7.822h-7.893l-0.876-7.846-6.513-3.874-7.211 3.183-3.945-6.921c0 0 2.726-2.196 5.952-4.599v-7.889l-5.952-4.59 3.945-6.923 7.038 3.132 6.987-3.79 0.575-7.883h7.893l0.572 7.849 6.891 3.867 7.137-3.177 3.947 6.922-6.006 4.607v7.854zM24 18c-3.313 0-6 2.687-6 6s2.687 6 6 6 6-2.687 6-6-2.687-6-6-6z" fill="#000000"></path>
</svg>
