<?xml version="1.0" encoding="utf-8"?>
<!-- Generated by IcoMoon.io -->
<!DOCTYPE svg PUBLIC "-//W3C//DTD SVG 1.1//EN" "http://www.w3.org/Graphics/SVG/1.1/DTD/svg11.dtd">
<svg version="1.1" xmlns="http://www.w3.org/2000/svg" xmlns:xlink="http://www.w3.org/1999/xlink" width="48" height="48" viewBox="0 0 48 48">
<path d="M24 41.954c-0.974 0-2.398-1.095-3.343-1.196-2.696 2.261-5.504 4.982-9.321 6.396-1.666 0.707-3.097 1.116-3.47 0.671-0.5-0.581-1.254-1.386-1.387-1.602 0.007-0.321 0.396-0.068 0.819-0.523 2.304-0.969 3.792-3.469 4.792-6.526-7.216-3.617-12.090-10.401-12.090-18.192 0-11.582 10.746-20.972 24-20.972s24 9.389 24 20.972-10.746 20.973-24 20.973z" fill="#000000"></path>
</svg>
