<?xml version="1.0" encoding="utf-8"?>
<!-- Generated by IcoMoon.io -->
<!DOCTYPE svg PUBLIC "-//W3C//DTD SVG 1.1//EN" "http://www.w3.org/Graphics/SVG/1.1/DTD/svg11.dtd">
<svg version="1.1" xmlns="http://www.w3.org/2000/svg" xmlns:xlink="http://www.w3.org/1999/xlink" width="48" height="48" viewBox="0 0 48 48">
<path d="M13.716 34.48l14.76-6.048 6.048-14.902-14.901 5.909-5.907 15.042zM24.044 21.044c1.656 0 3 1.344 3 3s-1.344 3-3 3-3-1.344-3-3 1.344-3 3-3zM24 0c-13.255 0-24 10.745-24 24s10.745 24 24 24 24-10.745 24-24-10.745-24-24-24zM24.168 42.032c-9.971 0-18.053-8.082-18.053-18.051s8.082-18.052 18.053-18.052c9.969 0 18.051 8.084 18.051 18.054s-8.081 18.050-18.051 18.050z" fill="#000000"></path>
</svg>
