<?xml version="1.0" encoding="utf-8"?>
<!-- Generated by IcoMoon.io -->
<!DOCTYPE svg PUBLIC "-//W3C//DTD SVG 1.1//EN" "http://www.w3.org/Graphics/SVG/1.1/DTD/svg11.dtd">
<svg version="1.1" xmlns="http://www.w3.org/2000/svg" xmlns:xlink="http://www.w3.org/1999/xlink" width="48" height="48" viewBox="0 0 48 48">
<path d="M46.281 42.021h-44.563c-0.947 0-1.716 0.744-1.716 1.663v2.656c0 0.919 0.769 1.664 1.716 1.664h44.565c0.95 0 1.718-0.744 1.718-1.664v-2.656c-0.002-0.919-0.77-1.664-1.719-1.664zM31.998 17.977h-16.029l-3.989 8.982h24.008zM26.614 1.607c0 0-0.315-1.611-2.489-1.611s-2.514 1.667-2.514 1.667l-4.353 13.307h13.731l-4.375-13.362zM37.653 29.965h-27.055l-4.165 10.535h35.388z" fill="#000000"></path>
</svg>
