<?xml version="1.0" encoding="utf-8"?>
<!-- Generated by IcoMoon.io -->
<!DOCTYPE svg PUBLIC "-//W3C//DTD SVG 1.1//EN" "http://www.w3.org/Graphics/SVG/1.1/DTD/svg11.dtd">
<svg version="1.1" xmlns="http://www.w3.org/2000/svg" xmlns:xlink="http://www.w3.org/1999/xlink" width="48" height="48" viewBox="0 0 48 48">
<path d="M46.5 6h-45c-0.828 0-1.5 0.672-1.5 1.5v33c0 0.83 0.672 1.5 1.5 1.5h45c0.83 0 1.5-0.67 1.5-1.5v-33c0-0.828-0.67-1.5-1.5-1.5zM45 37.5c0 0.83-0.67 1.5-1.5 1.5h-39c-0.828 0-1.5-0.67-1.5-1.5v-27c0-0.828 0.672-1.5 1.5-1.5h39c0.83 0 1.5 0.672 1.5 1.5v27zM14.247 18.212l-5.783-5.784c-0.562-0.563-1.474-0.563-2.037 0s-0.563 1.475 0 2.037l5.037 5.035-5.037 5.037c-0.563 0.563-0.563 1.473 0 2.035s1.474 0.563 2.037 0l5.783-5.782c0.114-0.063 0.229-0.12 0.325-0.216 0.295-0.295 0.428-0.687 0.411-1.074 0.015-0.387-0.115-0.779-0.411-1.072-0.096-0.096-0.211-0.153-0.325-0.216zM28.5 24h-9c-0.828 0-1.5 0.672-1.5 1.5 0 0.83 0.672 1.5 1.5 1.5h9c0.83 0 1.5-0.67 1.5-1.5 0-0.828-0.67-1.5-1.5-1.5z" fill="#000000"></path>
</svg>
