<?xml version="1.0" encoding="utf-8"?>
<!-- Generated by IcoMoon.io -->
<!DOCTYPE svg PUBLIC "-//W3C//DTD SVG 1.1//EN" "http://www.w3.org/Graphics/SVG/1.1/DTD/svg11.dtd">
<svg version="1.1" xmlns="http://www.w3.org/2000/svg" xmlns:xlink="http://www.w3.org/1999/xlink" width="48" height="48" viewBox="0 0 48 48">
<path d="M35.997 14.087l8.575-8.575c0.576-0.575 0.576-1.508 0-2.084-0.574-0.575-1.506-0.575-2.082 0l-8.577 8.577h-21.917v-4.5c0-0.829-0.672-1.5-1.5-1.5h-3c-0.828 0-1.5 0.671-1.5 1.5v4.5h-4.5c-0.828 0-1.5 0.67-1.5 1.5v3c0 0.83 0.672 1.5 1.5 1.5h4.5v22.5c0 0.83 0.672 1.5 1.5 1.5h22.5v4.5c0 0.83 0.671 1.5 1.5 1.5h3c0.829 0 1.5-0.67 1.5-1.5v-4.5h4.5c0.829 0 1.5-0.67 1.5-1.5v-3c0-0.83-0.671-1.5-1.5-1.5h-4.5v-21.918zM27.914 18.003l-15.917 15.918v-15.918h15.917zM14.082 36.003l15.915-15.917v15.917h-15.915z" fill="#000000"></path>
</svg>
