<?xml version="1.0" encoding="utf-8"?>
<!-- Generated by IcoMoon.io -->
<!DOCTYPE svg PUBLIC "-//W3C//DTD SVG 1.1//EN" "http://www.w3.org/Graphics/SVG/1.1/DTD/svg11.dtd">
<svg version="1.1" xmlns="http://www.w3.org/2000/svg" xmlns:xlink="http://www.w3.org/1999/xlink" width="48" height="48" viewBox="0 0 48 48">
<path d="M24.021 33.123c-0.056 0-0.111 0-0.167 0-13.173 0-23.828-3.2-23.831-5.657l-0.024-9.649c0-0.015 0.006-0.029 0.006-0.040 2.169 1.029 4.718 1.503 6.241 1.787 4.736 0.88 10.99 1.366 17.607 1.366h0.167c6.658-0.008 12.95-0.505 17.719-1.401 1.526-0.287 4.065-0.764 6.236-1.787 0 0.005 0 0.014 0 0.014l0.025 9.65c0.003 2.467-10.729 5.7-23.98 5.718zM24.021 18.024c-0.056 0-0.111 0-0.167 0-13.173 0-23.828-2.919-23.831-5.376l-0.024-8.151c-0.005-2.466 10.734-4.48 23.985-4.497 0.059 0 0.114 0 0.172 0 13.168 0 23.816 1.98 23.818 4.437l0.026 8.151c0.003 2.466-10.729 5.418-23.98 5.436zM23.853 36.030h0.166c6.659-0.009 12.951-0.786 17.72-1.681 1.525-0.286 4.065-0.764 6.237-1.788l0.024 10.944c0.003 2.468-10.73 4.48-23.981 4.497-0.057 0-0.111 0-0.169 0-13.17 0-23.825-1.98-23.828-4.435l-0.022-10.973c2.169 1.031 4.719 1.505 6.246 1.788 4.736 0.882 10.989 1.648 17.607 1.648z" fill="#000000"></path>
</svg>
