<?xml version="1.0" encoding="utf-8"?>
<!-- Generated by IcoMoon.io -->
<!DOCTYPE svg PUBLIC "-//W3C//DTD SVG 1.1//EN" "http://www.w3.org/Graphics/SVG/1.1/DTD/svg11.dtd">
<svg version="1.1" xmlns="http://www.w3.org/2000/svg" xmlns:xlink="http://www.w3.org/1999/xlink" width="48" height="48" viewBox="0 0 48 48">
<path d="M42 33h-3c-3.313 0-6-2.687-6-6s2.687-6 6-6h3c3.313 0 6 2.687 6 6s-2.687 6-6 6zM42 24h-3c-1.656 0-3 1.344-3 3s1.344 3 3 3h3c1.656 0 3-1.344 3-3s-1.344-3-3-3zM30 27c0 0.129 0.032 0.247 0.037 0.375-0.006 0.126-0.037 0.246-0.037 0.375 0 1.578 0.564 3.009 1.47 4.158 1.607 2.46 4.374 4.092 7.53 4.092h6v6c0 1.656-1.344 3-3 3h-39c-1.656 0-3-1.344-3-3v-33.75c0-2.359 1.567-4.333 3.713-4.994 0.231-0.149 0.492-0.257 0.787-0.257h39c0.83 0 1.5 0.671 1.5 1.5s-0.67 1.5-1.5 1.5h-39c-0.829 0-1.5 0.671-1.5 1.5v1.5h39c1.656 0 3 1.344 3 3v6h-6c-4.969 0-9 4.030-9 9zM3.75 42h37.5c0.414 0 0.75-0.336 0.75-0.75s-0.336-0.75-0.75-0.75h-37.5c-0.414 0-0.75 0.336-0.75 0.75s0.336 0.75 0.75 0.75zM42 12.75c0-0.414-0.336-0.75-0.75-0.75h-37.5c-0.414 0-0.75 0.336-0.75 0.75s0.336 0.75 0.75 0.75h37.5c0.414 0 0.75-0.336 0.75-0.75z" fill="#000000"></path>
</svg>
