<?xml version="1.0" encoding="utf-8"?>
<!-- Generated by IcoMoon.io -->
<!DOCTYPE svg PUBLIC "-//W3C//DTD SVG 1.1//EN" "http://www.w3.org/Graphics/SVG/1.1/DTD/svg11.dtd">
<svg version="1.1" xmlns="http://www.w3.org/2000/svg" xmlns:xlink="http://www.w3.org/1999/xlink" width="48" height="48" viewBox="0 0 48 48">
<path d="M17.636 17.637c-3.515 3.514-3.515 9.213 0 12.727s9.213 3.514 12.727 0c3.516-3.516 3.516-9.215 0-12.727-3.515-3.516-9.212-3.516-12.727 0zM26.121 26.121c-1.171 1.171-3.071 1.171-4.242 0s-1.172-3.071 0-4.242 3.070-1.172 4.242 0 1.171 3.070 0 4.242zM40.969 7.030c-9.372-9.373-24.569-9.373-33.941 0-9.373 9.372-9.373 24.569 0 33.941 9.372 9.373 24.569 9.373 33.941 0 9.373-9.373 9.373-24.569 0-33.941zM32.484 32.486c-4.684 4.686-12.283 4.686-16.969 0-4.688-4.688-4.688-12.284 0-16.971 4.686-4.686 12.285-4.686 16.969 0 4.688 4.687 4.688 12.284 0 16.971zM33.544 14.454l5.304-7.423 2.121 2.121-7.425 5.303z" fill="#000000"></path>
</svg>
