<?xml version="1.0" encoding="utf-8"?>
<!-- Generated by IcoMoon.io -->
<!DOCTYPE svg PUBLIC "-//W3C//DTD SVG 1.1//EN" "http://www.w3.org/Graphics/SVG/1.1/DTD/svg11.dtd">
<svg version="1.1" xmlns="http://www.w3.org/2000/svg" xmlns:xlink="http://www.w3.org/1999/xlink" width="48" height="48" viewBox="0 0 48 48">
<path d="M47.514 19.169c-0.316-1.541-0.787-3.060-1.401-4.511-0.6-1.424-1.346-2.794-2.214-4.077-0.858-1.27-1.844-2.464-2.928-3.549-1.088-1.088-2.282-2.073-3.551-2.929-1.282-0.869-2.657-1.613-4.078-2.214-1.45-0.611-2.968-1.086-4.511-1.4-1.579-0.324-3.206-0.489-4.832-0.489s-3.252 0.165-4.834 0.489c-1.54 0.314-3.058 0.787-4.509 1.4-1.422 0.602-2.794 1.346-4.077 2.214-1.27 0.856-2.466 1.842-3.55 2.929-1.086 1.084-2.070 2.279-2.928 3.549-0.868 1.281-1.612 2.652-2.214 4.076-0.614 1.451-1.085 2.97-1.401 4.511-0.323 1.579-0.486 3.207-0.486 4.83 0 1.631 0.164 3.258 0.486 4.838 0.316 1.539 0.786 3.059 1.401 4.507 0.602 1.422 1.346 2.797 2.214 4.080 0.858 1.271 1.844 2.463 2.928 3.549 1.086 1.084 2.281 2.069 3.55 2.926 1.283 0.867 2.657 1.612 4.078 2.214 1.451 0.615 2.969 1.083 4.509 1.401 1.581 0.324 3.207 0.487 4.833 0.487s3.252-0.163 4.833-0.489c1.542-0.318 3.060-0.784 4.511-1.401 1.422-0.6 2.794-1.346 4.078-2.214 1.271-0.858 2.465-1.843 3.551-2.927 1.084-1.087 2.070-2.28 2.928-3.549 0.867-1.281 1.612-2.657 2.214-4.080 0.612-1.449 1.084-2.968 1.401-4.507 0.321-1.578 0.484-3.206 0.484-4.836 0-1.623-0.163-3.25-0.486-4.828zM44.49 23.794c-0.295-0.064-7.233-1.555-14.277-0.67-0.144-0.351-0.29-0.704-0.443-1.058-0.425-1.005-0.885-1.998-1.362-2.975 8.094-3.303 11.382-8.055 11.419-8.112 2.877 3.492 4.616 7.952 4.662 12.815zM37.537 8.619c-0.049 0.081-2.97 4.523-10.707 7.421-3.504-6.438-7.353-11.55-7.662-11.957 1.549-0.377 3.168-0.579 4.831-0.579 5.19 0 9.925 1.933 13.537 5.115zM19.092 4.099c-0.002 0.003-0.005 0.005-0.005 0.005s-0.024 0.006-0.061 0.013c0.019-0.006 0.043-0.010 0.066-0.018zM15.255 5.463c0.273 0.366 4.064 5.503 7.611 11.809-9.841 2.614-18.383 2.513-18.924 2.502 1.332-6.348 5.596-11.61 11.313-14.312zM3.504 23.997c0-0.218 0.009-0.431 0.018-0.646 0.36 0.008 10.488 0.237 21.041-2.921 0.59 1.149 1.151 2.318 1.664 3.485-0.273 0.076-0.539 0.156-0.809 0.244-11.061 3.574-16.671 13.527-16.671 13.527s0.008 0.006 0.009 0.009c-3.264-3.63-5.252-8.43-5.252-13.698zM24 44.495c-4.96 0-9.51-1.764-13.056-4.697 0.271 0.219 0.459 0.358 0.459 0.358s3.929-8.57 16.087-12.803c0.044-0.018 0.090-0.030 0.135-0.043 2.884 7.493 4.075 13.771 4.379 15.561-2.461 1.044-5.165 1.623-8.004 1.623zM35.454 40.999c-0.21-1.239-1.301-7.254-3.989-14.642 6.616-1.057 12.349 0.758 12.774 0.897-0.914 5.709-4.184 10.637-8.785 13.745z" fill="#000000"></path>
</svg>
