<?xml version="1.0" encoding="utf-8"?>
<!-- Generated by IcoMoon.io -->
<!DOCTYPE svg PUBLIC "-//W3C//DTD SVG 1.1//EN" "http://www.w3.org/Graphics/SVG/1.1/DTD/svg11.dtd">
<svg version="1.1" xmlns="http://www.w3.org/2000/svg" xmlns:xlink="http://www.w3.org/1999/xlink" width="48" height="48" viewBox="0 0 48 48">
<path d="M24.057 0c0 0-15.057 17.881-15.057 33.035 0 15.154 14.943 14.965 14.943 14.965s15.057-0.188 15.057-15.059-14.943-32.941-14.943-32.941zM24 42c-4.97 0-9-4.031-9-9 0-3.181 1.671-5.945 4.166-7.539-0.715 0.956-1.165 2.295-1.165 3.789 0 0.311 0.028 0.611 0.064 0.906-0.014 0.201-0.064 0.39-0.064 0.594 0 0.386 0.063 0.755 0.114 1.125-0.071 0.364-0.114 0.739-0.114 1.125 0 3.313 2.686 6 6 6 0.386 0 0.761-0.044 1.125-0.112 0.372 0.051 0.739 0.112 1.125 0.112 0.204 0 0.393-0.050 0.593-0.066 0.295 0.038 0.597 0.066 0.907 0.066 1.494 0 2.834-0.45 3.789-1.164-1.595 2.493-4.358 4.164-7.539 4.164z" fill="#000000"></path>
</svg>
