<?xml version="1.0" encoding="utf-8"?>
<!-- Generated by IcoMoon.io -->
<!DOCTYPE svg PUBLIC "-//W3C//DTD SVG 1.1//EN" "http://www.w3.org/Graphics/SVG/1.1/DTD/svg11.dtd">
<svg version="1.1" xmlns="http://www.w3.org/2000/svg" xmlns:xlink="http://www.w3.org/1999/xlink" width="48" height="48" viewBox="0 0 48 48">
<path d="M24 48c-13.254 0-24-10.746-24-24s10.746-24 24-24c13.254 0 24 10.746 24 24s-10.746 24-24 24zM43.452 21.989c0.039-0.020 0.060-0.053 0.075-0.105 0.032 0.166 0.108 0.313 0.231 0.421 0.003 0.015-0.005 0.012 0.003 0.033 0.012 0 0.021-0.009 0.032-0.009 0.126 0.102 0.282 0.171 0.457 0.171 0.27 0 0.495-0.15 0.627-0.361 0.009 0.010 0.024 0.024 0.032 0.036-0.002-0.024-0.005-0.048-0.008-0.072 0.059-0.107 0.099-0.223 0.099-0.352 0-0.414-0.338-0.75-0.75-0.75-0.264 0-0.483 0.144-0.618 0.348-0.006-0.005 0-0.023-0.017-0.017 0.020-0.057-0.033-0.202-0.116-0.358v0.777c0 0.085-0.024 0.162-0.048 0.238zM8.988 21.764c0-0.227-0.516-0.612-0.649-0.612 0-0.040-0.21-0.503-0.289-0.503 0-0.156-0.548-0.857-0.635-0.55-0.057 0.198 0.418 0.465 0.418 0.694 0.089 0 0.461 0.705 0.534 0.828 0.813 1.374-0.608 0.435-0.608-0.147-0.182-0.090-0.468-0.782-0.468-0.97-0.106-0.085-0.421-0.753-0.396-0.753 0-0.438-0.241-0.648-0.721-0.648-0.022-0.043-0.426-0.61-0.434-0.61 0-0.18-0.324-0.738-0.504-0.827 0-0.373-0.192-0.834-0.107-1.221 0-0.407-0.021-0.867-0.159-1.284-1.252 2.689-1.971 5.678-1.971 8.839 0 9.062 5.751 16.761 13.794 19.706 0.009-0.744 0.064-1.635 0.234-1.635 0-0.111 0.095-0.576 0.18-0.576 0-0.285 0.035-0.629 0-0.97-0.106-0.215 0.141-0.489 0.216-0.827 0.415-0.208 0.121-2.3 0.435-2.3 0-1.045 0.234-1.654 0.070-2.623 0.080 0-0.472-0.587-0.468-0.576-0.529 0-0.9-0.849-0.9-1.221-0.051-0.164-0.182-0.408-0.182-0.611 0.122 0-0.758-1.284-0.758-1.258-0.465-0.258 0.025-0.618 0.072-1.041-0.403-0.133 0.005-1.223 0.18-1.223 0.018-0.138 0.090-0.233 0.218-0.286 0.090 0.358 0.508-0.178 0.18-0.178 0-0.237-0.027-0.744 0-0.862 0-0.366-0.324-1.083-0.576-0.324-0.27-0.133-0.951-0.109-1.009-0.538 0.042-0.211-0.389-0.643-0.54-0.718 0.141-0.369-0.73-0.863-1.045-0.863 0-0.079-0.167-0.043-0.216-0.144-0.321 0-0.395-0.432-0.758-0.432-0.418 0-0.84-0.286-1.226-0.286-0.129-0.256-0.728-0.156-0.865-0.432-0.314 0-0.437-0.594-0.446-0.813-0.014-0.27-0.228-1.203-0.603-1.203zM39.372 9.726c-0.003 0.009 0.003 0.003-0.012 0.033 0.023 0 0.050 0.026 0.075 0.036-0.023-0.022-0.042-0.045-0.063-0.069zM39.823 10.223c0.053 0.102 0.092 0.197 0.080 0.255 0.053 0.002 0.078-0.027 0.12-0.038-0.064-0.074-0.135-0.143-0.2-0.217zM41.127 17.056c0.024-0.648-0.54-0.54-0.718-0.9-0.186 0-0.254-0.144-0.506-0.144-0.163-0.056-0.292-0.017-0.387 0.117-0.386 0.147-0.153-0.188-0.443-0.188 0.014-0.37-0.133-0.473-0.541-0.432-0.234 0.528-0.594 0.845-0.54 1.438 0.172 0.039 0.142 0.078 0.108 0.25 0.23 0.012 1.622-0.072 1.622-0.216 0.048 0 0.289 0.497 0.289 0.072 0.194 0 0.296 0.454 0.758 0.322 0 0.093 0.771-0.321 0.358-0.321zM41.2 24.711c0.027-0.132-0.066-0.19-0.144-0.324 0.206 0-0.65-1.586-0.65-1.833-0.13-0.064-0.297-0.518-0.327-0.683-0.175-0.117-0.357-0.501-0.432-0.718-0.178-0.118-0.613-0.649-0.684-0.898 0.258 0.029 0.648 0.081 0.648-0.252-0.174 0-0.2-0.215-0.034-0.215-0.054-0.221 0.117-0.38 0.154-0.552 0.045-0.209 0.133-0.53 0.133-0.779-0.248 0-0.307 0.042-0.504 0.108 0 0.145-0.44-0.036-0.504-0.036-0.094-0.189-0.78 0.246-0.972-0.144-0.31-0.28-0.226-0.497-0.327-0.893-0.051-0.201-0.325-0.213-0.492-0.246-0.469-0.091-0.13 0.559-0.156 0.708 0.288 0-0.181 0.357-0.181 0.538-0.486-0.105-0.324-0.646-0.611-0.79-0.085-0.144-0.018-0.252-0.217-0.252 0-0.192 0.102-0.54-0.108-0.611 0-0.093-0.408-0.13-0.468-0.252-0.258 0-0.858-0.975-1.042-0.646-0.116 0.21 0.098 0.261 0.141 0.432 0.373-0.073 0.338 0.615 0.794 0.538 0 0.096 0.012 0.194 0.035 0.288 0.338-0.080 0.299 0.25 0.468 0.25-0.123 0.163-0.513-0.261-0.407 0.096 0.062 0.207 0.027 0.384-0.242 0.587 0-0.224-0.018-0.827-0.252-0.827-0.159-0.318-0.631-0.241-0.831-0.538-0.162 0-0.225-0.504-0.504-0.538-0.053 0.073-0.249 0.144-0.325 0.144-0.151 0.305-1.008 0.032-1.008 0.072-0.014 0.003-0.48 1.143-0.507 1.293-0.053 0.322-0.312 0.328-0.39 0.634-0.039 0.153-0.979 0.081-0.979 0.194-0.407-0.135-0.758-0.42-0.758-0.863-0.033 0 0.076-1.13 0.146-1.294 0.082 0.023 0.099 0.051 0.145 0.144 0.249-0.093 0.83 0.061 0.83-0.216 0.242 0.006 0.313 0.102 0.216 0.288 0.225 0.042 0.613 0.099 0.613-0.216-0.132 0-0.146-0.012-0.146-0.144 0.432-0.448-0.324-0.854-0.324-1.077-0.153-0.051-0.465-0.383-0.243-0.258 0.188 0.104 0.873 0.318 0.603-0.138 0.018-0.006 0.030-0.018 0.034-0.034 0.076 0.054 0.399 0.385 0.399 0.072 0.088 0 0.43-0.216 0.144-0.216 0.027-0.162 0.021-0.297 0.034-0.396 0.457 0.246 0.203-0.168 0.434-0.322 0 0.299 0.246-0.144 0.396-0.144 0.178-0.265 0.587-0.060 0.686-0.36-0.221-0.072-0.18-0.624-0.18-0.825 0.265 0.043 0.561-0.359 0.601-0.082 0.015 0.106 0.029 0.4 0.083 0.441 0.395 0.207 0.29-0.119 0.29-0.322-0.132 0-0.308-0.462-0.326-0.684-0.108 0.015-0.282 0.060-0.325 0.142-0.393 0-0.66-0.142-0.972-0.142-0.024-0.048-0.399-0.468-0.36-0.468-0.219-0.377 0.219-0.267 0.288-0.285 0-0.357 1.486-0.294 1.551-0.864-0.489 0 0.504-0.828 0.504-0.825 0.331-0.284 0.507-0.528 0.919-0.559 0.174-0.012 2.109-0.546 2.109-0.305 0.078 0.003 0.336 0.006 0.603 0.015-3.746-3.483-8.751-5.628-14.27-5.628-5.345 0-10.209 2.013-13.915 5.302 0.033 0.075 0.058 0.147 0.057 0.198 0.197-0.014 0.479-0.139 0.542 0.11-0.098-0.002-0.195-0.014-0.288-0.038 0.069 0.557-0.243 0.216-0.504 0.216 0-0.014-0.115-0.060-0.239-0.093-0.079 0.075-0.163 0.146-0.243 0.22 0.009 0.024-0.005 0.026 0.010 0.053 0.084 0 0.040 0.13 0.281 0.21 0.277 0.094 0.582 0.147 0.874 0.193 0.237 0.037 0.373-0.043 0.576-0.043 0-0.030 0.495-0.25 0.146-0.25 0.048-0.198-0.040-0.248-0.253-0.251 0.018-0.21 0.518-0.072 0.721-0.072 0.156-0.262 0.005-0.231 0.143-0.469 0.165-0.293 0.362-0.039 0.47-0.32 0.164 0.060 0.309 0.148 0.361 0.356 0.13 0.108 0.793 1.086 0.793 0.395 0.237 0.079 0.355 0.523 0.36 0.756 0.431-0.063 0.468-0.385 0.468-0.72 0.099 0-0.036-0.161-0.036-0.216 0.16-0.058 0.361 0.153 0.361-0.070 0.069 0 0.072 0.069 0.072 0.144 0.223 0.043 0.367-0.025 0.504 0.022 0.095 0.033 0.046 0.524 0.003 0.696-0.054 0.219-0.473 0.222-0.473 0.324-0.474 0.354 0.559 0.539 0.722 0.755-0.097 0-0.468-0.048-0.468-0.070-0.234 0-0.801 0.248-1.010 0.070 0.291 0 0.389-0.349 0.434-0.682-0.269-0.101-0.585 0.064-0.66 0.332-0.126 0.441-0.418-0.018-0.566 0.279-0.057 0.018-0.578 0.259-0.578 0.178-0.585 0.082-0.432 0.579-0.432 1.114 0.232 0.139 0.705 0.537 0.684 0.754 0.525 0.093 0.717 0.149 1.189 0.216 0.039 0.076 0.195 0.149 0.29 0.178 0 0.309 0.28 0.254 0.54 0.254 0-0.394 0.459 0.329 0.504 0.466-0.063 0 0.108 0.403 0.144 0.54-0.072-0.025-0.095 0-0.072 0.072 0.228 0.084 0.59 0.060 0.649-0.18-0.219 0-0.145-0.25-0.145-0.396-0.225-0.15-0.191-0.439 0.036-0.503 0 0.204 0.742-0.128 0.324-0.287 0.102-0.229 0.171-0.582 0.005-0.781-0.107-0.126-0.24 0-0.293-0.189 0.284-0.070 0.075-0.611 0.072-0.863 0.090-0.034 0.324 0.057 0.324 0 0.277 0 0.739 0.351 0.901-0.074 0.463 0.212 0.095 0.413 0.577 0.252 0 0.114 0.544 0.647 0.614 0.647 0 0.025-0.014 0.18 0.107 0.18 0 0.116-0.072-0.066-0.072 0.142 0.068 0.008 0.434 0.073 0.434-0.070 0.232 0 0.396-0.285 0.396-0.502 0.146-0.095 0.401 0.79 0.576 0.79 0.129 0.201 0.542 0.494 0.542 0.682 0.087 0.088 0.178 0.064 0.178 0.324 0.11 0 0.325-0.431 0.325-0.036 0.102 0 0.399 0.219 0.434 0.394-0.26 0-0.014 0.252-0.147 0.252 0 0.249-0.556 0.051-0.683 0.036-0.172 0.773-1.213 0.217-1.843 0.417-0.332 0.105-0.972 0.836-1.007 1.2 0.402 0.005 0.579-0.348 0.938-0.468 0.293 0 0.35-0.177 0.614-0.25 0 0.073 0.072 0.034 0.072 0.108-0.513 0-0.201 0.332-0.051 0.573 0.093 0.15 0.2 0.222 0.318 0.268-0.049 0.087-0.090 0.174-0.121 0.271 0 0.002-0.002 0-0.002 0.002-0.098 0.033-0.288 0.104-0.326 0.18-0.581 0.064-0.294 0.025-0.255-0.114 0.021 0.050 0.23 0.005 0.221 0.006-0.035-0.174-0.087-0.15-0.036-0.25-0.315 0-0.468 0.144-0.721 0.144-0.042 0.085-0.262 0.288-0.36 0.288-0.073 0.222-0.24 0.626-0.433 0.755 0-0.058-0.513 0.323-0.468 0.323-0.114 0.184-0.239 0.178-0.29 0.466-0.034 0.018-0.18 0.5-0.18 0.575-0.224 0.148-0.306 0.755-0.686 0.755-0.232 0.462-0.649 0.4-0.649 1.006 0.141 0.144 0.195 0.782 0.239 0.986 0.054 0.254 0.138 0.518-0.201 0.523-0.024-0.037-0.261-0.396-0.217-0.396 0-0.149-0.182-0.624-0.288-0.773-0.143-0.199-0.407 0.032-0.614-0.056-0.088-0.177-0.687-0.216-0.9-0.216 0.034 0.133 0.132 0.175 0.144 0.324-0.177 0.072-0.279 0.153-0.462 0.128-0.313-0.044-0.276-0.288-0.621-0.254-0.552 0.056-0.938 0.513-0.938 1.061-0.062 0-0.062 1.078 0 1.078 0 0.305 0.252 0.525 0.252 0.755 0.244 0 0.519 0.539 0.757 0.539 0.027 0.191-0.12 0.22 0.288 0.218 0-0.021 0.222-0.14 0.252-0.288-0.282-0.069-0.001-0.432 0.18-0.503 0 0.256 0.36-0.085 0.36-0.108 0.040-0.016 0.398-0.144 0.398-0.144 0-0.291 0.271 0.029 0.072 0.144-0.195 0-0.18 0.324-0.288 0.324-0.046 0.231-0.138 0.432-0.192 0.657-0.069 0.277 0.156 0.306 0.084 0.566 0.287 0.054 0.576 0.002 0.866 0 0.002-0.051-0.009-0.101-0.036-0.144 0.418 0 0.036 0.791 0.289 0.791 0 0.299 0.144 0.531 0.144 0.718 0.195 0.129 0.312 0.302 0.252 0.539 0.24 0.032 0.756 0.093 0.756-0.216 0.364 0 0.39 0.247 0.363 0.503 0.726 0 0.271-0.718 0.575-0.718 0.029-0.119 0.078-0.139 0.148-0.062 0.149 0.080 0.261-0.148 0.38-0.22 0.038-0.026 0.169-0.102 0.194-0.102 0.102 0.062 0.111 0.044 0.156 0.112 0.198-0.002 0.398-0.112 0.567-0.229 0.26 0.032 0.176 0.59 0.662 0.624 0.195 0.014 0.646 0.068 0.814-0.048 0.042-0.029 0.197 0.098 0.213 0.151 0.162 0 0.15 0.141 0.219 0.138 0.017 0.032 0.040 0.043 0.073 0.034 0.021 0.061 0.15 0.079 0.217 0.251 0 0.156 0.324 0.183 0.324 0.287 0.232 0.117-0.080 0.148 0.277 0.256 0.197 0.062 0.378 0.16 0.59 0.176 0.067-0.256 0.287 0.034 0.398 0.034 0.057 0.117 0.087 0.029 0.143 0.144 0.335 0.279 0.114 0.171 0.252 0.468 0.16 0.105 0.212 0.471 0.255 0.682-0.129 0-0.038 0.494-0.038 0.54-0.156 0 0.399 0.296 0.399-0.073 0.228 0.037 0.378 0.286 0.54 0.286-0.095 0.218 0.252 0.381 0.252 0.037 0.342 0.034 0.251 0.544 0.218 0.718 0.253 0 0.327-0.141 0.543-0.168 0.234-0.149 0.495-0.257 0.791-0.257 0.829 0 1.5 0.671 1.5 1.5 0 0.747-0.556 1.34-1.272 1.454-0.096 0.109-0.183 0.204-0.189 0.204 0 0.072-0.016 0.789-0.037 0.789 0 0.144-0.11 0.935-0.216 0.935 0 0.406-0.265 0.48-0.36 0.862-0.219 0.162-0.811 0.432-0.903 0.611-0.169 0-0.295 0.144-0.468 0.144-0.024 0.050-0.392 0.396-0.326 0.396-0.027 0.255 0.020 0.855-0.119 1.023-0.093 0.111-0.227 0.099-0.168 0.273-0.203 0 0.012 0.144-0.308 0.144-0.201 0-0.559 0.287-0.57 0.53-0.014 0.297-0.093 0.511-0.348 0.693 0 0.102-0.468 0.132-0.468 0.396 0.044 0 0 0.489 0 0.538-0.139-0.004-0.482 0.135-0.54 0.251-0.471 0-0.414 0.048-0.72 0.252 0 0.063-0.044 0.286-0.108 0.286 0 0.364-0.259 0.033-0.47 0.218 0.082 0 0.188 0.358 0.144 0.358 0 0.316-0.197 0.343-0.396 0.576-0.095 0.063-0.184 0.324-0.252 0.324 0 0.213-0.107 0.407-0.107 0.61 0.045 0 0.003 0.092 0.034 0.177 0.101-0.028 0.104-0.142 0.144-0.142 0-0.18 0.287 0.107 0.108 0.107-0.149 0.225-0.309 0.23-0.398 0.54-0.090 0-0.168 0.087-0.234 0.189 1.767 0.482 3.621 0.764 5.544 0.764 7.386 0 13.869-3.822 17.613-9.59 0.023-0.531 0.105-1.038 0.164-1.214 0.147 0.108 0.256 0.311 0.36 0-0.259-0.051-0.197-0.141-0.108-0.358 0.099 0.060 0.298 0.133 0.46 0.123 0.050-0.093 0.088-0.192 0.138-0.285-0.147-0.114 0.055-0.41 0.126-0.266 0.037-0.072 0.071-0.147 0.105-0.219-0.017-0.005-0.012 0.006-0.036-0.002 0-0.13 0.024-0.114 0.109-0.18 0.002 0.014 0 0.014 0.003 0.026 1.309-2.741 2.066-5.796 2.066-9.036 0-0.107-0.015-0.209-0.017-0.315-0.039 0.147-0.113 0.306-0.216 0.342 0 0.094-1.072 0.561-1.008 0.755-0.189 0-0.852 0.189-0.974 0.43-0.133 0-0.672 0.191-0.722 0.288-0.669 0.002-0.541-0.789-0.864-0.789zM44.25 16.5h-0.796c-0.006-0.008-0.012-0.009-0.018-0.020-0.041 0-0.21-0.381-0.144-0.468 0.065 0 0.094 0.006 0.129 0.009-0.068-0.165-0.141-0.327-0.215-0.491-0.162 0.111-0.304 0.252-0.528 0.265 0 0.061-0.32 0.682 0 0.682 0 0.012 0.006 0.021 0.009 0.032-0.383 0.036-0.687 0.348-0.687 0.74 0 0.414 0.336 0.75 0.75 0.75h0.295c0.018 0.136 0.092 0.255 0.354 0.313 0.082 0.347 0.7 0.47 0.793 0.107-0.261 0-0.175-0.25-0.153-0.42h0.21c0.412 0 0.75-0.336 0.75-0.75s-0.338-0.75-0.75-0.75zM42.064 26.253c0.053 0.003 0.399-0.006 0.399-0.068 0.313 0 0.738-0.044 1.045-0.146 0 0.465-0.392 0.725-0.325 1.187-0.259 0-0.145 0.267-0.145 0.358-0.168 0.104-0.194 0.293-0.396 0.396 0 0.209-0.468 0.553-0.606 0.732-0.156 0.2-0.626 0.546-0.687 0.8 0.017-0.060-0.858 0.91-0.654 0.91 0 0.181-0.246 1.617 0.072 1.617 0 0.126 0.272 1.331 0.107 1.331 0 0.387-0.252 0.624-0.252 0.933-0.123 0.084-0.299 0.131-0.36 0.254-0.22 0-0.327 0.468-0.432 0.468 0 0.499-0.146 0.87-0.146 1.437 0.041 0-0.288 0.809-0.288 0.861-0.266 0.178-0.938 0.819-0.938 1.152 0 0-0.468 0.657-0.54 0.755-0.141 0-1.227 0.204-1.227 0.288-0.231 0-0.828 0.181-0.972-0.036 0-0.228-0.124-0.517-0.144-0.828-0.111 0-0.129-0.466-0.252-0.466 0-0.099-0.688-1.474-0.578-1.474 0-0.142-0.123-0.611-0.144-0.611 0-0.495-0.361-0.907-0.361-1.365-0.107 0-0.327-1.005-0.216-1.005 0-0.528 0.184-0.873 0.261-1.459 0.085-0.643-0.041-1.035-0.153-1.489-0.062 0-0.268-0.343-0.29-0.43-0.29-0.192-0.396-0.573-0.396-0.933 0.189-0.216 0.264-1.027 0.218-1.294-0.364-0.172-0.51-0.108-0.903-0.108-0.233-0.467-1.794-0.178-2.236-0.178 0 0.255-1.088-0.050-1.19-0.252-0.265 0-0.792-0.564-0.792-0.826-0.291-0.194-0.756-1.157-0.756-1.473-0.252-0.126-0.176-0.612-0.037-0.612 0.035-0.135-0.089-0.561-0.147-0.764-0.044-0.152 0.147-0.315 0.147-0.495 0-0.501 0.012-0.732 0.293-1.268 0.088-0.168 0.201-0.325 0.284-0.535 0.15-0.376 0.195-0.018 0.398-0.354 0.194-0.096 0.306-0.417 0.505-0.575 0.087-0.115 0.090-0.163 0-0.252 0.039 0 0.252-0.553 0.252-0.681 0.282-0.391 0.082-0.213 0.36-0.18 0.102-0.111 0.271-0.396 0.432-0.396 0.071-0.139 0.248-0.216 0.398-0.216 0 0.216 0.588-0.071 0.65-0.071 0.1-0.203 0.748-0.432 0.901-0.432 0-0.246 1.278 0.069 1.479 0.036 0-0.036 0-0.072 0-0.108 0.273 0.064 0.771 1.16 0.72 1.402 0.21 0 0.405-0.034 0.542 0 0 0.233 0.438 0.29 0.637 0.3 0.277 0.014 1.092-0.029 1.092-0.408 0.215 0 0.405 0.15 0.363 0.395 0.243 0.027 1.688 0.056 1.585 0.359 0.212 0 0.266 0.361 0.468 0.361-0.041 0.249 0.252 0.898 0.468 0.898 0 0.216 0.135 0.614 0.325 0.753 0.102 0.309 0.439 0.96 0.756 1.151-0.135 0.255 0.206 0.465 0.29 0.718-0.020 0 0.073 0.377 0.178 0.432 0 0.255 0.537 1.294 0.831 1.294 0.020 0.126-0.276 0.183 0.108 0.211zM34.278 18.206c0.056-0.215 0.181-0.048 0.299-0.009 0.277 0.090 0.181-0.005 0.387-0.098 0 0.585-0.336 0.141-0.686 0.107zM33.519 17.127c0.147 0 0.188 0.66-0.216 0.538 0-0.163-0.104-0.466 0.109-0.466 0.062 0.255 0.107 0.152 0.107-0.072zM33.34 16.697c0.167 0.072 0.24 0.048 0.216-0.072 0.219 0.072-0.029 0.228-0.072 0.396-0.112-0.111-0.078-0.15-0.144-0.324zM29.481 13.497c-0.354-0.091 0.364-0.197 0.396-0.287-0.12 0-0.203-0.124-0.156-0.229 0.054-0.125 0.142 0.148 0.265 0.087 0.146-0.015 0.432-0.232 0.285 0.188-0.15 0.426-0.287 0.738-0.826 0.745-0.194-0.195-0.007-0.297 0.036-0.504zM30.816 12.024c0.291 0 0.036 0.216-0.029 0.216 0.050 0.019-0.009 0.193-0.009 0.251 0.27-0.003 0.275-0.168 0.468-0.216-0.041 0.241-0.311 0.288-0.046 0.495 0.14 0.11 0.282 0.239 0.226 0.405 0.343 0 0.395 0.33 0.324 0.718 0.19 0 0.181 0.009 0.181-0.181 0.185 0.051 0.171 0.217 0 0.217-0.171 0.338-0.619 0.322-0.938 0.322-0.003-0.261-0.052-0.277-0.294-0.204-0.33 0.101-0.072-0.263-0.066-0.443 0.036 0 0.748 0.033 0.324-0.108-0.023-0.387-0.11-0.503-0.468-0.503 0-0.264-0.093-0.245-0.137-0.534-0.061-0.428 0.334 0.030 0.462-0.437zM30.706 14.36c0 0.088-0.18 0.159-0.216 0.034 0.034 0.012 0.048 0 0.034-0.034 0.061 0 0.123 0 0.181 0zM27.75 10.5h-1.5c-0.414 0-0.75-0.336-0.75-0.75s0.336-0.75 0.75-0.75h1.5c0.414 0 0.75 0.336 0.75 0.75s-0.336 0.75-0.75 0.75zM19.011 23.775c0.084 0 0.181 0.033 0.181 0.108-0.11 0-0.25 0.104-0.181-0.108zM17.643 23.848c-0.060 0.114-0.546 0.095-0.614-0.037 0.18 0 0.319 0.073 0.504 0 0-0.099-0.082-0.178-0.144-0.287 0.197 0 0.417 0.15 0.686 0.144 0-0.167-0.074 0.036 0-0.18 0.112 0.029 0.384 0.287 0.396 0.395-0.395-0.042-0.413-0.035-0.828-0.035zM16.056 22.986c-0.184 0-0.54-0.16-0.649-0.324 0.178 0.008 0.355 0.081 0.468-0.108 0.457 0.047 0.498 0.361 0.866 0.361 0.069 0.121 0.462 0.401 0.082 0.437-0.287 0.027-0.646-0.129-0.766-0.366zM16.344 23.992c-0.134 0-0.354 0.058-0.252-0.218 0.177 0.024 0.261 0.098 0.252 0.218zM16.596 23.956c-0.072 0.012-0.144 0.024-0.216 0.036 0.021-0.167 0.178-0.352 0.216-0.036zM17.929 25.536c-0.028 0.101-0.024 0.107-0.142 0.107 0.012-0.047 0.023-0.093 0.034-0.142 0.038 0.012 0.072 0.024 0.108 0.036zM14.685 22.554c0.034 0.012 0.072 0.026 0.108 0.036 0.046 0.178 0.144 0.090 0.252 0.036 0 0.208-0.483 0.268-0.36-0.072z" fill="#000000"></path>
</svg>
