<?xml version="1.0" encoding="utf-8"?>
<!-- Generated by IcoMoon.io -->
<!DOCTYPE svg PUBLIC "-//W3C//DTD SVG 1.1//EN" "http://www.w3.org/Graphics/SVG/1.1/DTD/svg11.dtd">
<svg version="1.1" xmlns="http://www.w3.org/2000/svg" xmlns:xlink="http://www.w3.org/1999/xlink" width="48" height="48" viewBox="0 0 48 48">
<path d="M43.5 6h-39c-2.486 0-4.5 2.014-4.5 4.5v27c0 2.484 2.014 4.5 4.5 4.5h39c2.486 0 4.5-2.016 4.5-4.5v-27c0-2.486-2.014-4.5-4.5-4.5zM4.112 38.985l-1.096-1.098 12.373-12.372 1.096 1.098-12.373 12.372zM43.889 38.985l-12.374-12.372 1.097-1.098 12.373 12.372-1.096 1.098zM25.5 28.987v1.013h-3v-1.013l-19.495-18.075 1.908-1.908 19.087 17.697 19.088-17.697 1.908 1.908-19.495 18.075z" fill="#000000"></path>
</svg>
