<?xml version="1.0" encoding="utf-8"?>
<!-- Generated by IcoMoon.io -->
<!DOCTYPE svg PUBLIC "-//W3C//DTD SVG 1.1//EN" "http://www.w3.org/Graphics/SVG/1.1/DTD/svg11.dtd">
<svg version="1.1" xmlns="http://www.w3.org/2000/svg" xmlns:xlink="http://www.w3.org/1999/xlink" width="48" height="48" viewBox="0 0 48 48">
<path d="M24 9c-13.255 0-24 15-24 15s10.745 15 24 15 24-15 24-15-10.745-15-24-15zM24 33c-4.97 0-9-4.031-9-9s4.030-9 9-9 9 4.030 9 9-4.031 9-9 9zM24 18c-3.313 0-6 2.687-6 6s2.687 6 6 6 6-2.687 6-6-2.687-6-6-6z" fill="#000000"></path>
</svg>
