<?xml version="1.0" encoding="utf-8"?>
<!-- Generated by IcoMoon.io -->
<!DOCTYPE svg PUBLIC "-//W3C//DTD SVG 1.1//EN" "http://www.w3.org/Graphics/SVG/1.1/DTD/svg11.dtd">
<svg version="1.1" xmlns="http://www.w3.org/2000/svg" xmlns:xlink="http://www.w3.org/1999/xlink" width="48" height="48" viewBox="0 0 48 48">
<path d="M39.501 48c-0.037-21.526-18.82-39.118-39.501-39.159v-8.841c25.374 0 48 21.591 48 48h-8.499zM32.213 47.997h-8.495c0.028-5.286-2.657-11.202-6.906-15.631-4.226-4.466-11.715-7.279-16.791-7.253v-8.838c15.848 0.342 31.869 15.311 32.192 31.722zM6.024 35.995c3.311 0 5.994 2.687 5.994 6 0 3.312-2.683 5.998-5.994 5.998s-5.994-2.687-5.994-5.998c0-3.313 2.683-6 5.994-6z" fill="#000000"></path>
</svg>
