<?xml version="1.0" encoding="utf-8"?>
<!-- Generated by IcoMoon.io -->
<!DOCTYPE svg PUBLIC "-//W3C//DTD SVG 1.1//EN" "http://www.w3.org/Graphics/SVG/1.1/DTD/svg11.dtd">
<svg version="1.1" xmlns="http://www.w3.org/2000/svg" xmlns:xlink="http://www.w3.org/1999/xlink" width="48" height="48" viewBox="0 0 48 48">
<path d="M43.5 0h-39c-0.828 0-1.5 0.672-1.5 1.5v45c0 0.83 0.672 1.5 1.5 1.5h39c0.83 0 1.5-0.67 1.5-1.5v-45c0-0.828-0.67-1.5-1.5-1.5zM7.5 42c-0.828 0-1.5-0.67-1.5-1.5s0.672-1.5 1.5-1.5 1.5 0.67 1.5 1.5-0.672 1.5-1.5 1.5zM7.5 36c-0.828 0-1.5-0.67-1.5-1.5s0.672-1.5 1.5-1.5 1.5 0.67 1.5 1.5-0.672 1.5-1.5 1.5zM7.5 30c-0.828 0-1.5-0.67-1.5-1.5s0.672-1.5 1.5-1.5 1.5 0.67 1.5 1.5-0.672 1.5-1.5 1.5zM7.5 24c-0.828 0-1.5-0.672-1.5-1.5s0.672-1.5 1.5-1.5 1.5 0.672 1.5 1.5-0.672 1.5-1.5 1.5zM7.5 18c-0.828 0-1.5-0.672-1.5-1.5s0.672-1.5 1.5-1.5 1.5 0.672 1.5 1.5-0.672 1.5-1.5 1.5zM7.5 12c-0.828 0-1.5-0.672-1.5-1.5s0.672-1.5 1.5-1.5 1.5 0.672 1.5 1.5-0.672 1.5-1.5 1.5zM7.5 6c-0.828 0-1.5-0.672-1.5-1.5s0.672-1.5 1.5-1.5 1.5 0.672 1.5 1.5-0.672 1.5-1.5 1.5zM36 43.5c0 0.83-0.67 1.5-1.5 1.5h-21c-0.828 0-1.5-0.67-1.5-1.5v-15c0-0.83 0.672-1.5 1.5-1.5h21c0.83 0 1.5 0.67 1.5 1.5v15zM36 22.5c0 0.828-0.67 1.5-1.5 1.5h-21c-0.828 0-1.5-0.672-1.5-1.5v-18c0-0.828 0.672-1.5 1.5-1.5h21c0.83 0 1.5 0.672 1.5 1.5v18zM40.5 42c-0.83 0-1.5-0.67-1.5-1.5s0.67-1.5 1.5-1.5 1.5 0.67 1.5 1.5-0.67 1.5-1.5 1.5zM40.5 36c-0.83 0-1.5-0.67-1.5-1.5s0.67-1.5 1.5-1.5 1.5 0.67 1.5 1.5-0.67 1.5-1.5 1.5zM40.5 30c-0.83 0-1.5-0.67-1.5-1.5s0.67-1.5 1.5-1.5 1.5 0.67 1.5 1.5-0.67 1.5-1.5 1.5zM40.5 24c-0.83 0-1.5-0.672-1.5-1.5s0.67-1.5 1.5-1.5 1.5 0.672 1.5 1.5-0.67 1.5-1.5 1.5zM40.5 18c-0.83 0-1.5-0.672-1.5-1.5s0.67-1.5 1.5-1.5 1.5 0.672 1.5 1.5-0.67 1.5-1.5 1.5zM40.5 12c-0.83 0-1.5-0.672-1.5-1.5s0.67-1.5 1.5-1.5 1.5 0.672 1.5 1.5-0.67 1.5-1.5 1.5zM40.5 6c-0.83 0-1.5-0.672-1.5-1.5s0.67-1.5 1.5-1.5 1.5 0.672 1.5 1.5-0.67 1.5-1.5 1.5z" fill="#000000"></path>
</svg>
