<?xml version="1.0" encoding="utf-8"?>
<!-- Generated by IcoMoon.io -->
<!DOCTYPE svg PUBLIC "-//W3C//DTD SVG 1.1//EN" "http://www.w3.org/Graphics/SVG/1.1/DTD/svg11.dtd">
<svg version="1.1" xmlns="http://www.w3.org/2000/svg" xmlns:xlink="http://www.w3.org/1999/xlink" width="48" height="48" viewBox="0 0 48 48">
<path d="M48 7.359c0 5.647-15.151 18.871-17.981 24.52v11.684c0 0.032-0.018 0.054-0.021 0.085v1.352c0 1.656-1.344 3-2.998 3h-6c-1.656 0-3-1.344-3-3v-1.349c-0.003-0.032-0.023-0.054-0.023-0.089v-11.683c-2.824-5.649-17.977-18.873-17.977-24.521h0.044c-0.009-0.063-0.044-0.117-0.044-0.177 0-3.212 10.75-7.182 24-7.182s24 3.97 24 7.182c0 0.060-0.035 0.114-0.045 0.177h0.045zM24.255 2.976c-11.627 0-21.276 1.868-21.276 5.292 0 3.423 9.649 6.757 21.276 6.757 11.628 0 20.715-3.335 20.715-6.758-0.002-3.424-9.087-5.292-20.715-5.292z" fill="#000000"></path>
</svg>
