<?xml version="1.0" encoding="utf-8"?>
<!-- Generated by IcoMoon.io -->
<!DOCTYPE svg PUBLIC "-//W3C//DTD SVG 1.1//EN" "http://www.w3.org/Graphics/SVG/1.1/DTD/svg11.dtd">
<svg version="1.1" xmlns="http://www.w3.org/2000/svg" xmlns:xlink="http://www.w3.org/1999/xlink" width="48" height="48" viewBox="0 0 48 48">
<path d="M7.389 0h-3c-0.828 0-1.5 0.67-1.5 1.5v45c0 0.83 0.672 1.5 1.5 1.5h3c0.828 0 1.5-0.67 1.5-1.5v-45c0-0.83-0.67-1.5-1.5-1.5zM44.889 28.5v-21c0-0.829-0.184-1.5-1.5-1.5-6.67 3-30-6-30-6-0.828 0-1.5 0.67-1.5 1.5v22.5c0 0.83 0.672 1.5 1.5 1.5 0 0 16.5 5.357 30 4.5 2.573 0.857 1.5-0.67 1.5-1.5z" fill="#000000"></path>
</svg>
