<?xml version="1.0" encoding="utf-8"?>
<!-- Generated by IcoMoon.io -->
<!DOCTYPE svg PUBLIC "-//W3C//DTD SVG 1.1//EN" "http://www.w3.org/Graphics/SVG/1.1/DTD/svg11.dtd">
<svg version="1.1" xmlns="http://www.w3.org/2000/svg" xmlns:xlink="http://www.w3.org/1999/xlink" width="48" height="48" viewBox="0 0 48 48">
<path d="M45 48h-42c-1.656 0-3-1.344-3-3v-42c0-1.656 1.344-3 3-3h36l9 9v36c0 1.656-1.344 3-3 3zM12 40.5c0 0.83 0.672 1.5 1.5 1.5h21c0.83 0 1.5-0.67 1.5-1.5v-12c0-0.83-0.67-1.5-1.5-1.5h-21c-0.828 0-1.5 0.67-1.5 1.5v12zM33 7.5c0-0.829-0.67-1.5-1.5-1.5s-1.5 0.671-1.5 1.5v4.5c0 0.83 0.67 1.5 1.5 1.5s1.5-0.67 1.5-1.5v-4.5zM42 10.5l-4.5-4.5h-1.5v10.5c0 0.83-0.67 1.5-1.5 1.5h-21c-0.828 0-1.5-0.67-1.5-1.5v-10.5h-4.5c-0.828 0-1.5 0.671-1.5 1.5v33c0 0.83 0.672 1.5 1.5 1.5h1.5v-16.5c0-0.83 0.672-1.5 1.5-1.5h27c0.83 0 1.5 0.67 1.5 1.5v16.5h1.5c0.83 0 1.5-0.67 1.5-1.5v-30z" fill="#000000"></path>
</svg>
