<?xml version="1.0" encoding="utf-8"?>
<!-- Generated by IcoMoon.io -->
<!DOCTYPE svg PUBLIC "-//W3C//DTD SVG 1.1//EN" "http://www.w3.org/Graphics/SVG/1.1/DTD/svg11.dtd">
<svg version="1.1" xmlns="http://www.w3.org/2000/svg" xmlns:xlink="http://www.w3.org/1999/xlink" width="48" height="48" viewBox="0 0 48 48">
<path d="M46.5 18h-45c-0.828 0-1.5 0.672-1.5 1.5l1.5 24c0 0.83 0.672 1.5 1.5 1.5h42c0.83 0 1.5-0.67 1.5-1.5l1.5-24c0-0.828-0.67-1.5-1.5-1.5zM46.5 9h-16.5l-3-4.5c0-0.828-0.67-1.5-1.5-1.5h-18c-0.828 0-1.5 0.672-1.5 1.5v4.5h-4.5c-0.828 0-1.5 0.672-1.5 1.5v3c0 0.828 0.672 1.5 1.5 1.5h45c0.83 0 1.5-0.672 1.5-1.5v-3c0-0.828-0.67-1.5-1.5-1.5z" fill="#000000"></path>
</svg>
