<?xml version="1.0" encoding="utf-8"?>
<!-- Generated by IcoMoon.io -->
<!DOCTYPE svg PUBLIC "-//W3C//DTD SVG 1.1//EN" "http://www.w3.org/Graphics/SVG/1.1/DTD/svg11.dtd">
<svg version="1.1" xmlns="http://www.w3.org/2000/svg" xmlns:xlink="http://www.w3.org/1999/xlink" width="48" height="48" viewBox="0 0 48 48">
<path d="M44.901 46.458l-19.859-45.796c-0.174-0.402-0.572-0.661-1.010-0.661s-0.835 0.259-1.008 0.66l-19.926 45.796c-0.148 0.343-0.114 0.735 0.090 1.045 0.204 0.309 0.549 0.498 0.92 0.498h16.891v-10.002l-5.998-1.999c-0.829 0-1.5-0.671-1.5-1.5s0.671-1.5 1.5-1.5l5.998 1.999v-9.498c0-0.83 0.671-1.5 1.5-1.5h3c0.83 0 1.5 0.67 1.5 1.5v2.25l4.498-2.25c0.83 0 1.5 0.67 1.5 1.5s-0.67 1.5-1.5 1.5l-4.498 2.248v5.25l7.498-4.5c0.83 0 1.5 0.67 1.5 1.5s-0.67 1.5-1.5 1.5l-7.498 4.5v9.002h16.892c0.372 0 0.717-0.188 0.919-0.498 0.204-0.309 0.236-0.703 0.090-1.044z" fill="#000000"></path>
</svg>
