<?xml version="1.0" encoding="utf-8"?>
<!-- Generated by IcoMoon.io -->
<!DOCTYPE svg PUBLIC "-//W3C//DTD SVG 1.1//EN" "http://www.w3.org/Graphics/SVG/1.1/DTD/svg11.dtd">
<svg version="1.1" xmlns="http://www.w3.org/2000/svg" xmlns:xlink="http://www.w3.org/1999/xlink" width="48" height="48" viewBox="0 0 48 48">
<path d="M48 33c0 1.656-1.344 3-3 3v3.276c1.743 0.621 3 2.268 3 4.224 0 2.484-2.016 4.5-4.5 4.5-1.957 0-3.605-1.257-4.224-3h-3.276c0 1.656-1.344 3-3 3s-3-1.344-3-3h-3c0 1.656-1.344 3-3 3s-3-1.344-3-3h-3c0 1.656-1.344 3-3 3s-3-1.344-3-3h-3.276c-0.62 1.743-2.268 3-4.224 3-2.486 0-4.5-2.016-4.5-4.5 0-1.957 1.256-3.603 3-4.224v-3.276c-1.656 0-3-1.344-3-3s1.344-3 3-3v-3c-1.656 0-3-1.344-3-3s1.344-3 3-3v-3c-1.656 0-3-1.344-3-3s1.344-3 3-3v-3.276c-1.744-0.62-3-2.268-3-4.224 0-2.486 2.014-4.5 4.5-4.5 1.956 0 3.605 1.256 4.224 3h3.276c0-1.656 1.344-3 3-3s3 1.344 3 3h3c0-1.656 1.344-3 3-3s3 1.344 3 3h3c0-1.656 1.344-3 3-3s3 1.344 3 3h3.276c0.619-1.744 2.267-3 4.224-3 2.484 0 4.5 2.014 4.5 4.5 0 1.956-1.257 3.605-3 4.224v3.276c1.656 0 3 1.344 3 3s-1.344 3-3 3v3c1.656 0 3 1.344 3 3s-1.344 3-3 3v3c1.656 0 3 1.344 3 3zM39 10.5c0-0.828-0.67-1.5-1.5-1.5h-27c-0.828 0-1.5 0.672-1.5 1.5v27c0 0.83 0.672 1.5 1.5 1.5h27c0.83 0 1.5-0.67 1.5-1.5v-27z" fill="#000000"></path>
</svg>
