<?xml version="1.0" encoding="utf-8"?>
<!-- Generated by IcoMoon.io -->
<!DOCTYPE svg PUBLIC "-//W3C//DTD SVG 1.1//EN" "http://www.w3.org/Graphics/SVG/1.1/DTD/svg11.dtd">
<svg version="1.1" xmlns="http://www.w3.org/2000/svg" xmlns:xlink="http://www.w3.org/1999/xlink" width="48" height="48" viewBox="0 0 48 48">
<path d="M43.5 15.008h-39c-0.829 0-1.5 0.671-1.5 1.5v13.5c0 0.829 0.671 1.5 1.5 1.5h1.5v15c0 0.829 0.671 1.5 1.5 1.5h33c0.83 0 1.5-0.671 1.5-1.5v-15h1.5c0.83 0 1.5-0.671 1.5-1.5v-13.5c0-0.83-0.67-1.5-1.5-1.5zM21 43.508c0 0.83-0.67 1.5-1.5 1.5h-9c-0.829 0-1.5-0.67-1.5-1.5v-12c0-0.83 0.671-1.5 1.5-1.5h9c0.83 0 1.5 0.67 1.5 1.5v12zM21 25.508c0 0.829-0.67 1.5-1.5 1.5h-12c-0.829 0-1.5-0.671-1.5-1.5v-6c0-0.83 0.671-1.5 1.5-1.5h12c0.83 0 1.5 0.67 1.5 1.5v6zM39 43.508c0 0.83-0.67 1.5-1.5 1.5h-9c-0.83 0-1.5-0.67-1.5-1.5v-12c0-0.83 0.67-1.5 1.5-1.5h9c0.83 0 1.5 0.67 1.5 1.5v12zM42 25.508c0 0.829-0.67 1.5-1.5 1.5h-12c-0.83 0-1.5-0.671-1.5-1.5v-6c0-0.83 0.67-1.5 1.5-1.5h12c0.83 0 1.5 0.67 1.5 1.5v6zM17.338 15.006h13.8c2.365-1.697 4.602-3.905 4.867-6.311 0.129-1.175-0.123-2.895-2.063-4.426-1.075-0.85-2.167-1.281-3.242-1.281-3.423 0-5.359 4.197-6.407 7.947-1.251-4.78-3.666-10.928-7.813-10.928-1.21 0-2.415 0.523-3.587 1.557-2.31 2.043-2.536 4.167-2.32 5.589 0.485 3.179 3.682 5.91 6.764 7.853zM30.702 6.588c0.332 0 0.759 0.198 1.235 0.576 0.774 0.609 0.73 0.987 0.718 1.111-0.144 1.313-2.605 3.375-5.477 5.078 0.844-3.631 2.224-6.765 3.523-6.765zM15.051 4.335c0.376-0.333 0.931-0.729 1.431-0.729 1.857 0 3.767 4.875 4.88 9.615-3.507-1.869-7.133-4.52-7.457-6.646-0.043-0.294-0.163-1.082 1.146-2.24z" fill="#000000"></path>
</svg>
