<?xml version="1.0" encoding="utf-8"?>
<!-- Generated by IcoMoon.io -->
<!DOCTYPE svg PUBLIC "-//W3C//DTD SVG 1.1//EN" "http://www.w3.org/Graphics/SVG/1.1/DTD/svg11.dtd">
<svg version="1.1" xmlns="http://www.w3.org/2000/svg" xmlns:xlink="http://www.w3.org/1999/xlink" width="48" height="48" viewBox="0 0 48 48">
<path d="M10.5 18h-9c-0.83 0-1.5 0.67-1.5 1.5v9c0 0.83 0.67 1.5 1.5 1.5h9c0.829 0 1.5-0.67 1.5-1.5v-9c0-0.83-0.671-1.5-1.5-1.5zM9 25.5c0 0.83-0.671 1.5-1.5 1.5h-3c-0.829 0-1.5-0.67-1.5-1.5v-3c0-0.83 0.671-1.5 1.5-1.5h3c0.829 0 1.5 0.67 1.5 1.5v3zM10.5 0h-9c-0.83 0-1.5 0.67-1.5 1.5v9c0 0.829 0.67 1.5 1.5 1.5h9c0.829 0 1.5-2.171 1.5-3v-7.5c0-0.83-0.671-1.5-1.5-1.5zM9 7.5c0 0.829-0.671 1.5-1.5 1.5h-3c-0.829 0-1.5-0.671-1.5-1.5v-3c0-0.829 0.671-1.5 1.5-1.5h3c0.829 0 1.5 0.671 1.5 1.5v3zM10.5 36h-9c-0.83 0-1.5 0.67-1.5 1.5v9c0 0.83 0.67 1.5 1.5 1.5h9c0.829 0 1.5-0.67 1.5-1.5v-9c0-0.83-0.671-1.5-1.5-1.5zM9 43.5c0 0.83-0.671 1.5-1.5 1.5h-3c-0.829 0-1.5-0.67-1.5-1.5v-3c0-0.83 0.671-1.5 1.5-1.5h3c0.829 0 1.5 0.67 1.5 1.5v3zM28.5 18h-9c-0.83 0-1.5 0.67-1.5 1.5v9c0 0.83 0.67 1.5 1.5 1.5h9c0.83 0 1.5-0.67 1.5-1.5v-9c0-0.83-0.67-1.5-1.5-1.5zM27 25.5c0 0.83-0.67 1.5-1.5 1.5h-3c-0.83 0-1.5-0.67-1.5-1.5v-3c0-0.83 0.67-1.5 1.5-1.5h3c0.83 0 1.5 0.67 1.5 1.5v3zM28.5 36h-9c-0.83 0-1.5 0.67-1.5 1.5v9c0 0.83 0.67 1.5 1.5 1.5h9c0.83 0 1.5-0.67 1.5-1.5v-9c0-0.83-0.67-1.5-1.5-1.5zM27 43.5c0 0.83-0.67 1.5-1.5 1.5h-3c-0.83 0-1.5-0.67-1.5-1.5v-3c0-0.83 0.67-1.5 1.5-1.5h3c0.83 0 1.5 0.67 1.5 1.5v3zM46.5 18h-9c-0.83 0-1.5 0.67-1.5 1.5v9c0 0.83 0.67 1.5 1.5 1.5h9c0.83 0 1.5-0.67 1.5-1.5v-9c0-0.83-0.67-1.5-1.5-1.5zM45 25.5c0 0.83-0.67 1.5-1.5 1.5h-3c-0.83 0-1.5-0.67-1.5-1.5v-3c0-0.83 0.67-1.5 1.5-1.5h3c0.83 0 1.5 0.67 1.5 1.5v3zM46.5 0h-9c-0.83 0-1.5 0.67-1.5 1.5v9c0 0.829 0.67 1.5 1.5 1.5h9c0.83 0 1.5-2.171 1.5-3v-7.5c0-0.83-0.67-1.5-1.5-1.5zM45 7.5c0 0.829-0.67 1.5-1.5 1.5h-3c-0.83 0-1.5-0.671-1.5-1.5v-3c0-0.829 0.67-1.5 1.5-1.5h3c0.83 0 1.5 0.671 1.5 1.5v3zM28.5 0h-9c-0.83 0-1.5 0.67-1.5 1.5v9c0 0.829 0.67 1.5 1.5 1.5h9c0.83 0 1.5-2.171 1.5-3v-7.5c0-0.83-0.67-1.5-1.5-1.5zM27 7.5c0 0.829-0.67 1.5-1.5 1.5h-3c-0.83 0-1.5-0.671-1.5-1.5v-3c0-0.829 0.67-1.5 1.5-1.5h3c0.83 0 1.5 0.671 1.5 1.5v3zM46.5 36h-9c-0.83 0-1.5 0.67-1.5 1.5v9c0 0.83 0.67 1.5 1.5 1.5h9c0.83 0 1.5-0.67 1.5-1.5v-9c0-0.83-0.67-1.5-1.5-1.5zM45 43.5c0 0.83-0.67 1.5-1.5 1.5h-3c-0.83 0-1.5-0.67-1.5-1.5v-3c0-0.83 0.67-1.5 1.5-1.5h3c0.83 0 1.5 0.67 1.5 1.5v3z" fill="#000000"></path>
</svg>
