<?xml version="1.0" encoding="utf-8"?>
<!-- Generated by IcoMoon.io -->
<!DOCTYPE svg PUBLIC "-//W3C//DTD SVG 1.1//EN" "http://www.w3.org/Graphics/SVG/1.1/DTD/svg11.dtd">
<svg version="1.1" xmlns="http://www.w3.org/2000/svg" xmlns:xlink="http://www.w3.org/1999/xlink" width="48" height="48" viewBox="0 0 48 48">
<path d="M45 39c-1.656 0-3-1.344-3-3v-12c0-9.94-8.059-18-18-18s-18 8.060-18 18v12c0 1.656-1.344 3-3 3s-3-1.344-3-3v-12c0-13.255 10.746-24 24-24s24 10.745 24 24v12c0 1.656-1.344 3-3 3zM10.5 27h3c0.828 0 1.5 0.67 1.5 1.5v15c0 0.83-0.672 1.5-1.5 1.5h-3c-0.828 0-1.5-0.67-1.5-1.5v-15c0-0.83 0.672-1.5 1.5-1.5zM34.5 27h3c0.83 0 1.5 0.67 1.5 1.5v15c0 0.83-0.67 1.5-1.5 1.5h-3c-0.83 0-1.5-0.67-1.5-1.5v-15c0-0.83 0.67-1.5 1.5-1.5z" fill="#000000"></path>
</svg>
