<?xml version="1.0" encoding="utf-8"?>
<!-- Generated by IcoMoon.io -->
<!DOCTYPE svg PUBLIC "-//W3C//DTD SVG 1.1//EN" "http://www.w3.org/Graphics/SVG/1.1/DTD/svg11.dtd">
<svg version="1.1" xmlns="http://www.w3.org/2000/svg" xmlns:xlink="http://www.w3.org/1999/xlink" width="48" height="48" viewBox="0 0 48 48">
<path d="M43.246 28.528l-4.26-4.262v22.233c0 0.83-0.669 1.5-1.498 1.5h-5.994c-0.829 0-1.498-0.67-1.498-1.5v-17.991c0-0.83-0.671-1.5-1.5-1.5h-8.993c-0.828 0-1.498 0.67-1.498 1.5v17.991c0 0.83-0.672 1.5-1.499 1.5h-5.994c-0.828 0-1.5-0.67-1.5-1.5v-22.233l-4.26 4.261-4.752-4.755 23.763-23.773 0.237 0.237 0.237-0.237 11.752 11.759v-8.739h5.995v14.737l6.015 6.016-4.754 4.755z" fill="#000000"></path>
</svg>
