<?xml version="1.0" encoding="utf-8"?>
<!-- Generated by IcoMoon.io -->
<!DOCTYPE svg PUBLIC "-//W3C//DTD SVG 1.1//EN" "http://www.w3.org/Graphics/SVG/1.1/DTD/svg11.dtd">
<svg version="1.1" xmlns="http://www.w3.org/2000/svg" xmlns:xlink="http://www.w3.org/1999/xlink" width="48" height="48" viewBox="0 0 48 48">
<path d="M39 1.5c0-0.828-0.67-1.5-1.5-1.5h-27c-0.828 0-1.5 0.672-1.5 1.5l-9 22.5v21c0 1.656 1.344 3 3 3h42c1.656 0 3-1.344 3-3v-21l-9-22.5zM34.5 24l-4.5 7.5c0 0.83-0.67 1.5-1.5 1.5h-9c-0.83 0-1.5-0.67-1.5-1.5l-4.5-7.5h-7.5l7.715-18h20.572l7.713 18h-7.5z" fill="#000000"></path>
</svg>
