<?xml version="1.0" encoding="utf-8"?>
<!-- Generated by IcoMoon.io -->
<!DOCTYPE svg PUBLIC "-//W3C//DTD SVG 1.1//EN" "http://www.w3.org/Graphics/SVG/1.1/DTD/svg11.dtd">
<svg version="1.1" xmlns="http://www.w3.org/2000/svg" xmlns:xlink="http://www.w3.org/1999/xlink" width="48" height="48" viewBox="0 0 48 48">
<path d="M36 0h-24c-1.656 0-3 1.344-3 3v42c0 1.656 1.344 3 3 3h24c1.656 0 3-1.344 3-3v-42c0-1.656-1.344-3-3-3zM24 45c-4.97 0-9-4.031-9-9s4.030-9 9-9 9 4.031 9 9-4.031 9-9 9zM36 22.5c0 0.83-0.67 1.5-1.5 1.5h-21c-0.828 0-1.5-0.67-1.5-1.5v-18c0-0.829 0.672-1.5 1.5-1.5h21c0.83 0 1.5 0.671 1.5 1.5v18zM24 33c-1.656 0-3 1.344-3 3s1.344 3 3 3 3-1.344 3-3-1.344-3-3-3z" fill="#000000"></path>
</svg>
