<?xml version="1.0" encoding="utf-8"?>
<!-- Generated by IcoMoon.io -->
<!DOCTYPE svg PUBLIC "-//W3C//DTD SVG 1.1//EN" "http://www.w3.org/Graphics/SVG/1.1/DTD/svg11.dtd">
<svg version="1.1" xmlns="http://www.w3.org/2000/svg" xmlns:xlink="http://www.w3.org/1999/xlink" width="48" height="48" viewBox="0 0 48 48">
<path d="M21 30h-4.5v-0.091c-0.495 0.051-0.991 0.091-1.5 0.091-8.283 0-15-6.715-15-15s6.717-15 15-15 15 6.716 15 15v6h1.5v1.5h1.5v1.5h1.5v1.5h1.5v1.5h1.5v1.5h1.5v1.5h1.5v1.5h1.5v1.5h1.5v1.5h1.5v1.5h1.5v1.5h1.5v9c0 0.83-0.67 1.5-1.5 1.5h-6c-0.83 0-1.5-0.67-1.5-1.5v-6h-7.5c-0.828 0-1.5-0.67-1.5-1.5v-6h-7.5zM12 6c-3.313 0-6 2.687-6 6s2.687 6 6 6 6-2.687 6-6-2.687-6-6-6z" fill="#000000"></path>
</svg>
