<?xml version="1.0" encoding="utf-8"?>
<!-- Generated by IcoMoon.io -->
<!DOCTYPE svg PUBLIC "-//W3C//DTD SVG 1.1//EN" "http://www.w3.org/Graphics/SVG/1.1/DTD/svg11.dtd">
<svg version="1.1" xmlns="http://www.w3.org/2000/svg" xmlns:xlink="http://www.w3.org/1999/xlink" width="48" height="48" viewBox="0 0 48 48">
<path d="M19.5 27c0.828 0 1.5-0.67 1.5-1.5s-0.672-1.5-1.5-1.5-1.5 0.67-1.5 1.5 0.672 1.5 1.5 1.5zM24 21c0.83 0 1.5-0.67 1.5-1.5s-0.67-1.5-1.5-1.5-1.5 0.67-1.5 1.5 0.67 1.5 1.5 1.5zM19.5 15c0.828 0 1.5-0.67 1.5-1.5s-0.672-1.5-1.5-1.5-1.5 0.67-1.5 1.5 0.672 1.5 1.5 1.5zM28.5 15c0.83 0 1.5-0.67 1.5-1.5s-0.67-1.5-1.5-1.5-1.5 0.67-1.5 1.5 0.67 1.5 1.5 1.5zM15 21c0.828 0 1.5-0.67 1.5-1.5s-0.672-1.5-1.5-1.5-1.5 0.67-1.5 1.5 0.672 1.5 1.5 1.5zM37.5 15c0.83 0 1.5-0.67 1.5-1.5s-0.67-1.5-1.5-1.5-1.5 0.67-1.5 1.5 0.67 1.5 1.5 1.5zM33 21c0.83 0 1.5-0.67 1.5-1.5s-0.67-1.5-1.5-1.5-1.5 0.67-1.5 1.5 0.67 1.5 1.5 1.5zM28.5 27c0.83 0 1.5-0.67 1.5-1.5s-0.67-1.5-1.5-1.5-1.5 0.67-1.5 1.5 0.67 1.5 1.5 1.5zM40.5 18c-0.83 0-1.5 0.67-1.5 1.5s0.67 1.5 1.5 1.5 1.5-0.67 1.5-1.5-0.67-1.5-1.5-1.5zM45 6h-42c-1.656 0-3 1.344-3 3v30c0 1.656 1.344 3 3 3h42c1.656 0 3-1.344 3-3v-30c0-1.656-1.344-3-3-3zM45 37.5c0 0.83-0.67 1.5-1.5 1.5h-39c-0.828 0-1.5-0.67-1.5-1.5v-27c0-0.829 0.672-1.5 1.5-1.5h39c0.83 0 1.5 0.671 1.5 1.5v27zM34.5 33h-21c-0.828 0-1.5 0.67-1.5 1.5s0.672 1.5 1.5 1.5h21c0.83 0 1.5-0.67 1.5-1.5s-0.67-1.5-1.5-1.5zM7.5 18c-0.828 0-1.5 0.67-1.5 1.5s0.672 1.5 1.5 1.5 1.5-0.67 1.5-1.5-0.672-1.5-1.5-1.5zM10.5 24c-0.828 0-1.5 0.67-1.5 1.5s0.672 1.5 1.5 1.5 1.5-0.67 1.5-1.5-0.672-1.5-1.5-1.5zM10.5 15c0.828 0 1.5-0.67 1.5-1.5s-0.672-1.5-1.5-1.5-1.5 0.67-1.5 1.5 0.672 1.5 1.5 1.5zM37.5 24c-0.83 0-1.5 0.67-1.5 1.5s0.67 1.5 1.5 1.5 1.5-0.67 1.5-1.5-0.67-1.5-1.5-1.5z" fill="#000000"></path>
</svg>
