<?xml version="1.0" encoding="utf-8"?>
<!-- Generated by IcoMoon.io -->
<!DOCTYPE svg PUBLIC "-//W3C//DTD SVG 1.1//EN" "http://www.w3.org/Graphics/SVG/1.1/DTD/svg11.dtd">
<svg version="1.1" xmlns="http://www.w3.org/2000/svg" xmlns:xlink="http://www.w3.org/1999/xlink" width="48" height="48" viewBox="0 0 48 48">
<path d="M39 22.5c-0.83 0-1.5 0.67-1.5 1.5v10.5c0 0.83 0.67 1.5 1.5 1.5s1.5-0.67 1.5-1.5v-10.5c0-0.83-0.67-1.5-1.5-1.5zM34.5 45h-21c-0.828 0-1.5 0.67-1.5 1.5s0.672 1.5 1.5 1.5h21c0.83 0 1.5-0.67 1.5-1.5s-0.67-1.5-1.5-1.5zM30 1.5c0-0.83-0.67-1.5-1.5-1.5h-7.5c0 0-1.5 0.67-1.5 1.5l-19.5 18c0 0.83 0.672 1.5 1.5 1.5h18c-0.83 0-1.5 2.17-1.5 3v18c0 0.83 0.67 1.5 1.5 1.5h9c0.83 0 1.5-0.67 1.5-1.5v-18c0-0.83-0.67-3-1.5-3h18c0.83 0 1.5-0.67 1.5-1.5l-18-18z" fill="#000000"></path>
</svg>
