<?xml version="1.0" encoding="utf-8"?>
<!-- Generated by IcoMoon.io -->
<!DOCTYPE svg PUBLIC "-//W3C//DTD SVG 1.1//EN" "http://www.w3.org/Graphics/SVG/1.1/DTD/svg11.dtd">
<svg version="1.1" xmlns="http://www.w3.org/2000/svg" xmlns:xlink="http://www.w3.org/1999/xlink" width="48" height="48" viewBox="0 0 48 48">
<path d="M43.5 48h-39c-0.828 0-1.5-0.67-1.5-1.5v-24c0-0.83 0.672-1.5 1.5-1.5h4.5v-6c0-8.284 6.716-15 15-15s15 6.716 15 15v6h4.5c0.83 0 1.5 0.67 1.5 1.5v24c0 0.83-0.67 1.5-1.5 1.5zM33 14.25c0-4.557-4.031-8.25-9-8.25s-9 3.693-9 8.25v6.75h18v-6.75z" fill="#000000"></path>
</svg>
