<?xml version="1.0" encoding="utf-8"?>
<!-- Generated by IcoMoon.io -->
<!DOCTYPE svg PUBLIC "-//W3C//DTD SVG 1.1//EN" "http://www.w3.org/Graphics/SVG/1.1/DTD/svg11.dtd">
<svg version="1.1" xmlns="http://www.w3.org/2000/svg" xmlns:xlink="http://www.w3.org/1999/xlink" width="48" height="48" viewBox="0 0 48 48">
<path d="M42 22.5h-0.073c-0.738 7.912-7.139 16.5-14.927 16.5v6h9c0.83 0 1.5 0.67 1.5 1.5s-0.67 1.5-1.5 1.5h-24c-0.829 0-1.5-0.67-1.5-1.5s0.671-1.5 1.5-1.5h9v-6c-7.788 0-14.187-8.588-14.927-16.5h-0.074v-9c0-1.656 1.344-3 3-3s3 1.344 3 3v7.5c0 6.627 5.373 12 12 12s12-5.373 12-12v-7.5c0-1.656 1.344-3 3-3s3 1.344 3 3v9zM24 27c-4.143 0-6-3.357-6-7.5v-12c0-4.142 1.857-7.5 6-7.5s6 3.358 6 7.5v12c0 4.143-1.857 7.5-6 7.5zM26.25 21c0.414 0 0.75-0.336 0.75-0.75 0-0.413-0.336-0.75-0.75-0.75s-0.75 0.337-0.75 0.75c0 0.414 0.336 0.75 0.75 0.75zM21.75 12c-0.414 0-0.75 0.337-0.75 0.75 0 0.414 0.336 0.75 0.75 0.75s0.75-0.336 0.75-0.75c0-0.413-0.336-0.75-0.75-0.75zM22.5 9.75c0-0.414-0.336-0.75-0.75-0.75s-0.75 0.336-0.75 0.75c0 0.414 0.336 0.75 0.75 0.75s0.75-0.336 0.75-0.75zM23.25 16.5c-0.414 0-0.75 0.337-0.75 0.75 0 0.414 0.336 0.75 0.75 0.75s0.75-0.336 0.75-0.75c0-0.413-0.336-0.75-0.75-0.75zM24.75 16.5c0.414 0 0.75-0.336 0.75-0.75 0-0.413-0.336-0.75-0.75-0.75s-0.75 0.337-0.75 0.75c0 0.414 0.336 0.75 0.75 0.75zM23.25 15c0.414 0 0.75-0.336 0.75-0.75 0-0.413-0.336-0.75-0.75-0.75s-0.75 0.337-0.75 0.75c0 0.414 0.336 0.75 0.75 0.75zM21.75 15c-0.414 0-0.75 0.337-0.75 0.75 0 0.414 0.336 0.75 0.75 0.75s0.75-0.336 0.75-0.75c0-0.413-0.336-0.75-0.75-0.75zM23.25 12c0.414 0 0.75-0.336 0.75-0.75s-0.336-0.75-0.75-0.75-0.75 0.336-0.75 0.75c0 0.414 0.336 0.75 0.75 0.75zM24.75 10.5c0.414 0 0.75-0.336 0.75-0.75s-0.336-0.75-0.75-0.75-0.75 0.336-0.75 0.75c0 0.414 0.336 0.75 0.75 0.75zM24.75 12c-0.414 0-0.75 0.337-0.75 0.75 0 0.414 0.336 0.75 0.75 0.75s0.75-0.336 0.75-0.75c0-0.413-0.336-0.75-0.75-0.75zM26.25 12c0.414 0 0.75-0.336 0.75-0.75s-0.336-0.75-0.75-0.75-0.75 0.336-0.75 0.75c0 0.414 0.336 0.75 0.75 0.75zM26.25 13.5c-0.414 0-0.75 0.337-0.75 0.75 0 0.414 0.336 0.75 0.75 0.75s0.75-0.336 0.75-0.75c0-0.413-0.336-0.75-0.75-0.75zM26.25 16.5c-0.414 0-0.75 0.337-0.75 0.75 0 0.414 0.336 0.75 0.75 0.75s0.75-0.336 0.75-0.75c0-0.413-0.336-0.75-0.75-0.75zM24.75 19.5c0.414 0 0.75-0.336 0.75-0.75 0-0.413-0.336-0.75-0.75-0.75s-0.75 0.337-0.75 0.75c0 0.414 0.336 0.75 0.75 0.75zM23.25 21c0.414 0 0.75-0.336 0.75-0.75 0-0.413-0.336-0.75-0.75-0.75s-0.75 0.337-0.75 0.75c0 0.414 0.336 0.75 0.75 0.75zM21.75 19.5c0.414 0 0.75-0.336 0.75-0.75 0-0.413-0.336-0.75-0.75-0.75s-0.75 0.337-0.75 0.75c0 0.414 0.336 0.75 0.75 0.75zM21.75 6c-0.414 0-0.75 0.336-0.75 0.75s0.336 0.75 0.75 0.75 0.75-0.336 0.75-0.75c0-0.414-0.336-0.75-0.75-0.75zM23.25 7.5c-0.414 0-0.75 0.336-0.75 0.75s0.336 0.75 0.75 0.75 0.75-0.336 0.75-0.75c0-0.414-0.336-0.75-0.75-0.75zM24.75 6c-0.414 0-0.75 0.336-0.75 0.75s0.336 0.75 0.75 0.75 0.75-0.336 0.75-0.75c0-0.414-0.336-0.75-0.75-0.75zM26.25 7.5c-0.414 0-0.75 0.336-0.75 0.75s0.336 0.75 0.75 0.75 0.75-0.336 0.75-0.75c0-0.414-0.336-0.75-0.75-0.75z" fill="#000000"></path>
</svg>
