<?xml version="1.0" encoding="utf-8"?>
<!-- Generated by IcoMoon.io -->
<!DOCTYPE svg PUBLIC "-//W3C//DTD SVG 1.1//EN" "http://www.w3.org/Graphics/SVG/1.1/DTD/svg11.dtd">
<svg version="1.1" xmlns="http://www.w3.org/2000/svg" xmlns:xlink="http://www.w3.org/1999/xlink" width="48" height="48" viewBox="0 0 48 48">
<path d="M33 0h-18c-3.313 0-6 2.686-6 6v36c0 3.313 2.687 6 6 6h18c3.313 0 6-2.687 6-6v-36c0-3.314-2.687-6-6-6zM24.75 4.5h4.5c0.412 0 0.75 0.336 0.75 0.75s-0.338 0.75-0.75 0.75h-4.5c-0.414 0-0.75-0.336-0.75-0.75s0.336-0.75 0.75-0.75zM19.5 3c0.828 0 1.5 0.672 1.5 1.5s-0.672 1.5-1.5 1.5-1.5-0.672-1.5-1.5 0.672-1.5 1.5-1.5zM27 43.5c0 0.83-0.67 1.5-1.5 1.5h-3c-0.828 0-1.5-0.67-1.5-1.5v-3c0-0.83 0.672-1.5 1.5-1.5h3c0.83 0 1.5 0.67 1.5 1.5v3zM36 34.5c0 0.83-0.67 1.5-1.5 1.5h-21c-0.828 0-1.5-0.67-1.5-1.5v-24c0-0.828 0.672-1.5 1.5-1.5h21c0.83 0 1.5 0.672 1.5 1.5v24z" fill="#000000"></path>
</svg>
