<?xml version="1.0" encoding="utf-8"?>
<!-- Generated by IcoMoon.io -->
<!DOCTYPE svg PUBLIC "-//W3C//DTD SVG 1.1//EN" "http://www.w3.org/Graphics/SVG/1.1/DTD/svg11.dtd">
<svg version="1.1" xmlns="http://www.w3.org/2000/svg" xmlns:xlink="http://www.w3.org/1999/xlink" width="48" height="48" viewBox="0 0 48 48">
<path d="M45 36c0 0-12.375 0-15 0s3 9 3 9c0 1.656-1.344 3-3 3h-12c-1.656 0-3-1.344-3-3 0 0 5.718-9 3-9s-15 0-15 0c-1.656 0-3-1.344-3-3v-30c0-1.656 1.344-3 3-3h42c1.656 0 3 1.344 3 3v30c0 1.656-1.344 3-3 3zM24 34.5c1.656 0 3-1.344 3-3s-1.344-3-3-3-3 1.344-3 3 1.344 3 3 3zM45 6c0-1.656-1.344-3-3-3h-36c-1.656 0-3 1.344-3 3v18c0 1.656 1.344 3 3 3h36c1.656 0 3-1.344 3-3v-18z" fill="#000000"></path>
</svg>
