<?xml version="1.0" encoding="utf-8"?>
<!-- Generated by IcoMoon.io -->
<!DOCTYPE svg PUBLIC "-//W3C//DTD SVG 1.1//EN" "http://www.w3.org/Graphics/SVG/1.1/DTD/svg11.dtd">
<svg version="1.1" xmlns="http://www.w3.org/2000/svg" xmlns:xlink="http://www.w3.org/1999/xlink" width="48" height="48" viewBox="0 0 48 48">
<path d="M23.25 24c-3.313 0-6-2.687-6-6h-9v15c0 8.283 6.716 15 15 15s15-6.717 15-15v-15h-9c0 3.313-2.687 6-6 6zM17.25 12c0-3.313 2.687-6 6-6s6 2.687 6 6v3h9c0-8.284-6.715-15-15-15s-15 6.716-15 15h9v-3zM21.75 10.5v9c0 0.828 0.672 1.5 1.5 1.5s1.5-0.672 1.5-1.5v-9c0-0.828-0.672-1.5-1.5-1.5s-1.5 0.672-1.5 1.5z" fill="#000000"></path>
</svg>
