<?xml version="1.0" encoding="utf-8"?>
<!-- Generated by IcoMoon.io -->
<!DOCTYPE svg PUBLIC "-//W3C//DTD SVG 1.1//EN" "http://www.w3.org/Graphics/SVG/1.1/DTD/svg11.dtd">
<svg version="1.1" xmlns="http://www.w3.org/2000/svg" xmlns:xlink="http://www.w3.org/1999/xlink" width="48" height="48" viewBox="0 0 48 48">
<path d="M19.427 41.965c-0.038 0.038-0.076 0.077-0.113 0.114-3.762 3.599-9.745 3.669-13.374 0.144-3.849-3.623-3.925-8.87 0.066-12.906 0.032-0.032 0.057-0.064 0.089-0.096 0.038-0.034 0.074-0.072 0.11-0.107l24.983-24.282c2.289-2.178 5.919-2.217 8.121-0.077 1.325 1.887 2.159 5.683-0.073 7.892l-0.206 0.201-2.344 2.275-2.151 2.092-20.252 19.658-0.057-0.071-0.053 0.059-0.104 0.114c-0.009 0.006-0.020 0.012-0.027 0.021-0.837 0.756-2.129 0.762-2.919-0.006-0.783-0.762-0.781-1.878-0.002-2.709 0.026-0.024 0.041-0.052 0.066-0.076l18.898-18.365-2.276-2.207-16.627 16.16-2.019 2.204v0.003c-0.006 0.006-0.012 0.009-0.020 0.018-0.018 0.018-0.033 0.035-0.051 0.054-2.075 2.072-2.361 5.082-0.315 7.072 2.048 1.988 5.403 1.83 7.533-0.188l0.003 0.003 0.042-0.043c0.005-0.003 0.009-0.006 0.012-0.009 0.005-0.003 0.008-0.009 0.011-0.012l22.578-21.564 2.341-2.279 0.209-0.199-0.003-0.003c3.534-3.485 1.856-10.011 0.147-12.372-3.477-3.378-9.201-3.296-12.785 0.189-0.053 0.049-0.096 0.105-0.147 0.157l-0.006-0.004-24.78 24.087c-0.019 0.021-0.041 0.035-0.061 0.056-0.035 0.032-0.066 0.073-0.101 0.108l-0.036 0.035 0.002 0.003c-4.915 4.923-4.997 12.665-0.138 17.391 4.907 4.769 12.987 4.649 18.045-0.267 0.021-0.021 0.036-0.041 0.057-0.062l0.006 0.006 26.293-25.553-2.274-2.21-26.299 25.55z" fill="#000000"></path>
</svg>
