<?xml version="1.0" encoding="utf-8"?>
<!-- Generated by IcoMoon.io -->
<!DOCTYPE svg PUBLIC "-//W3C//DTD SVG 1.1//EN" "http://www.w3.org/Graphics/SVG/1.1/DTD/svg11.dtd">
<svg version="1.1" xmlns="http://www.w3.org/2000/svg" xmlns:xlink="http://www.w3.org/1999/xlink" width="48" height="48" viewBox="0 0 48 48">
<path d="M3.189 1.782c1.917-1.921 7.711-2.243 7.755-1.226 0.043 1.016 5.218 12.287 5.264 13.303 0.045 1.015-3.411 4.48-4.422 5.495-1.002 1.003 6.762 9.799 6.909 9.966 0.165 0.148 8.94 7.93 9.942 6.925 1.011-1.014 4.469-4.477 5.479-4.432 1.014 0.044 12.26 5.231 13.273 5.277 1.014 0.044 0.694 5.85-1.222 7.773-1.64 1.642-10.128 7.606-24.888-3.044-1.619-0.933-4.182-3.073-8.070-6.969-0.001-0.002-0.005-0.005-0.008-0.006-0.003-0.005-0.006-0.006-0.009-0.009s-0.006-0.006-0.009-0.009c-0.001-0.003-0.005-0.006-0.006-0.008-3.885-3.897-6.021-6.468-6.952-8.090-10.625-14.796-4.674-23.305-3.036-24.948z" fill="#000000"></path>
</svg>
