<?xml version="1.0" encoding="utf-8"?>
<!-- Generated by IcoMoon.io -->
<!DOCTYPE svg PUBLIC "-//W3C//DTD SVG 1.1//EN" "http://www.w3.org/Graphics/SVG/1.1/DTD/svg11.dtd">
<svg version="1.1" xmlns="http://www.w3.org/2000/svg" xmlns:xlink="http://www.w3.org/1999/xlink" width="48" height="48" viewBox="0 0 48 48">
<path d="M30 18l-9 15-5.955-4.344-0.045-0.156-0.354-0.137 0.276 0.203-8.922 7.434v3h36v-3l-4.5-13.5-7.5-4.5zM13.5 19.5c2.484 0 4.5-2.014 4.5-4.5s-2.016-4.5-4.5-4.5-4.5 2.014-4.5 4.5 2.016 4.5 4.5 4.5zM46.5 3h-45c-0.828 0-1.5 0.672-1.5 1.5v39c0 0.83 0.672 1.5 1.5 1.5h45c0.83 0 1.5-0.67 1.5-1.5v-39c0-0.828-0.67-1.5-1.5-1.5zM45 40.5c0 0.83-0.67 1.5-1.5 1.5h-39c-0.828 0-1.5-0.67-1.5-1.5v-33c0-0.828 0.672-1.5 1.5-1.5h39c0.83 0 1.5 0.672 1.5 1.5v33z" fill="#000000"></path>
</svg>
