<?xml version="1.0" encoding="utf-8"?>
<!-- Generated by IcoMoon.io -->
<!DOCTYPE svg PUBLIC "-//W3C//DTD SVG 1.1//EN" "http://www.w3.org/Graphics/SVG/1.1/DTD/svg11.dtd">
<svg version="1.1" xmlns="http://www.w3.org/2000/svg" xmlns:xlink="http://www.w3.org/1999/xlink" width="48" height="48" viewBox="0 0 48 48">
<path d="M46.5 18h-16.5v-16.5c0-0.828-0.67-1.5-1.5-1.5h-9c-0.83 0-1.5 0.672-1.5 1.5v16.5h-16.5c-0.83 0-1.5 0.672-1.5 1.5v9c0 0.83 0.67 1.5 1.5 1.5h16.5v16.5c0 0.83 0.67 1.5 1.5 1.5h9c0.83 0 1.5-0.67 1.5-1.5v-16.5h16.5c0.83 0 1.5-0.67 1.5-1.5v-9c0-0.828-0.67-1.5-1.5-1.5z" fill="#000000"></path>
</svg>
