<?xml version="1.0" encoding="utf-8"?>
<!-- Generated by IcoMoon.io -->
<!DOCTYPE svg PUBLIC "-//W3C//DTD SVG 1.1//EN" "http://www.w3.org/Graphics/SVG/1.1/DTD/svg11.dtd">
<svg version="1.1" xmlns="http://www.w3.org/2000/svg" xmlns:xlink="http://www.w3.org/1999/xlink" width="48" height="48" viewBox="0 0 48 48">
<path d="M47.572 43.429c0.571 0.572 0.571 1.498 0 2.072l-2.072 2.072c-0.573 0.571-1.5 0.571-2.072 0l-14.502-14.502c-0.158-0.158-0.263-0.343-0.333-0.542-2.974 2.174-6.627 3.471-10.594 3.471-9.941 0-18-8.059-18-18s8.059-18 18-18c9.941 0 18 8.059 18 18 0 3.968-1.297 7.62-3.471 10.594 0.198 0.071 0.384 0.174 0.542 0.333l14.502 14.502zM18 6c-6.627 0-12 5.373-12 12s5.373 12 12 12 12-5.373 12-12c0-6.627-5.373-12-12-12z" fill="#000000"></path>
</svg>
