<?xml version="1.0" encoding="utf-8"?>
<!-- Generated by IcoMoon.io -->
<!DOCTYPE svg PUBLIC "-//W3C//DTD SVG 1.1//EN" "http://www.w3.org/Graphics/SVG/1.1/DTD/svg11.dtd">
<svg version="1.1" xmlns="http://www.w3.org/2000/svg" xmlns:xlink="http://www.w3.org/1999/xlink" width="48" height="48" viewBox="0 0 48 48">
<path d="M28.976 10.508h1.546c2.998-4.128-2.058-6.005 0-10.508h-1.546c-1.799 4.428 2.431 6.154 0 10.508zM22.941 12.009h1.572c-2.091-4.503 3.046-7.881 0-12.009h-1.572c2.47 4.353-1.829 7.581 0 12.009zM45.7 38.126c-0.3-1.157-0.658-1.748-2.297-1.877-0.622-0.041-1.218-0.077-1.836-0.117 0.017-0.030 0.027-0.074 0.041-0.105h-4.785c-0.417 0-0.756-0.336-0.756-0.75 0-0.416 0.339-0.752 0.756-0.752h5.109c0.105-1.275-0.047-2.84-0.499-3.656-0.67-1.291-1.294-2.341-1.901-3.171-1.045-1.305-2.983-2.18-4.416-2.651-0.168-0.044-0.372-0.082-0.593-0.119-0.076 0.334-0.363 0.59-0.721 0.59h-4.532c-0.417 0-0.756-0.336-0.756-0.752 0-0.175 0.613-0.336 1.344-0.465-0.909-2.149 0.167-4.788 0.167-4.788 0-1.658-3.023-5.003-3.023-3.002s-7.19 0-7.19 0c-0.976-1.093-1.873-3.001-1.873-3.001s-2.634 1.488-2.958 3.384c-0.934 0.51-1.575 1.485-1.575 2.62v1.5c0 0.7 0.124 1.875 0.438 3.002h3.339c0.417 0 0.756 0.336 0.756 0.75 0 0.416-0.339 0.752-0.756 0.752h-4.528c-0.339 0-0.614-0.222-0.711-0.528-0.999-0.218-2.010-0.501-3.036-0.889-1.683 0.034-3.049 1.354-3.049 2.997v2.968c0.001 0.553 0.159 1.077 0.436 1.532 0.096-0.045 0.204-0.075 0.318-0.075h6.042c0.417 0 0.755 0.336 0.755 0.75s-0.337 0.752-0.755 0.752h-4.625c0.132 0.051 0.265 0.102 0.407 0.139-0.843-0.009-1.688-0.038-2.529-0.038-1.473 0.008-3.486 1.274-4.168 2.421-1.018 1.782-1.549 3.213-1.734 6.026-0.099 1.878 1.178 6.426 2.594 6.426s40.822-0.033 40.822-0.033 4.492-2.791 4.567-4.511c0.177-2.577-1.92-3.585-2.289-5.331zM17.412 9.006h1.572c-2.471-4.353 1.828-4.578 0-9.006h-1.572c2.090 4.503-3.045 4.878 0 9.006z" fill="#000000"></path>
</svg>
