<?xml version="1.0" encoding="utf-8"?>
<!-- Generated by IcoMoon.io -->
<!DOCTYPE svg PUBLIC "-//W3C//DTD SVG 1.1//EN" "http://www.w3.org/Graphics/SVG/1.1/DTD/svg11.dtd">
<svg version="1.1" xmlns="http://www.w3.org/2000/svg" xmlns:xlink="http://www.w3.org/1999/xlink" width="48" height="48" viewBox="0 0 48 48">
<path d="M44.655 27.7c0.213-1.203 0.345-2.434 0.345-3.701 0-11.598-9.402-21-21-21-1.266 0-2.497 0.132-3.701 0.345-2.155-2.067-5.077-3.345-8.3-3.345-6.627 0-12 5.373-12 12 0 3.222 1.278 6.144 3.345 8.299-0.213 1.203-0.345 2.434-0.345 3.701 0 11.598 9.402 21 21 21 1.266 0 2.497-0.13 3.7-0.345 2.156 2.067 5.077 3.345 8.3 3.345 6.627 0 12-5.373 12-12 0-3.222-1.278-6.144-3.345-8.3zM33.248 32.406c-0.831 1.131-2.055 2.028-3.644 2.661-1.573 0.629-3.457 0.948-5.599 0.948-2.576 0-4.734-0.436-6.419-1.294-1.204-0.627-2.197-1.471-2.952-2.524-0.762-1.056-1.148-2.105-1.148-3.119 0-0.631 0.25-1.177 0.747-1.627 0.49-0.447 1.12-0.669 1.87-0.669 0.616 0 1.149 0.175 1.579 0.528 0.413 0.341 0.767 0.839 1.052 1.479 0.318 0.702 0.663 1.292 1.029 1.755 0.352 0.451 0.858 0.828 1.505 1.122 0.65 0.295 1.527 0.447 2.604 0.447 1.48 0 2.697-0.304 3.61-0.906 0.892-0.586 1.326-1.291 1.326-2.156 0-0.681-0.226-1.218-0.691-1.636-0.489-0.44-1.132-0.782-1.911-1.017-0.816-0.243-1.923-0.512-3.291-0.785-1.86-0.384-3.439-0.838-4.698-1.351-1.285-0.528-2.322-1.259-3.079-2.169-0.769-0.93-1.159-2.091-1.159-3.46 0-1.303 0.409-2.48 1.218-3.492 0.801-1.008 1.973-1.791 3.48-2.327 1.486-0.531 3.256-0.798 5.259-0.798 1.599 0 3.009 0.178 4.183 0.531 1.182 0.352 2.177 0.832 2.963 1.42 0.786 0.594 1.374 1.226 1.742 1.887 0.37 0.663 0.561 1.327 0.561 1.968 0 0.618-0.248 1.178-0.735 1.667-0.492 0.49-1.11 0.739-1.842 0.739-0.663 0-1.184-0.156-1.543-0.462-0.336-0.287-0.684-0.732-1.070-1.372-0.448-0.817-0.988-1.462-1.609-1.917-0.6-0.442-1.608-0.663-2.993-0.663-1.284 0-2.331 0.247-3.105 0.738-0.748 0.471-1.111 1.012-1.111 1.654 0 0.395 0.117 0.722 0.358 1.004 0.254 0.303 0.614 0.563 1.068 0.783 0.47 0.227 0.957 0.408 1.443 0.537 0.498 0.134 1.333 0.33 2.479 0.585 1.45 0.302 2.784 0.637 3.963 1 1.196 0.369 2.223 0.821 3.068 1.349 0.858 0.537 1.538 1.227 2.022 2.053 0.483 0.829 0.727 1.851 0.727 3.039-0.003 1.418-0.423 2.72-1.257 3.851z" fill="#000000"></path>
</svg>
