<?xml version="1.0" encoding="utf-8"?>
<!-- Generated by IcoMoon.io -->
<!DOCTYPE svg PUBLIC "-//W3C//DTD SVG 1.1//EN" "http://www.w3.org/Graphics/SVG/1.1/DTD/svg11.dtd">
<svg version="1.1" xmlns="http://www.w3.org/2000/svg" xmlns:xlink="http://www.w3.org/1999/xlink" width="48" height="48" viewBox="0 0 48 48">
<path d="M19.067 38.947c-9.867 7.86-12.528 5.959-7.982-5.71-12.675 0.654-13.692-2.428-3.049-9.237-10.643-6.81-9.626-9.889 3.049-9.238-4.545-11.668-1.884-13.572 7.982-5.709 3.288-12.069 6.577-12.069 9.867 0 9.865-7.863 12.528-5.96 7.98 5.709 12.677-0.651 13.692 2.428 3.050 9.238 10.642 6.809 9.627 9.891-3.050 9.237 4.547 11.669 1.886 13.571-7.98 5.71-3.288 12.071-6.579 12.071-9.867 0z" fill="#000000"></path>
</svg>
