<?xml version="1.0" encoding="utf-8"?>
<!-- Generated by IcoMoon.io -->
<!DOCTYPE svg PUBLIC "-//W3C//DTD SVG 1.1//EN" "http://www.w3.org/Graphics/SVG/1.1/DTD/svg11.dtd">
<svg version="1.1" xmlns="http://www.w3.org/2000/svg" xmlns:xlink="http://www.w3.org/1999/xlink" width="48" height="48" viewBox="0 0 48 48">
<path d="M33.939 29.911l-0.015-0.009-0.099 0.080 0.141 0.021c0 0 6.078 15.306 4.804 17.524-2.503 1.898-13.263-8.392-14.661-9.752l0.009 0.053c0 0-12.088 12.072-14.888 9.913-1.677-1.218 4.42-18.045 4.42-18.045l0.029-0.005c-2.24-1.28-14.54-9.969-13.631-13.096 0.027-1.883 17.121-1.752 17.665-1.678 0.066-0.383 2.995-14.918 6.287-14.918 3.307 0 6.15 14.877 6.185 15.084h0.009l0.003 0.015 0.037-0.079c0 0 17.69-0.271 17.717 1.576 1.002 3.439-14.013 13.316-14.013 13.316z" fill="#000000"></path>
</svg>
