<?xml version="1.0" encoding="utf-8"?>
<!-- Generated by IcoMoon.io -->
<!DOCTYPE svg PUBLIC "-//W3C//DTD SVG 1.1//EN" "http://www.w3.org/Graphics/SVG/1.1/DTD/svg11.dtd">
<svg version="1.1" xmlns="http://www.w3.org/2000/svg" xmlns:xlink="http://www.w3.org/1999/xlink" width="48" height="48" viewBox="0 0 48 48">
<path d="M45 0h-42c-1.656 0-3 1.344-3 3v30c0 1.656 1.344 3 3 3h12l-6 12h1.5l10.8-12h5.4l10.8 12h1.5l-6-12h12c1.656 0 3-1.344 3-3v-30c0-1.656-1.344-3-3-3zM45 31.5c0 0.83-0.67 1.5-1.5 1.5h-39c-0.829 0-1.5-0.67-1.5-1.5v-27c0-0.829 0.671-1.5 1.5-1.5h39c0.83 0 1.5 0.671 1.5 1.5v27zM31.317 23.447l-6.782-17.444-7.407 13.935-4.134-4.252-6.995 4.359 1.974 1.137 4.482-2.793 5.408 5.568 6.262-11.779 6.924 17.818 5.906-12.432 2.406 5.121 2.639-0.443-5.031-10.698-5.652 11.902z" fill="#000000"></path>
</svg>
