<?xml version="1.0" encoding="utf-8"?>
<!-- Generated by IcoMoon.io -->
<!DOCTYPE svg PUBLIC "-//W3C//DTD SVG 1.1//EN" "http://www.w3.org/Graphics/SVG/1.1/DTD/svg11.dtd">
<svg version="1.1" xmlns="http://www.w3.org/2000/svg" xmlns:xlink="http://www.w3.org/1999/xlink" width="48" height="48" viewBox="0 0 48 48">
<path d="M45 24c0 11.598-9.402 21-21 21s-21-9.402-21-21c0-5.112 1.839-9.784 4.875-13.425 0.231-0.426 0.552-0.796 0.953-1.065 0.067-0.070 0.127-0.15 0.197-0.219 0.002 0.035 0.016 0.068 0.019 0.102 0.434-0.243 0.925-0.393 1.457-0.393 1.656 0 3 1.344 3 3 0 1.044-0.533 1.962-1.342 2.499 0.053 0.039 0.090 0.087 0.144 0.126-2.063 2.568-3.302 5.825-3.302 9.375 0 8.285 6.716 15 15 15s15-6.715 15-15c0-3.55-1.239-6.807-3.302-9.375 0.054-0.039 0.093-0.087 0.144-0.126-0.81-0.537-1.343-1.455-1.343-2.499 0-1.656 1.344-3 3-3 0.531 0 1.023 0.15 1.456 0.393 0.003-0.034 0.018-0.067 0.021-0.102 0.068 0.069 0.128 0.149 0.197 0.219 0.401 0.268 0.72 0.639 0.953 1.065 3.033 3.64 4.873 8.313 4.873 13.425zM25.5 27h-3c-0.83 0-1.5-0.67-1.5-1.5v-21c0-0.828 0.67-1.5 1.5-1.5h3c0.83 0 1.5 0.672 1.5 1.5v21c0 0.83-0.67 1.5-1.5 1.5z" fill="#000000"></path>
</svg>
