<?xml version="1.0" encoding="utf-8"?>
<!-- Generated by IcoMoon.io -->
<!DOCTYPE svg PUBLIC "-//W3C//DTD SVG 1.1//EN" "http://www.w3.org/Graphics/SVG/1.1/DTD/svg11.dtd">
<svg version="1.1" xmlns="http://www.w3.org/2000/svg" xmlns:xlink="http://www.w3.org/1999/xlink" width="48" height="48" viewBox="0 0 48 48">
<path d="M43.52 0.088v-0.075h-14.619c-0.258-0.033-0.521-0.024-0.764 0.078-0.444 0.118-0.813 0.413-0.993 0.828l-26.726 26.724c-0.584 0.585-0.584 1.532 0 2.115l17.808 17.808c0.585 0.584 1.532 0.584 2.115 0l26.648-26.649c0.594-0.199 1.031-0.744 1.031-1.405v-14.25c0-2.641-1.959-4.806-4.5-5.173zM39.020 12.014c-1.656 0-3-1.344-3-3s1.344-3 3-3 3 1.344 3 3-1.344 3-3 3z" fill="#000000"></path>
</svg>
