<?xml version="1.0" encoding="utf-8"?>
<!-- Generated by IcoMoon.io -->
<!DOCTYPE svg PUBLIC "-//W3C//DTD SVG 1.1//EN" "http://www.w3.org/Graphics/SVG/1.1/DTD/svg11.dtd">
<svg version="1.1" xmlns="http://www.w3.org/2000/svg" xmlns:xlink="http://www.w3.org/1999/xlink" width="48" height="48" viewBox="0 0 48 48">
<path d="M24 0c-13.255 0-24 10.746-24 24s10.745 24 24 24 24-10.746 24-24c0-13.254-10.745-24-24-24zM27 41.73v-5.73c0-0.83-0.67-1.5-1.5-1.5h-3c-0.83 0-1.5 0.67-1.5 1.5v5.73c-7.532-1.266-13.473-7.2-14.741-14.73h5.74c0.83 0 1.5-0.67 1.5-1.5v-3c0-0.83-0.67-1.5-1.5-1.5h-5.73c1.266-7.533 7.2-13.473 14.73-14.741v5.74c0 0.828 0.67 1.5 1.5 1.5h3c0.83 0 1.5-0.672 1.5-1.5v-5.74c7.53 1.267 13.464 7.207 14.73 14.741h-5.73c-0.83 0-1.5 0.67-1.5 1.5v3c0 0.83 0.67 1.5 1.5 1.5h5.74c-1.267 7.53-7.209 13.464-14.74 14.73z" fill="#000000"></path>
</svg>
