<?xml version="1.0" encoding="utf-8"?>
<!-- Generated by IcoMoon.io -->
<!DOCTYPE svg PUBLIC "-//W3C//DTD SVG 1.1//EN" "http://www.w3.org/Graphics/SVG/1.1/DTD/svg11.dtd">
<svg version="1.1" xmlns="http://www.w3.org/2000/svg" xmlns:xlink="http://www.w3.org/1999/xlink" width="48" height="48" viewBox="0 0 48 48">
<path d="M24 12c-6.627 0-12 5.373-12 12s5.373 12 12 12 12-5.373 12-12-5.373-12-12-12zM24 33c-4.97 0-9-4.031-9-9s4.030-9 9-9 9 4.030 9 9-4.031 9-9 9zM24 0c-13.255 0-24 10.745-24 24s10.745 24 24 24 24-10.745 24-24-10.745-24-24-24zM24 42c-9.94 0-18-8.059-18-18s8.060-18 18-18 18 8.060 18 18-8.059 18-18 18zM24 19.5c-2.486 0-4.5 2.014-4.5 4.5s2.014 4.5 4.5 4.5 4.5-2.014 4.5-4.5-2.014-4.5-4.5-4.5z" fill="#000000"></path>
</svg>
