<?xml version="1.0" encoding="utf-8"?>
<!-- Generated by IcoMoon.io -->
<!DOCTYPE svg PUBLIC "-//W3C//DTD SVG 1.1//EN" "http://www.w3.org/Graphics/SVG/1.1/DTD/svg11.dtd">
<svg version="1.1" xmlns="http://www.w3.org/2000/svg" xmlns:xlink="http://www.w3.org/1999/xlink" width="48" height="48" viewBox="0 0 48 48">
<path d="M46.5 21h-4.76c-1.267-7.53-7.209-13.462-14.74-14.73v-4.77c0-0.83-0.67-1.5-1.5-1.5h-3c-0.83 0-1.5 0.67-1.5 1.5v4.77c-7.532 1.268-13.473 7.2-14.741 14.73h-4.76c-0.83 0-1.5 0.67-1.5 1.5v3c0 0.83 0.67 1.5 1.5 1.5h4.76c1.267 7.53 7.209 13.464 14.741 14.73v4.77c0 0.83 0.67 1.5 1.5 1.5h3c0.83 0 1.5-0.67 1.5-1.5v-4.77c7.532-1.267 13.473-7.202 14.74-14.73h4.76c0.83 0 1.5-0.67 1.5-1.5v-3c0-0.83-0.67-1.5-1.5-1.5zM35.619 21h-8.619v-8.607c4.214 1.087 7.532 4.397 8.619 8.607zM21 12.393v8.607h-8.62c1.087-4.21 4.407-7.52 8.62-8.607zM12.38 27h8.62v8.606c-4.214-1.085-7.533-4.394-8.62-8.606zM27 35.605v-8.605h8.619c-1.087 4.212-4.405 7.521-8.619 8.606z" fill="#000000"></path>
</svg>
