<?xml version="1.0" encoding="utf-8"?>
<!-- Generated by IcoMoon.io -->
<!DOCTYPE svg PUBLIC "-//W3C//DTD SVG 1.1//EN" "http://www.w3.org/Graphics/SVG/1.1/DTD/svg11.dtd">
<svg version="1.1" xmlns="http://www.w3.org/2000/svg" xmlns:xlink="http://www.w3.org/1999/xlink" width="48" height="48" viewBox="0 0 48 48">
<path d="M11.471 19.604c0.172-0.816-0.919-1.523-2.094-1.551-1.407-0.035-2.492-0.047-3.468-0.051-0.803-0.003-1.404 0.67-1.409 1.498v22.5c0.005 0.828 0.604 1.502 1.413 1.498 0.982-0.005 2.089-0.017 3.566-0.051 1.233-0.030 2.391-0.735 2.193-1.551-1.533-7.403-1.545-14.891-0.201-22.293zM40.5 24h-13.5v-3h13.5c1.656 0 3-1.344 3-3s-1.344-3-3-3h-13.125l0.188-2.253 0.938-7.497c0-2.899-2.349-5.25-5.25-5.25-2.899 0-5.25-0.649-5.25 2.25l-0.858 5.25-0.641 4.487-1.501 9.764c0 0.154 0.023 0.276 0.052 0.387l-0.052 0.363-1.371 0.901c0 0-0.129 0.384-0.129 0.599v16.5c0 0.83 0.672 1.5 1.5 1.5h0.152c0.694 3.423 3.72 6 7.349 6h12c3.628 0 6.654-2.577 7.349-6h-11.849c-1.656 0-3-1.344-3-3h12c1.656 0 3-1.344 3-3s-1.344-3-3-3h-12v-3h13.5c1.656 0 3-1.344 3-3s-1.344-3-3-3z" fill="#000000"></path>
</svg>
