<?xml version="1.0" encoding="utf-8"?>
<!-- Generated by IcoMoon.io -->
<!DOCTYPE svg PUBLIC "-//W3C//DTD SVG 1.1//EN" "http://www.w3.org/Graphics/SVG/1.1/DTD/svg11.dtd">
<svg version="1.1" xmlns="http://www.w3.org/2000/svg" xmlns:xlink="http://www.w3.org/1999/xlink" width="48" height="48" viewBox="0 0 48 48">
<path d="M42.087 4.497c-0.983 0.005-2.090 0.017-3.564 0.051-1.234 0.030-2.392 0.735-2.194 1.549 1.533 7.395 1.545 14.875 0.201 22.27-0.171 0.814 0.918 1.521 2.094 1.55 1.407 0.034 2.492 0.046 3.468 0.051 0.803 0.003 1.406-0.669 1.409-1.497v-22.477c-0.006-0.828-0.603-1.5-1.413-1.497zM33 5.994h-0.151c-0.695-3.42-3.72-5.994-7.349-5.994h-12c-3.629 0-6.654 2.574-7.348 5.994h11.848c1.656 0 3 1.343 3 2.997h-12c-1.656 0-3 1.342-3 2.997s1.344 2.997 3 2.997h12v2.997h-13.5c-1.656 0-3 1.343-3 2.997s1.344 2.997 3 2.997h13.5v2.997h-13.5c-1.656 0-3 1.343-3 2.997s1.344 2.997 3 2.997h13.125l-0.188 2.248-0.938 7.494c0 2.897 2.351 5.244 5.25 5.244 2.901 0 5.25 0.65 5.25-2.248l0.857-5.244 0.642-4.482 1.502-9.755c0-0.156-0.023-0.276-0.053-0.387l0.053-0.363 1.371-0.9c0 0 0.129-0.386 0.129-0.599v-16.484c0-0.828-0.67-1.498-1.5-1.498z" fill="#000000"></path>
</svg>
