<?xml version="1.0" encoding="utf-8"?>
<!-- Generated by IcoMoon.io -->
<!DOCTYPE svg PUBLIC "-//W3C//DTD SVG 1.1//EN" "http://www.w3.org/Graphics/SVG/1.1/DTD/svg11.dtd">
<svg version="1.1" xmlns="http://www.w3.org/2000/svg" xmlns:xlink="http://www.w3.org/1999/xlink" width="48" height="48" viewBox="0 0 48 48">
<path d="M31.5 42c0.83 0 1.5-0.67 1.5-1.5v-21c0-0.83-0.67-1.5-1.5-1.5s-1.5 0.67-1.5 1.5v21c0 0.83 0.67 1.5 1.5 1.5zM16.5 42c0.828 0 1.5-0.67 1.5-1.5v-21c0-0.83-0.672-1.5-1.5-1.5s-1.5 0.67-1.5 1.5v21c0 0.83 0.672 1.5 1.5 1.5zM43.5 9h-6v-3c0-3.314-2.687-6-6-6h-15c-3.313 0-6 2.686-6 6v3h-6l-4.5 4.5c0 0.83 0.672 1.5 1.5 1.5h4.5v30c0 1.656 1.344 3 3 3h30c1.656 0 3-1.344 3-3v-30h4.5c0.83 0 1.5-0.67 1.5-1.5l-4.5-4.5zM15 6c0-1.656 1.344-3 3-3h12c1.656 0 3 1.344 3 3v3h-18v-3zM39 43.5c0 0.83-0.67 1.5-1.5 1.5h-27c-0.828 0-1.5-0.67-1.5-1.5v-28.5h30v28.5zM24 42c0.83 0 1.5-0.67 1.5-1.5v-21c0-0.83-0.67-1.5-1.5-1.5s-1.5 0.67-1.5 1.5v21c0 0.83 0.67 1.5 1.5 1.5z" fill="#000000"></path>
</svg>
