<?xml version="1.0" encoding="utf-8"?>
<!-- Generated by IcoMoon.io -->
<!DOCTYPE svg PUBLIC "-//W3C//DTD SVG 1.1//EN" "http://www.w3.org/Graphics/SVG/1.1/DTD/svg11.dtd">
<svg version="1.1" xmlns="http://www.w3.org/2000/svg" xmlns:xlink="http://www.w3.org/1999/xlink" width="48" height="48" viewBox="0 0 48 48">
<path d="M42 0h-36c-0.828 0-1.5 0.672-1.5 1.5v9c0 0.828 0.672 1.5 1.5 1.5h1.5c0.828 0 1.5-0.672 1.5-1.5l3-4.5h9v36l-7.5 3c-0.828 0-1.5 0.67-1.5 1.5s0.672 1.5 1.5 1.5h21c0.83 0 1.5-0.67 1.5-1.5s-0.67-1.5-1.5-1.5l-7.5-3v-36h9l3 4.5c0 0.828 0.67 1.5 1.5 1.5h1.5c0.83 0 1.5-0.672 1.5-1.5v-9c0-0.828-0.67-1.5-1.5-1.5z" fill="#000000"></path>
</svg>
