<?xml version="1.0" encoding="utf-8"?>
<!-- Generated by IcoMoon.io -->
<!DOCTYPE svg PUBLIC "-//W3C//DTD SVG 1.1//EN" "http://www.w3.org/Graphics/SVG/1.1/DTD/svg11.dtd">
<svg version="1.1" xmlns="http://www.w3.org/2000/svg" xmlns:xlink="http://www.w3.org/1999/xlink" width="48" height="48" viewBox="0 0 48 48">
<path d="M0 48v-4.5c0-6.726 8.473-9.269 19.648-10.293-2.454-1.521-4.38-5.796-5.383-9.21-0.005 0-0.009 0.003-0.015 0.003-0.102 0-2.25-2.686-2.25-6 0-2.907-0.207-5.331 1.511-5.88-0.002-0.040-0.011-0.080-0.011-0.12 0-3.685 1.907-6.915 4.78-8.788 0.742-1.853 3.006-3.212 5.72-3.212s4.977 1.359 5.719 3.212c2.874 1.873 4.781 5.103 4.781 8.788 0 0.040-0.009 0.080-0.011 0.12 1.717 0.549 1.511 2.973 1.511 5.88 0 3.314-2.382 6-2.25 6-0.006 0-0.011-0.003-0.015-0.003-1.004 3.412-2.93 7.689-5.383 9.21 11.175 1.025 19.648 3.473 19.648 10.293v4.5h-48z" fill="#000000"></path>
</svg>
