<?xml version="1.0" encoding="utf-8"?>
<!-- Generated by IcoMoon.io -->
<!DOCTYPE svg PUBLIC "-//W3C//DTD SVG 1.1//EN" "http://www.w3.org/Graphics/SVG/1.1/DTD/svg11.dtd">
<svg version="1.1" xmlns="http://www.w3.org/2000/svg" xmlns:xlink="http://www.w3.org/1999/xlink" width="48" height="48" viewBox="0 0 48 48">
<path d="M33.848 6.021c-0.282 0-0.556 0.031-0.833 0.053v2.61c6.437 0 11.655 6.856 11.655 15.316s-5.218 15.316-11.655 15.316v2.61c0.276 0.021 0.55 0.053 0.833 0.053 7.818 0 14.152-8.049 14.152-17.979s-6.334-17.979-14.153-17.979zM40.508 24c0-5.229-3.177-9.592-7.491-10.957v3.6c2.208 1.316 3.745 4.101 3.745 7.356s-1.538 6.041-3.745 7.356v3.6c4.314-1.362 7.491-5.726 7.491-10.955zM25.512 0c-0.83 0-1.5 0.67-1.5 1.5l-15.009 16.5h-7.503c-0.83 0-1.5 0.67-1.5 1.5v12c0 0.83 0.672 1.5 1.5 1.5h7.503l15.007 13.5c0 0.83 0.671 1.5 1.5 1.5 0.831 0 1.502-0.67 1.502-1.5v-45c0.002-0.83-0.669-1.5-1.5-1.5z" fill="#000000"></path>
</svg>
