<?xml version="1.0" encoding="utf-8"?>
<!-- Generated by IcoMoon.io -->
<!DOCTYPE svg PUBLIC "-//W3C//DTD SVG 1.1//EN" "http://www.w3.org/Graphics/SVG/1.1/DTD/svg11.dtd">
<svg version="1.1" xmlns="http://www.w3.org/2000/svg" xmlns:xlink="http://www.w3.org/1999/xlink" width="48" height="48" viewBox="0 0 48 48">
<path d="M47.364 39.316l-17.999-36c-1.015-2.032-3.091-3.316-5.366-3.316s-4.35 1.284-5.366 3.316l-17.998 36c-0.93 1.86-0.831 4.069 0.263 5.84 1.093 1.767 3.024 2.844 5.103 2.844h35.996c2.081 0 4.011-1.077 5.103-2.844 1.094-1.77 1.193-3.979 0.264-5.84zM26.997 40.5c0 0.83-0.67 1.5-1.5 1.5h-3c-0.829 0-1.5-0.67-1.5-1.5v-3c0-0.83 0.671-1.5 1.5-1.5h3c0.83 0 1.5 0.67 1.5 1.5v3zM26.997 28.5c0 0.83-0.67 1.5-1.5 1.5h-3c-0.829 0-1.5-0.67-1.5-1.5v-15c0-0.828 0.671-1.5 1.5-1.5h3c0.83 0 1.5 0.672 1.5 1.5v15z" fill="#000000"></path>
</svg>
