<?xml version="1.0" encoding="utf-8"?>
<!-- Generated by IcoMoon.io -->
<!DOCTYPE svg PUBLIC "-//W3C//DTD SVG 1.1//EN" "http://www.w3.org/Graphics/SVG/1.1/DTD/svg11.dtd">
<svg version="1.1" xmlns="http://www.w3.org/2000/svg" xmlns:xlink="http://www.w3.org/1999/xlink" width="48" height="48" viewBox="0 0 48 48">
<path d="M6 12h3v-3h-3v3zM42 3h-36c-3.314 0-6 2.686-6 6v36h48v-36c0-3.314-2.687-6-6-6zM45 42h-42v-24h42v24zM45 15h-42v-6c0-1.656 1.344-3 3-3h36c1.656 0 3 1.344 3 3v6zM40.5 9h-21c-0.828 0-1.5 0.672-1.5 1.5s0.672 1.5 1.5 1.5h21c0.83 0 1.5-0.672 1.5-1.5s-0.67-1.5-1.5-1.5zM12 12h3v-3h-3v3z" fill="#000000"></path>
</svg>
