<?xml version="1.0" encoding="utf-8"?>
<!-- Generated by IcoMoon.io -->
<!DOCTYPE svg PUBLIC "-//W3C//DTD SVG 1.1//EN" "http://www.w3.org/Graphics/SVG/1.1/DTD/svg11.dtd">
<svg version="1.1" xmlns="http://www.w3.org/2000/svg" xmlns:xlink="http://www.w3.org/1999/xlink" width="48" height="48" viewBox="0 0 48 48">
<path d="M43.572 24.119c-0.011 0.005-0.021 0.011-0.027 0.011 0 0.007 0 0.018 0 0.024-3.108 1.605-5.953 2.243-8.511 2.243-3.872 0-7.083-1.463-9.551-3.268-0.015-0.011-0.034-0.024-0.046-0.038l4.488-17.004c1.419 1.211 4.629 3.475 9.494 3.475 2.449 0 5.312-0.573 8.58-2.136l-4.427 16.694zM14.074 17.505c-0.040 0-0.080 0-0.121 0-2.322 0-5.085 0.674-8.493 2.196l4.377-16.824c3.317-1.48 6.015-2.078 8.265-2.126 0.016 0 0.033 0 0.051 0 1.323 0 2.519 0.172 3.576 0.447 2.214 0.618 5.397 2.705 5.397 2.705v0.012c-0.912 3.42-3.612 13.554-4.523 16.929-2.376-1.724-4.929-3.299-8.529-3.339zM12.383 21.605c0.288-0.027 0.575-0.036 0.861-0.036 2.526 0 4.832 0.968 6.486 1.896 0.708 0.417 1.377 0.871 2.041 1.323-0.588 2.207-3.687 13.786-4.599 17.172-2.458-1.791-5.064-3.381-8.822-3.381-2.281 0-4.994 0.592-8.349 2.074l4.443-16.863c0.506-0.225 0.999-0.432 1.478-0.621 1.62-0.624 3.927-1.332 6.46-1.564zM34.032 30.338c2.358 0 5.15-0.477 8.388-1.747l-4.269 16.335c-3.681 1.662-6.624 2.324-9.086 2.324-3.889 0-9.073-3.499-9.067-3.495l4.43-16.836c1.349 1.178 4.47 3.42 9.605 3.42z" fill="#000000"></path>
</svg>
