<?xml version="1.0" encoding="utf-8"?>
<!-- Generated by IcoMoon.io -->
<!DOCTYPE svg PUBLIC "-//W3C//DTD SVG 1.1//EN" "http://www.w3.org/Graphics/SVG/1.1/DTD/svg11.dtd">
<svg version="1.1" xmlns="http://www.w3.org/2000/svg" xmlns:xlink="http://www.w3.org/1999/xlink" width="48" height="48" viewBox="0 0 48 48">
<path d="M37.473 14.577c0.559 0.559 1.467 0.559 2.025 0l7.924-6.239c1.319 4.146 0.387 8.853-2.902 12.143-3.138 3.139-7.569 4.128-11.571 3.072l-9.399 9.399c1.056 4.004 0.066 8.433-3.070 11.571-3.29 3.29-7.998 4.221-12.144 2.902l6.242-7.923c0.559-0.561 0.559-1.467 0-2.026l-4.050-4.048c-0.559-0.56-1.467-0.56-2.025 0l-7.925 6.238c-1.319-4.146-0.387-8.852 2.901-12.141 3.139-3.14 7.569-4.13 11.572-3.072l9.4-9.4c-1.057-4.002-0.068-8.433 3.069-11.571 3.29-3.29 7.998-4.221 12.145-2.904l-6.242 7.926c-0.558 0.558-0.558 1.466 0 2.024l4.048 4.050z" fill="#000000"></path>
</svg>
